G04 EAGLE Gerber RS-274X export*
G75*
%MOMM*%
%FSLAX34Y34*%
%LPD*%
%INSilkscreen Top*%
%IPPOS*%
%AMOC8*
5,1,8,0,0,1.08239X$1,22.5*%
G01*
%ADD10C,0.203200*%
%ADD11C,0.254000*%
%ADD12C,0.152400*%
%ADD13C,0.127000*%
%ADD14R,0.863600X0.609600*%
%ADD15C,0.762000*%
%ADD16R,0.762000X0.508000*%
%ADD17R,0.762000X1.016000*%


D10*
X567690Y899160D02*
X529590Y899160D01*
D11*
X528974Y898686D01*
X528369Y898197D01*
X527777Y897693D01*
X527197Y897175D01*
X526630Y896643D01*
X526076Y896097D01*
X525536Y895538D01*
X525010Y894965D01*
X524497Y894380D01*
X524000Y893783D01*
X523517Y893174D01*
X523049Y892553D01*
X522596Y891920D01*
X522159Y891277D01*
X521738Y890623D01*
X521334Y889959D01*
X520945Y889286D01*
X520573Y888603D01*
X520218Y887911D01*
X519880Y887211D01*
X519559Y886503D01*
X519256Y885787D01*
X518970Y885063D01*
X518702Y884334D01*
X518452Y883597D01*
X518221Y882855D01*
X518007Y882107D01*
X517812Y881355D01*
X517635Y880597D01*
X517477Y879836D01*
X517337Y879071D01*
X517217Y878303D01*
X517115Y877532D01*
X517032Y876759D01*
X516968Y875984D01*
X516923Y875208D01*
X516897Y874431D01*
X516890Y873653D01*
X516902Y872876D01*
X516933Y872099D01*
X516984Y871323D01*
X517053Y870548D01*
X517141Y869776D01*
X517248Y869006D01*
X517374Y868238D01*
X517518Y867474D01*
X517682Y866714D01*
X517864Y865958D01*
X518064Y865207D01*
X518282Y864460D01*
X518519Y863720D01*
X518774Y862985D01*
X519047Y862257D01*
X519338Y861536D01*
X519646Y860822D01*
X519971Y860116D01*
X520314Y859418D01*
X520674Y858728D01*
X521050Y858048D01*
X521443Y857377D01*
X521853Y856716D01*
X522278Y856065D01*
X522719Y855425D01*
X523176Y854796D01*
X523648Y854178D01*
X524135Y853572D01*
X524637Y852978D01*
X525153Y852396D01*
X525683Y851827D01*
X526227Y851272D01*
X526785Y850729D01*
X527355Y850201D01*
X527938Y849687D01*
X528534Y849187D01*
X529142Y848702D01*
X529761Y848232D01*
X530392Y847778D01*
X531034Y847339D01*
X531686Y846915D01*
X532349Y846508D01*
X533021Y846117D01*
X533703Y845743D01*
X534393Y845386D01*
X535092Y845046D01*
X535800Y844722D01*
X536514Y844417D01*
X537237Y844128D01*
X537966Y843858D01*
X538701Y843606D01*
X539443Y843371D01*
X540190Y843155D01*
X540942Y842957D01*
X541698Y842778D01*
X542459Y842617D01*
X543223Y842475D01*
X543991Y842352D01*
X544762Y842248D01*
X545535Y842162D01*
X546309Y842096D01*
X547085Y842048D01*
X547862Y842020D01*
X548640Y842010D01*
X549418Y842020D01*
X550195Y842048D01*
X550971Y842096D01*
X551745Y842162D01*
X552518Y842248D01*
X553289Y842352D01*
X554057Y842475D01*
X554821Y842617D01*
X555582Y842778D01*
X556338Y842957D01*
X557090Y843155D01*
X557837Y843371D01*
X558579Y843606D01*
X559314Y843858D01*
X560043Y844128D01*
X560766Y844417D01*
X561480Y844722D01*
X562188Y845046D01*
X562887Y845386D01*
X563577Y845743D01*
X564259Y846117D01*
X564931Y846508D01*
X565594Y846915D01*
X566246Y847339D01*
X566888Y847778D01*
X567519Y848232D01*
X568138Y848702D01*
X568746Y849187D01*
X569342Y849687D01*
X569925Y850201D01*
X570495Y850729D01*
X571053Y851272D01*
X571597Y851827D01*
X572127Y852396D01*
X572643Y852978D01*
X573145Y853572D01*
X573632Y854178D01*
X574104Y854796D01*
X574561Y855425D01*
X575002Y856065D01*
X575427Y856716D01*
X575837Y857377D01*
X576230Y858048D01*
X576606Y858728D01*
X576966Y859418D01*
X577309Y860116D01*
X577634Y860822D01*
X577942Y861536D01*
X578233Y862257D01*
X578506Y862985D01*
X578761Y863720D01*
X578998Y864460D01*
X579216Y865207D01*
X579416Y865958D01*
X579598Y866714D01*
X579762Y867474D01*
X579906Y868238D01*
X580032Y869006D01*
X580139Y869776D01*
X580227Y870548D01*
X580296Y871323D01*
X580347Y872099D01*
X580378Y872876D01*
X580390Y873653D01*
X580383Y874431D01*
X580357Y875208D01*
X580312Y875984D01*
X580248Y876759D01*
X580165Y877532D01*
X580063Y878303D01*
X579943Y879071D01*
X579803Y879836D01*
X579645Y880597D01*
X579468Y881355D01*
X579273Y882107D01*
X579059Y882855D01*
X578828Y883597D01*
X578578Y884334D01*
X578310Y885063D01*
X578024Y885787D01*
X577721Y886503D01*
X577400Y887211D01*
X577062Y887911D01*
X576707Y888603D01*
X576335Y889286D01*
X575946Y889959D01*
X575542Y890623D01*
X575121Y891277D01*
X574684Y891920D01*
X574231Y892553D01*
X573763Y893174D01*
X573280Y893783D01*
X572783Y894380D01*
X572270Y894965D01*
X571744Y895538D01*
X571204Y896097D01*
X570650Y896643D01*
X570083Y897175D01*
X569503Y897693D01*
X568911Y898197D01*
X568306Y898686D01*
X567690Y899160D01*
D12*
X523240Y873760D02*
X523248Y874383D01*
X523271Y875006D01*
X523309Y875629D01*
X523362Y876250D01*
X523431Y876869D01*
X523515Y877487D01*
X523614Y878102D01*
X523728Y878715D01*
X523857Y879325D01*
X524001Y879932D01*
X524160Y880535D01*
X524334Y881133D01*
X524522Y881728D01*
X524725Y882317D01*
X524942Y882901D01*
X525173Y883480D01*
X525419Y884053D01*
X525679Y884620D01*
X525952Y885180D01*
X526239Y885733D01*
X526540Y886280D01*
X526854Y886818D01*
X527181Y887349D01*
X527521Y887871D01*
X527873Y888386D01*
X528239Y888891D01*
X528616Y889387D01*
X529006Y889874D01*
X529407Y890351D01*
X529820Y890818D01*
X530244Y891274D01*
X530679Y891721D01*
X531126Y892156D01*
X531582Y892580D01*
X532049Y892993D01*
X532526Y893394D01*
X533013Y893784D01*
X533509Y894161D01*
X534014Y894527D01*
X534529Y894879D01*
X535051Y895219D01*
X535582Y895546D01*
X536120Y895860D01*
X536667Y896161D01*
X537220Y896448D01*
X537780Y896721D01*
X538347Y896981D01*
X538920Y897227D01*
X539499Y897458D01*
X540083Y897675D01*
X540672Y897878D01*
X541267Y898066D01*
X541865Y898240D01*
X542468Y898399D01*
X543075Y898543D01*
X543685Y898672D01*
X544298Y898786D01*
X544913Y898885D01*
X545531Y898969D01*
X546150Y899038D01*
X546771Y899091D01*
X547394Y899129D01*
X548017Y899152D01*
X548640Y899160D01*
X549263Y899152D01*
X549886Y899129D01*
X550509Y899091D01*
X551130Y899038D01*
X551749Y898969D01*
X552367Y898885D01*
X552982Y898786D01*
X553595Y898672D01*
X554205Y898543D01*
X554812Y898399D01*
X555415Y898240D01*
X556013Y898066D01*
X556608Y897878D01*
X557197Y897675D01*
X557781Y897458D01*
X558360Y897227D01*
X558933Y896981D01*
X559500Y896721D01*
X560060Y896448D01*
X560613Y896161D01*
X561160Y895860D01*
X561698Y895546D01*
X562229Y895219D01*
X562751Y894879D01*
X563266Y894527D01*
X563771Y894161D01*
X564267Y893784D01*
X564754Y893394D01*
X565231Y892993D01*
X565698Y892580D01*
X566154Y892156D01*
X566601Y891721D01*
X567036Y891274D01*
X567460Y890818D01*
X567873Y890351D01*
X568274Y889874D01*
X568664Y889387D01*
X569041Y888891D01*
X569407Y888386D01*
X569759Y887871D01*
X570099Y887349D01*
X570426Y886818D01*
X570740Y886280D01*
X571041Y885733D01*
X571328Y885180D01*
X571601Y884620D01*
X571861Y884053D01*
X572107Y883480D01*
X572338Y882901D01*
X572555Y882317D01*
X572758Y881728D01*
X572946Y881133D01*
X573120Y880535D01*
X573279Y879932D01*
X573423Y879325D01*
X573552Y878715D01*
X573666Y878102D01*
X573765Y877487D01*
X573849Y876869D01*
X573918Y876250D01*
X573971Y875629D01*
X574009Y875006D01*
X574032Y874383D01*
X574040Y873760D01*
X574032Y873137D01*
X574009Y872514D01*
X573971Y871891D01*
X573918Y871270D01*
X573849Y870651D01*
X573765Y870033D01*
X573666Y869418D01*
X573552Y868805D01*
X573423Y868195D01*
X573279Y867588D01*
X573120Y866985D01*
X572946Y866387D01*
X572758Y865792D01*
X572555Y865203D01*
X572338Y864619D01*
X572107Y864040D01*
X571861Y863467D01*
X571601Y862900D01*
X571328Y862340D01*
X571041Y861787D01*
X570740Y861240D01*
X570426Y860702D01*
X570099Y860171D01*
X569759Y859649D01*
X569407Y859134D01*
X569041Y858629D01*
X568664Y858133D01*
X568274Y857646D01*
X567873Y857169D01*
X567460Y856702D01*
X567036Y856246D01*
X566601Y855799D01*
X566154Y855364D01*
X565698Y854940D01*
X565231Y854527D01*
X564754Y854126D01*
X564267Y853736D01*
X563771Y853359D01*
X563266Y852993D01*
X562751Y852641D01*
X562229Y852301D01*
X561698Y851974D01*
X561160Y851660D01*
X560613Y851359D01*
X560060Y851072D01*
X559500Y850799D01*
X558933Y850539D01*
X558360Y850293D01*
X557781Y850062D01*
X557197Y849845D01*
X556608Y849642D01*
X556013Y849454D01*
X555415Y849280D01*
X554812Y849121D01*
X554205Y848977D01*
X553595Y848848D01*
X552982Y848734D01*
X552367Y848635D01*
X551749Y848551D01*
X551130Y848482D01*
X550509Y848429D01*
X549886Y848391D01*
X549263Y848368D01*
X548640Y848360D01*
X548017Y848368D01*
X547394Y848391D01*
X546771Y848429D01*
X546150Y848482D01*
X545531Y848551D01*
X544913Y848635D01*
X544298Y848734D01*
X543685Y848848D01*
X543075Y848977D01*
X542468Y849121D01*
X541865Y849280D01*
X541267Y849454D01*
X540672Y849642D01*
X540083Y849845D01*
X539499Y850062D01*
X538920Y850293D01*
X538347Y850539D01*
X537780Y850799D01*
X537220Y851072D01*
X536667Y851359D01*
X536120Y851660D01*
X535582Y851974D01*
X535051Y852301D01*
X534529Y852641D01*
X534014Y852993D01*
X533509Y853359D01*
X533013Y853736D01*
X532526Y854126D01*
X532049Y854527D01*
X531582Y854940D01*
X531126Y855364D01*
X530679Y855799D01*
X530244Y856246D01*
X529820Y856702D01*
X529407Y857169D01*
X529006Y857646D01*
X528616Y858133D01*
X528239Y858629D01*
X527873Y859134D01*
X527521Y859649D01*
X527181Y860171D01*
X526854Y860702D01*
X526540Y861240D01*
X526239Y861787D01*
X525952Y862340D01*
X525679Y862900D01*
X525419Y863467D01*
X525173Y864040D01*
X524942Y864619D01*
X524725Y865203D01*
X524522Y865792D01*
X524334Y866387D01*
X524160Y866985D01*
X524001Y867588D01*
X523857Y868195D01*
X523728Y868805D01*
X523614Y869418D01*
X523515Y870033D01*
X523431Y870651D01*
X523362Y871270D01*
X523309Y871891D01*
X523271Y872514D01*
X523248Y873137D01*
X523240Y873760D01*
D13*
X528701Y906145D02*
X528701Y917575D01*
X528701Y906145D02*
X533781Y906145D01*
X538607Y906145D02*
X543687Y906145D01*
X538607Y906145D02*
X538607Y917575D01*
X543687Y917575D01*
X542417Y912495D02*
X538607Y912495D01*
X548488Y917575D02*
X548488Y906145D01*
X548488Y917575D02*
X551663Y917575D01*
X551774Y917573D01*
X551884Y917567D01*
X551995Y917558D01*
X552105Y917544D01*
X552214Y917527D01*
X552323Y917506D01*
X552431Y917481D01*
X552538Y917452D01*
X552644Y917420D01*
X552749Y917384D01*
X552852Y917344D01*
X552954Y917301D01*
X553055Y917254D01*
X553154Y917203D01*
X553251Y917150D01*
X553345Y917093D01*
X553438Y917032D01*
X553529Y916969D01*
X553618Y916902D01*
X553704Y916832D01*
X553787Y916759D01*
X553869Y916684D01*
X553947Y916606D01*
X554022Y916524D01*
X554095Y916441D01*
X554165Y916355D01*
X554232Y916266D01*
X554295Y916175D01*
X554356Y916082D01*
X554413Y915988D01*
X554466Y915891D01*
X554517Y915792D01*
X554564Y915691D01*
X554607Y915589D01*
X554647Y915486D01*
X554683Y915381D01*
X554715Y915275D01*
X554744Y915168D01*
X554769Y915060D01*
X554790Y914951D01*
X554807Y914842D01*
X554821Y914732D01*
X554830Y914621D01*
X554836Y914511D01*
X554838Y914400D01*
X554838Y909320D01*
X554836Y909209D01*
X554830Y909099D01*
X554821Y908988D01*
X554807Y908878D01*
X554790Y908769D01*
X554769Y908660D01*
X554744Y908552D01*
X554715Y908445D01*
X554683Y908339D01*
X554647Y908234D01*
X554607Y908131D01*
X554564Y908029D01*
X554517Y907928D01*
X554466Y907829D01*
X554413Y907733D01*
X554356Y907638D01*
X554295Y907545D01*
X554232Y907454D01*
X554165Y907365D01*
X554095Y907279D01*
X554022Y907196D01*
X553947Y907114D01*
X553869Y907036D01*
X553787Y906961D01*
X553704Y906888D01*
X553618Y906818D01*
X553529Y906751D01*
X553438Y906688D01*
X553345Y906627D01*
X553251Y906570D01*
X553154Y906517D01*
X553055Y906466D01*
X552954Y906419D01*
X552852Y906376D01*
X552749Y906336D01*
X552644Y906300D01*
X552538Y906268D01*
X552431Y906239D01*
X552323Y906214D01*
X552214Y906193D01*
X552105Y906176D01*
X551995Y906162D01*
X551884Y906153D01*
X551774Y906147D01*
X551663Y906145D01*
X548488Y906145D01*
X560299Y915035D02*
X563474Y917575D01*
X563474Y906145D01*
X560299Y906145D02*
X566649Y906145D01*
D10*
X425450Y899160D02*
X387350Y899160D01*
D11*
X386734Y898686D01*
X386129Y898197D01*
X385537Y897693D01*
X384957Y897175D01*
X384390Y896643D01*
X383836Y896097D01*
X383296Y895538D01*
X382770Y894965D01*
X382257Y894380D01*
X381760Y893783D01*
X381277Y893174D01*
X380809Y892553D01*
X380356Y891920D01*
X379919Y891277D01*
X379498Y890623D01*
X379094Y889959D01*
X378705Y889286D01*
X378333Y888603D01*
X377978Y887911D01*
X377640Y887211D01*
X377319Y886503D01*
X377016Y885787D01*
X376730Y885063D01*
X376462Y884334D01*
X376212Y883597D01*
X375981Y882855D01*
X375767Y882107D01*
X375572Y881355D01*
X375395Y880597D01*
X375237Y879836D01*
X375097Y879071D01*
X374977Y878303D01*
X374875Y877532D01*
X374792Y876759D01*
X374728Y875984D01*
X374683Y875208D01*
X374657Y874431D01*
X374650Y873653D01*
X374662Y872876D01*
X374693Y872099D01*
X374744Y871323D01*
X374813Y870548D01*
X374901Y869776D01*
X375008Y869006D01*
X375134Y868238D01*
X375278Y867474D01*
X375442Y866714D01*
X375624Y865958D01*
X375824Y865207D01*
X376042Y864460D01*
X376279Y863720D01*
X376534Y862985D01*
X376807Y862257D01*
X377098Y861536D01*
X377406Y860822D01*
X377731Y860116D01*
X378074Y859418D01*
X378434Y858728D01*
X378810Y858048D01*
X379203Y857377D01*
X379613Y856716D01*
X380038Y856065D01*
X380479Y855425D01*
X380936Y854796D01*
X381408Y854178D01*
X381895Y853572D01*
X382397Y852978D01*
X382913Y852396D01*
X383443Y851827D01*
X383987Y851272D01*
X384545Y850729D01*
X385115Y850201D01*
X385698Y849687D01*
X386294Y849187D01*
X386902Y848702D01*
X387521Y848232D01*
X388152Y847778D01*
X388794Y847339D01*
X389446Y846915D01*
X390109Y846508D01*
X390781Y846117D01*
X391463Y845743D01*
X392153Y845386D01*
X392852Y845046D01*
X393560Y844722D01*
X394274Y844417D01*
X394997Y844128D01*
X395726Y843858D01*
X396461Y843606D01*
X397203Y843371D01*
X397950Y843155D01*
X398702Y842957D01*
X399458Y842778D01*
X400219Y842617D01*
X400983Y842475D01*
X401751Y842352D01*
X402522Y842248D01*
X403295Y842162D01*
X404069Y842096D01*
X404845Y842048D01*
X405622Y842020D01*
X406400Y842010D01*
X407178Y842020D01*
X407955Y842048D01*
X408731Y842096D01*
X409505Y842162D01*
X410278Y842248D01*
X411049Y842352D01*
X411817Y842475D01*
X412581Y842617D01*
X413342Y842778D01*
X414098Y842957D01*
X414850Y843155D01*
X415597Y843371D01*
X416339Y843606D01*
X417074Y843858D01*
X417803Y844128D01*
X418526Y844417D01*
X419240Y844722D01*
X419948Y845046D01*
X420647Y845386D01*
X421337Y845743D01*
X422019Y846117D01*
X422691Y846508D01*
X423354Y846915D01*
X424006Y847339D01*
X424648Y847778D01*
X425279Y848232D01*
X425898Y848702D01*
X426506Y849187D01*
X427102Y849687D01*
X427685Y850201D01*
X428255Y850729D01*
X428813Y851272D01*
X429357Y851827D01*
X429887Y852396D01*
X430403Y852978D01*
X430905Y853572D01*
X431392Y854178D01*
X431864Y854796D01*
X432321Y855425D01*
X432762Y856065D01*
X433187Y856716D01*
X433597Y857377D01*
X433990Y858048D01*
X434366Y858728D01*
X434726Y859418D01*
X435069Y860116D01*
X435394Y860822D01*
X435702Y861536D01*
X435993Y862257D01*
X436266Y862985D01*
X436521Y863720D01*
X436758Y864460D01*
X436976Y865207D01*
X437176Y865958D01*
X437358Y866714D01*
X437522Y867474D01*
X437666Y868238D01*
X437792Y869006D01*
X437899Y869776D01*
X437987Y870548D01*
X438056Y871323D01*
X438107Y872099D01*
X438138Y872876D01*
X438150Y873653D01*
X438143Y874431D01*
X438117Y875208D01*
X438072Y875984D01*
X438008Y876759D01*
X437925Y877532D01*
X437823Y878303D01*
X437703Y879071D01*
X437563Y879836D01*
X437405Y880597D01*
X437228Y881355D01*
X437033Y882107D01*
X436819Y882855D01*
X436588Y883597D01*
X436338Y884334D01*
X436070Y885063D01*
X435784Y885787D01*
X435481Y886503D01*
X435160Y887211D01*
X434822Y887911D01*
X434467Y888603D01*
X434095Y889286D01*
X433706Y889959D01*
X433302Y890623D01*
X432881Y891277D01*
X432444Y891920D01*
X431991Y892553D01*
X431523Y893174D01*
X431040Y893783D01*
X430543Y894380D01*
X430030Y894965D01*
X429504Y895538D01*
X428964Y896097D01*
X428410Y896643D01*
X427843Y897175D01*
X427263Y897693D01*
X426671Y898197D01*
X426066Y898686D01*
X425450Y899160D01*
D12*
X381000Y873760D02*
X381008Y874383D01*
X381031Y875006D01*
X381069Y875629D01*
X381122Y876250D01*
X381191Y876869D01*
X381275Y877487D01*
X381374Y878102D01*
X381488Y878715D01*
X381617Y879325D01*
X381761Y879932D01*
X381920Y880535D01*
X382094Y881133D01*
X382282Y881728D01*
X382485Y882317D01*
X382702Y882901D01*
X382933Y883480D01*
X383179Y884053D01*
X383439Y884620D01*
X383712Y885180D01*
X383999Y885733D01*
X384300Y886280D01*
X384614Y886818D01*
X384941Y887349D01*
X385281Y887871D01*
X385633Y888386D01*
X385999Y888891D01*
X386376Y889387D01*
X386766Y889874D01*
X387167Y890351D01*
X387580Y890818D01*
X388004Y891274D01*
X388439Y891721D01*
X388886Y892156D01*
X389342Y892580D01*
X389809Y892993D01*
X390286Y893394D01*
X390773Y893784D01*
X391269Y894161D01*
X391774Y894527D01*
X392289Y894879D01*
X392811Y895219D01*
X393342Y895546D01*
X393880Y895860D01*
X394427Y896161D01*
X394980Y896448D01*
X395540Y896721D01*
X396107Y896981D01*
X396680Y897227D01*
X397259Y897458D01*
X397843Y897675D01*
X398432Y897878D01*
X399027Y898066D01*
X399625Y898240D01*
X400228Y898399D01*
X400835Y898543D01*
X401445Y898672D01*
X402058Y898786D01*
X402673Y898885D01*
X403291Y898969D01*
X403910Y899038D01*
X404531Y899091D01*
X405154Y899129D01*
X405777Y899152D01*
X406400Y899160D01*
X407023Y899152D01*
X407646Y899129D01*
X408269Y899091D01*
X408890Y899038D01*
X409509Y898969D01*
X410127Y898885D01*
X410742Y898786D01*
X411355Y898672D01*
X411965Y898543D01*
X412572Y898399D01*
X413175Y898240D01*
X413773Y898066D01*
X414368Y897878D01*
X414957Y897675D01*
X415541Y897458D01*
X416120Y897227D01*
X416693Y896981D01*
X417260Y896721D01*
X417820Y896448D01*
X418373Y896161D01*
X418920Y895860D01*
X419458Y895546D01*
X419989Y895219D01*
X420511Y894879D01*
X421026Y894527D01*
X421531Y894161D01*
X422027Y893784D01*
X422514Y893394D01*
X422991Y892993D01*
X423458Y892580D01*
X423914Y892156D01*
X424361Y891721D01*
X424796Y891274D01*
X425220Y890818D01*
X425633Y890351D01*
X426034Y889874D01*
X426424Y889387D01*
X426801Y888891D01*
X427167Y888386D01*
X427519Y887871D01*
X427859Y887349D01*
X428186Y886818D01*
X428500Y886280D01*
X428801Y885733D01*
X429088Y885180D01*
X429361Y884620D01*
X429621Y884053D01*
X429867Y883480D01*
X430098Y882901D01*
X430315Y882317D01*
X430518Y881728D01*
X430706Y881133D01*
X430880Y880535D01*
X431039Y879932D01*
X431183Y879325D01*
X431312Y878715D01*
X431426Y878102D01*
X431525Y877487D01*
X431609Y876869D01*
X431678Y876250D01*
X431731Y875629D01*
X431769Y875006D01*
X431792Y874383D01*
X431800Y873760D01*
X431792Y873137D01*
X431769Y872514D01*
X431731Y871891D01*
X431678Y871270D01*
X431609Y870651D01*
X431525Y870033D01*
X431426Y869418D01*
X431312Y868805D01*
X431183Y868195D01*
X431039Y867588D01*
X430880Y866985D01*
X430706Y866387D01*
X430518Y865792D01*
X430315Y865203D01*
X430098Y864619D01*
X429867Y864040D01*
X429621Y863467D01*
X429361Y862900D01*
X429088Y862340D01*
X428801Y861787D01*
X428500Y861240D01*
X428186Y860702D01*
X427859Y860171D01*
X427519Y859649D01*
X427167Y859134D01*
X426801Y858629D01*
X426424Y858133D01*
X426034Y857646D01*
X425633Y857169D01*
X425220Y856702D01*
X424796Y856246D01*
X424361Y855799D01*
X423914Y855364D01*
X423458Y854940D01*
X422991Y854527D01*
X422514Y854126D01*
X422027Y853736D01*
X421531Y853359D01*
X421026Y852993D01*
X420511Y852641D01*
X419989Y852301D01*
X419458Y851974D01*
X418920Y851660D01*
X418373Y851359D01*
X417820Y851072D01*
X417260Y850799D01*
X416693Y850539D01*
X416120Y850293D01*
X415541Y850062D01*
X414957Y849845D01*
X414368Y849642D01*
X413773Y849454D01*
X413175Y849280D01*
X412572Y849121D01*
X411965Y848977D01*
X411355Y848848D01*
X410742Y848734D01*
X410127Y848635D01*
X409509Y848551D01*
X408890Y848482D01*
X408269Y848429D01*
X407646Y848391D01*
X407023Y848368D01*
X406400Y848360D01*
X405777Y848368D01*
X405154Y848391D01*
X404531Y848429D01*
X403910Y848482D01*
X403291Y848551D01*
X402673Y848635D01*
X402058Y848734D01*
X401445Y848848D01*
X400835Y848977D01*
X400228Y849121D01*
X399625Y849280D01*
X399027Y849454D01*
X398432Y849642D01*
X397843Y849845D01*
X397259Y850062D01*
X396680Y850293D01*
X396107Y850539D01*
X395540Y850799D01*
X394980Y851072D01*
X394427Y851359D01*
X393880Y851660D01*
X393342Y851974D01*
X392811Y852301D01*
X392289Y852641D01*
X391774Y852993D01*
X391269Y853359D01*
X390773Y853736D01*
X390286Y854126D01*
X389809Y854527D01*
X389342Y854940D01*
X388886Y855364D01*
X388439Y855799D01*
X388004Y856246D01*
X387580Y856702D01*
X387167Y857169D01*
X386766Y857646D01*
X386376Y858133D01*
X385999Y858629D01*
X385633Y859134D01*
X385281Y859649D01*
X384941Y860171D01*
X384614Y860702D01*
X384300Y861240D01*
X383999Y861787D01*
X383712Y862340D01*
X383439Y862900D01*
X383179Y863467D01*
X382933Y864040D01*
X382702Y864619D01*
X382485Y865203D01*
X382282Y865792D01*
X382094Y866387D01*
X381920Y866985D01*
X381761Y867588D01*
X381617Y868195D01*
X381488Y868805D01*
X381374Y869418D01*
X381275Y870033D01*
X381191Y870651D01*
X381122Y871270D01*
X381069Y871891D01*
X381031Y872514D01*
X381008Y873137D01*
X381000Y873760D01*
D13*
X389001Y906145D02*
X389001Y917575D01*
X389001Y906145D02*
X394081Y906145D01*
X398907Y906145D02*
X403987Y906145D01*
X398907Y906145D02*
X398907Y917575D01*
X403987Y917575D01*
X402717Y912495D02*
X398907Y912495D01*
X408788Y917575D02*
X408788Y906145D01*
X408788Y917575D02*
X411963Y917575D01*
X412074Y917573D01*
X412184Y917567D01*
X412295Y917558D01*
X412405Y917544D01*
X412514Y917527D01*
X412623Y917506D01*
X412731Y917481D01*
X412838Y917452D01*
X412944Y917420D01*
X413049Y917384D01*
X413152Y917344D01*
X413254Y917301D01*
X413355Y917254D01*
X413454Y917203D01*
X413551Y917150D01*
X413645Y917093D01*
X413738Y917032D01*
X413829Y916969D01*
X413918Y916902D01*
X414004Y916832D01*
X414087Y916759D01*
X414169Y916684D01*
X414247Y916606D01*
X414322Y916524D01*
X414395Y916441D01*
X414465Y916355D01*
X414532Y916266D01*
X414595Y916175D01*
X414656Y916082D01*
X414713Y915988D01*
X414766Y915891D01*
X414817Y915792D01*
X414864Y915691D01*
X414907Y915589D01*
X414947Y915486D01*
X414983Y915381D01*
X415015Y915275D01*
X415044Y915168D01*
X415069Y915060D01*
X415090Y914951D01*
X415107Y914842D01*
X415121Y914732D01*
X415130Y914621D01*
X415136Y914511D01*
X415138Y914400D01*
X415138Y909320D01*
X415136Y909209D01*
X415130Y909099D01*
X415121Y908988D01*
X415107Y908878D01*
X415090Y908769D01*
X415069Y908660D01*
X415044Y908552D01*
X415015Y908445D01*
X414983Y908339D01*
X414947Y908234D01*
X414907Y908131D01*
X414864Y908029D01*
X414817Y907928D01*
X414766Y907829D01*
X414713Y907733D01*
X414656Y907638D01*
X414595Y907545D01*
X414532Y907454D01*
X414465Y907365D01*
X414395Y907279D01*
X414322Y907196D01*
X414247Y907114D01*
X414169Y907036D01*
X414087Y906961D01*
X414004Y906888D01*
X413918Y906818D01*
X413829Y906751D01*
X413738Y906688D01*
X413645Y906627D01*
X413551Y906570D01*
X413454Y906517D01*
X413355Y906466D01*
X413254Y906419D01*
X413152Y906376D01*
X413049Y906336D01*
X412944Y906300D01*
X412838Y906268D01*
X412731Y906239D01*
X412623Y906214D01*
X412514Y906193D01*
X412405Y906176D01*
X412295Y906162D01*
X412184Y906153D01*
X412074Y906147D01*
X411963Y906145D01*
X408788Y906145D01*
X424091Y917576D02*
X424195Y917574D01*
X424300Y917568D01*
X424404Y917559D01*
X424507Y917546D01*
X424610Y917528D01*
X424712Y917508D01*
X424814Y917483D01*
X424914Y917455D01*
X425014Y917423D01*
X425112Y917387D01*
X425209Y917348D01*
X425304Y917306D01*
X425398Y917260D01*
X425490Y917210D01*
X425580Y917158D01*
X425668Y917102D01*
X425754Y917042D01*
X425838Y916980D01*
X425919Y916915D01*
X425998Y916847D01*
X426075Y916775D01*
X426148Y916702D01*
X426220Y916625D01*
X426288Y916546D01*
X426353Y916465D01*
X426415Y916381D01*
X426475Y916295D01*
X426531Y916207D01*
X426583Y916117D01*
X426633Y916025D01*
X426679Y915931D01*
X426721Y915836D01*
X426760Y915739D01*
X426796Y915641D01*
X426828Y915541D01*
X426856Y915441D01*
X426881Y915339D01*
X426901Y915237D01*
X426919Y915134D01*
X426932Y915031D01*
X426941Y914927D01*
X426947Y914822D01*
X426949Y914718D01*
X424091Y917575D02*
X423973Y917573D01*
X423854Y917567D01*
X423736Y917558D01*
X423619Y917545D01*
X423502Y917527D01*
X423385Y917507D01*
X423269Y917482D01*
X423154Y917454D01*
X423041Y917421D01*
X422928Y917386D01*
X422816Y917346D01*
X422706Y917304D01*
X422597Y917257D01*
X422489Y917207D01*
X422384Y917154D01*
X422280Y917097D01*
X422178Y917037D01*
X422078Y916974D01*
X421980Y916907D01*
X421884Y916838D01*
X421791Y916765D01*
X421700Y916689D01*
X421611Y916611D01*
X421525Y916529D01*
X421442Y916445D01*
X421361Y916359D01*
X421284Y916269D01*
X421209Y916178D01*
X421137Y916084D01*
X421068Y915987D01*
X421003Y915889D01*
X420940Y915788D01*
X420881Y915685D01*
X420825Y915581D01*
X420773Y915475D01*
X420724Y915367D01*
X420679Y915258D01*
X420637Y915147D01*
X420599Y915035D01*
X425996Y912496D02*
X426072Y912571D01*
X426147Y912650D01*
X426218Y912731D01*
X426287Y912815D01*
X426352Y912901D01*
X426414Y912989D01*
X426474Y913079D01*
X426530Y913171D01*
X426583Y913266D01*
X426632Y913362D01*
X426678Y913460D01*
X426721Y913559D01*
X426760Y913660D01*
X426795Y913762D01*
X426827Y913865D01*
X426855Y913969D01*
X426880Y914074D01*
X426901Y914181D01*
X426918Y914287D01*
X426931Y914394D01*
X426940Y914502D01*
X426946Y914610D01*
X426948Y914718D01*
X425996Y912495D02*
X420599Y906145D01*
X426949Y906145D01*
D10*
X445770Y370840D02*
X407670Y370840D01*
D11*
X407054Y371314D01*
X406449Y371803D01*
X405857Y372307D01*
X405277Y372825D01*
X404710Y373357D01*
X404156Y373903D01*
X403616Y374462D01*
X403090Y375035D01*
X402577Y375620D01*
X402080Y376217D01*
X401597Y376826D01*
X401129Y377447D01*
X400676Y378080D01*
X400239Y378723D01*
X399818Y379377D01*
X399414Y380041D01*
X399025Y380714D01*
X398653Y381397D01*
X398298Y382089D01*
X397960Y382789D01*
X397639Y383497D01*
X397336Y384213D01*
X397050Y384937D01*
X396782Y385666D01*
X396532Y386403D01*
X396301Y387145D01*
X396087Y387893D01*
X395892Y388645D01*
X395715Y389403D01*
X395557Y390164D01*
X395417Y390929D01*
X395297Y391697D01*
X395195Y392468D01*
X395112Y393241D01*
X395048Y394016D01*
X395003Y394792D01*
X394977Y395569D01*
X394970Y396347D01*
X394982Y397124D01*
X395013Y397901D01*
X395064Y398677D01*
X395133Y399452D01*
X395221Y400224D01*
X395328Y400994D01*
X395454Y401762D01*
X395598Y402526D01*
X395762Y403286D01*
X395944Y404042D01*
X396144Y404793D01*
X396362Y405540D01*
X396599Y406280D01*
X396854Y407015D01*
X397127Y407743D01*
X397418Y408464D01*
X397726Y409178D01*
X398051Y409884D01*
X398394Y410582D01*
X398754Y411272D01*
X399130Y411952D01*
X399523Y412623D01*
X399933Y413284D01*
X400358Y413935D01*
X400799Y414575D01*
X401256Y415204D01*
X401728Y415822D01*
X402215Y416428D01*
X402717Y417022D01*
X403233Y417604D01*
X403763Y418173D01*
X404307Y418728D01*
X404865Y419271D01*
X405435Y419799D01*
X406018Y420313D01*
X406614Y420813D01*
X407222Y421298D01*
X407841Y421768D01*
X408472Y422222D01*
X409114Y422661D01*
X409766Y423085D01*
X410429Y423492D01*
X411101Y423883D01*
X411783Y424257D01*
X412473Y424614D01*
X413172Y424954D01*
X413880Y425278D01*
X414594Y425583D01*
X415317Y425872D01*
X416046Y426142D01*
X416781Y426394D01*
X417523Y426629D01*
X418270Y426845D01*
X419022Y427043D01*
X419778Y427222D01*
X420539Y427383D01*
X421303Y427525D01*
X422071Y427648D01*
X422842Y427752D01*
X423615Y427838D01*
X424389Y427904D01*
X425165Y427952D01*
X425942Y427980D01*
X426720Y427990D01*
X427498Y427980D01*
X428275Y427952D01*
X429051Y427904D01*
X429825Y427838D01*
X430598Y427752D01*
X431369Y427648D01*
X432137Y427525D01*
X432901Y427383D01*
X433662Y427222D01*
X434418Y427043D01*
X435170Y426845D01*
X435917Y426629D01*
X436659Y426394D01*
X437394Y426142D01*
X438123Y425872D01*
X438846Y425583D01*
X439560Y425278D01*
X440268Y424954D01*
X440967Y424614D01*
X441657Y424257D01*
X442339Y423883D01*
X443011Y423492D01*
X443674Y423085D01*
X444326Y422661D01*
X444968Y422222D01*
X445599Y421768D01*
X446218Y421298D01*
X446826Y420813D01*
X447422Y420313D01*
X448005Y419799D01*
X448575Y419271D01*
X449133Y418728D01*
X449677Y418173D01*
X450207Y417604D01*
X450723Y417022D01*
X451225Y416428D01*
X451712Y415822D01*
X452184Y415204D01*
X452641Y414575D01*
X453082Y413935D01*
X453507Y413284D01*
X453917Y412623D01*
X454310Y411952D01*
X454686Y411272D01*
X455046Y410582D01*
X455389Y409884D01*
X455714Y409178D01*
X456022Y408464D01*
X456313Y407743D01*
X456586Y407015D01*
X456841Y406280D01*
X457078Y405540D01*
X457296Y404793D01*
X457496Y404042D01*
X457678Y403286D01*
X457842Y402526D01*
X457986Y401762D01*
X458112Y400994D01*
X458219Y400224D01*
X458307Y399452D01*
X458376Y398677D01*
X458427Y397901D01*
X458458Y397124D01*
X458470Y396347D01*
X458463Y395569D01*
X458437Y394792D01*
X458392Y394016D01*
X458328Y393241D01*
X458245Y392468D01*
X458143Y391697D01*
X458023Y390929D01*
X457883Y390164D01*
X457725Y389403D01*
X457548Y388645D01*
X457353Y387893D01*
X457139Y387145D01*
X456908Y386403D01*
X456658Y385666D01*
X456390Y384937D01*
X456104Y384213D01*
X455801Y383497D01*
X455480Y382789D01*
X455142Y382089D01*
X454787Y381397D01*
X454415Y380714D01*
X454026Y380041D01*
X453622Y379377D01*
X453201Y378723D01*
X452764Y378080D01*
X452311Y377447D01*
X451843Y376826D01*
X451360Y376217D01*
X450863Y375620D01*
X450350Y375035D01*
X449824Y374462D01*
X449284Y373903D01*
X448730Y373357D01*
X448163Y372825D01*
X447583Y372307D01*
X446991Y371803D01*
X446386Y371314D01*
X445770Y370840D01*
D12*
X401320Y396240D02*
X401328Y396863D01*
X401351Y397486D01*
X401389Y398109D01*
X401442Y398730D01*
X401511Y399349D01*
X401595Y399967D01*
X401694Y400582D01*
X401808Y401195D01*
X401937Y401805D01*
X402081Y402412D01*
X402240Y403015D01*
X402414Y403613D01*
X402602Y404208D01*
X402805Y404797D01*
X403022Y405381D01*
X403253Y405960D01*
X403499Y406533D01*
X403759Y407100D01*
X404032Y407660D01*
X404319Y408213D01*
X404620Y408760D01*
X404934Y409298D01*
X405261Y409829D01*
X405601Y410351D01*
X405953Y410866D01*
X406319Y411371D01*
X406696Y411867D01*
X407086Y412354D01*
X407487Y412831D01*
X407900Y413298D01*
X408324Y413754D01*
X408759Y414201D01*
X409206Y414636D01*
X409662Y415060D01*
X410129Y415473D01*
X410606Y415874D01*
X411093Y416264D01*
X411589Y416641D01*
X412094Y417007D01*
X412609Y417359D01*
X413131Y417699D01*
X413662Y418026D01*
X414200Y418340D01*
X414747Y418641D01*
X415300Y418928D01*
X415860Y419201D01*
X416427Y419461D01*
X417000Y419707D01*
X417579Y419938D01*
X418163Y420155D01*
X418752Y420358D01*
X419347Y420546D01*
X419945Y420720D01*
X420548Y420879D01*
X421155Y421023D01*
X421765Y421152D01*
X422378Y421266D01*
X422993Y421365D01*
X423611Y421449D01*
X424230Y421518D01*
X424851Y421571D01*
X425474Y421609D01*
X426097Y421632D01*
X426720Y421640D01*
X427343Y421632D01*
X427966Y421609D01*
X428589Y421571D01*
X429210Y421518D01*
X429829Y421449D01*
X430447Y421365D01*
X431062Y421266D01*
X431675Y421152D01*
X432285Y421023D01*
X432892Y420879D01*
X433495Y420720D01*
X434093Y420546D01*
X434688Y420358D01*
X435277Y420155D01*
X435861Y419938D01*
X436440Y419707D01*
X437013Y419461D01*
X437580Y419201D01*
X438140Y418928D01*
X438693Y418641D01*
X439240Y418340D01*
X439778Y418026D01*
X440309Y417699D01*
X440831Y417359D01*
X441346Y417007D01*
X441851Y416641D01*
X442347Y416264D01*
X442834Y415874D01*
X443311Y415473D01*
X443778Y415060D01*
X444234Y414636D01*
X444681Y414201D01*
X445116Y413754D01*
X445540Y413298D01*
X445953Y412831D01*
X446354Y412354D01*
X446744Y411867D01*
X447121Y411371D01*
X447487Y410866D01*
X447839Y410351D01*
X448179Y409829D01*
X448506Y409298D01*
X448820Y408760D01*
X449121Y408213D01*
X449408Y407660D01*
X449681Y407100D01*
X449941Y406533D01*
X450187Y405960D01*
X450418Y405381D01*
X450635Y404797D01*
X450838Y404208D01*
X451026Y403613D01*
X451200Y403015D01*
X451359Y402412D01*
X451503Y401805D01*
X451632Y401195D01*
X451746Y400582D01*
X451845Y399967D01*
X451929Y399349D01*
X451998Y398730D01*
X452051Y398109D01*
X452089Y397486D01*
X452112Y396863D01*
X452120Y396240D01*
X452112Y395617D01*
X452089Y394994D01*
X452051Y394371D01*
X451998Y393750D01*
X451929Y393131D01*
X451845Y392513D01*
X451746Y391898D01*
X451632Y391285D01*
X451503Y390675D01*
X451359Y390068D01*
X451200Y389465D01*
X451026Y388867D01*
X450838Y388272D01*
X450635Y387683D01*
X450418Y387099D01*
X450187Y386520D01*
X449941Y385947D01*
X449681Y385380D01*
X449408Y384820D01*
X449121Y384267D01*
X448820Y383720D01*
X448506Y383182D01*
X448179Y382651D01*
X447839Y382129D01*
X447487Y381614D01*
X447121Y381109D01*
X446744Y380613D01*
X446354Y380126D01*
X445953Y379649D01*
X445540Y379182D01*
X445116Y378726D01*
X444681Y378279D01*
X444234Y377844D01*
X443778Y377420D01*
X443311Y377007D01*
X442834Y376606D01*
X442347Y376216D01*
X441851Y375839D01*
X441346Y375473D01*
X440831Y375121D01*
X440309Y374781D01*
X439778Y374454D01*
X439240Y374140D01*
X438693Y373839D01*
X438140Y373552D01*
X437580Y373279D01*
X437013Y373019D01*
X436440Y372773D01*
X435861Y372542D01*
X435277Y372325D01*
X434688Y372122D01*
X434093Y371934D01*
X433495Y371760D01*
X432892Y371601D01*
X432285Y371457D01*
X431675Y371328D01*
X431062Y371214D01*
X430447Y371115D01*
X429829Y371031D01*
X429210Y370962D01*
X428589Y370909D01*
X427966Y370871D01*
X427343Y370848D01*
X426720Y370840D01*
X426097Y370848D01*
X425474Y370871D01*
X424851Y370909D01*
X424230Y370962D01*
X423611Y371031D01*
X422993Y371115D01*
X422378Y371214D01*
X421765Y371328D01*
X421155Y371457D01*
X420548Y371601D01*
X419945Y371760D01*
X419347Y371934D01*
X418752Y372122D01*
X418163Y372325D01*
X417579Y372542D01*
X417000Y372773D01*
X416427Y373019D01*
X415860Y373279D01*
X415300Y373552D01*
X414747Y373839D01*
X414200Y374140D01*
X413662Y374454D01*
X413131Y374781D01*
X412609Y375121D01*
X412094Y375473D01*
X411589Y375839D01*
X411093Y376216D01*
X410606Y376606D01*
X410129Y377007D01*
X409662Y377420D01*
X409206Y377844D01*
X408759Y378279D01*
X408324Y378726D01*
X407900Y379182D01*
X407487Y379649D01*
X407086Y380126D01*
X406696Y380613D01*
X406319Y381109D01*
X405953Y381614D01*
X405601Y382129D01*
X405261Y382651D01*
X404934Y383182D01*
X404620Y383720D01*
X404319Y384267D01*
X404032Y384820D01*
X403759Y385380D01*
X403499Y385947D01*
X403253Y386520D01*
X403022Y387099D01*
X402805Y387683D01*
X402602Y388272D01*
X402414Y388867D01*
X402240Y389465D01*
X402081Y390068D01*
X401937Y390675D01*
X401808Y391285D01*
X401694Y391898D01*
X401595Y392513D01*
X401511Y393131D01*
X401442Y393750D01*
X401389Y394371D01*
X401351Y394994D01*
X401328Y395617D01*
X401320Y396240D01*
D13*
X407289Y438785D02*
X407289Y450215D01*
X407289Y438785D02*
X412369Y438785D01*
X417195Y438785D02*
X422275Y438785D01*
X417195Y438785D02*
X417195Y450215D01*
X422275Y450215D01*
X421005Y445135D02*
X417195Y445135D01*
X427076Y450215D02*
X427076Y438785D01*
X427076Y450215D02*
X430251Y450215D01*
X430362Y450213D01*
X430472Y450207D01*
X430583Y450198D01*
X430693Y450184D01*
X430802Y450167D01*
X430911Y450146D01*
X431019Y450121D01*
X431126Y450092D01*
X431232Y450060D01*
X431337Y450024D01*
X431440Y449984D01*
X431542Y449941D01*
X431643Y449894D01*
X431742Y449843D01*
X431839Y449790D01*
X431933Y449733D01*
X432026Y449672D01*
X432117Y449609D01*
X432206Y449542D01*
X432292Y449472D01*
X432375Y449399D01*
X432457Y449324D01*
X432535Y449246D01*
X432610Y449164D01*
X432683Y449081D01*
X432753Y448995D01*
X432820Y448906D01*
X432883Y448815D01*
X432944Y448722D01*
X433001Y448628D01*
X433054Y448531D01*
X433105Y448432D01*
X433152Y448331D01*
X433195Y448229D01*
X433235Y448126D01*
X433271Y448021D01*
X433303Y447915D01*
X433332Y447808D01*
X433357Y447700D01*
X433378Y447591D01*
X433395Y447482D01*
X433409Y447372D01*
X433418Y447261D01*
X433424Y447151D01*
X433426Y447040D01*
X433426Y441960D01*
X433424Y441849D01*
X433418Y441739D01*
X433409Y441628D01*
X433395Y441518D01*
X433378Y441409D01*
X433357Y441300D01*
X433332Y441192D01*
X433303Y441085D01*
X433271Y440979D01*
X433235Y440874D01*
X433195Y440771D01*
X433152Y440669D01*
X433105Y440568D01*
X433054Y440469D01*
X433001Y440372D01*
X432944Y440278D01*
X432883Y440185D01*
X432820Y440094D01*
X432753Y440005D01*
X432683Y439919D01*
X432610Y439836D01*
X432535Y439754D01*
X432457Y439676D01*
X432375Y439601D01*
X432292Y439528D01*
X432206Y439458D01*
X432117Y439391D01*
X432026Y439328D01*
X431933Y439267D01*
X431839Y439210D01*
X431742Y439157D01*
X431643Y439106D01*
X431542Y439059D01*
X431440Y439016D01*
X431337Y438976D01*
X431232Y438940D01*
X431126Y438908D01*
X431019Y438879D01*
X430911Y438854D01*
X430802Y438833D01*
X430693Y438816D01*
X430583Y438802D01*
X430472Y438793D01*
X430362Y438787D01*
X430251Y438785D01*
X427076Y438785D01*
X438887Y438785D02*
X442062Y438785D01*
X442173Y438787D01*
X442283Y438793D01*
X442394Y438802D01*
X442504Y438816D01*
X442613Y438833D01*
X442722Y438854D01*
X442830Y438879D01*
X442937Y438908D01*
X443043Y438940D01*
X443148Y438976D01*
X443251Y439016D01*
X443353Y439059D01*
X443454Y439106D01*
X443553Y439157D01*
X443650Y439210D01*
X443744Y439267D01*
X443837Y439328D01*
X443928Y439391D01*
X444017Y439458D01*
X444103Y439528D01*
X444186Y439601D01*
X444268Y439676D01*
X444346Y439754D01*
X444421Y439836D01*
X444494Y439919D01*
X444564Y440005D01*
X444631Y440094D01*
X444694Y440185D01*
X444755Y440278D01*
X444812Y440372D01*
X444865Y440469D01*
X444916Y440568D01*
X444963Y440669D01*
X445006Y440771D01*
X445046Y440874D01*
X445082Y440979D01*
X445114Y441085D01*
X445143Y441192D01*
X445168Y441300D01*
X445189Y441409D01*
X445206Y441518D01*
X445220Y441628D01*
X445229Y441739D01*
X445235Y441849D01*
X445237Y441960D01*
X445235Y442071D01*
X445229Y442181D01*
X445220Y442292D01*
X445206Y442402D01*
X445189Y442511D01*
X445168Y442620D01*
X445143Y442728D01*
X445114Y442835D01*
X445082Y442941D01*
X445046Y443046D01*
X445006Y443149D01*
X444963Y443251D01*
X444916Y443352D01*
X444865Y443451D01*
X444812Y443547D01*
X444755Y443642D01*
X444694Y443735D01*
X444631Y443826D01*
X444564Y443915D01*
X444494Y444001D01*
X444421Y444084D01*
X444346Y444166D01*
X444268Y444244D01*
X444186Y444319D01*
X444103Y444392D01*
X444017Y444462D01*
X443928Y444529D01*
X443837Y444592D01*
X443744Y444653D01*
X443650Y444710D01*
X443553Y444763D01*
X443454Y444814D01*
X443353Y444861D01*
X443251Y444904D01*
X443148Y444944D01*
X443043Y444980D01*
X442937Y445012D01*
X442830Y445041D01*
X442722Y445066D01*
X442613Y445087D01*
X442504Y445104D01*
X442394Y445118D01*
X442283Y445127D01*
X442173Y445133D01*
X442062Y445135D01*
X442697Y450215D02*
X438887Y450215D01*
X442697Y450215D02*
X442797Y450213D01*
X442896Y450207D01*
X442996Y450197D01*
X443094Y450184D01*
X443193Y450166D01*
X443290Y450145D01*
X443386Y450120D01*
X443482Y450091D01*
X443576Y450058D01*
X443669Y450022D01*
X443760Y449982D01*
X443850Y449938D01*
X443938Y449891D01*
X444024Y449841D01*
X444108Y449787D01*
X444190Y449730D01*
X444269Y449670D01*
X444347Y449606D01*
X444421Y449540D01*
X444493Y449471D01*
X444562Y449399D01*
X444628Y449325D01*
X444692Y449247D01*
X444752Y449168D01*
X444809Y449086D01*
X444863Y449002D01*
X444913Y448916D01*
X444960Y448828D01*
X445004Y448738D01*
X445044Y448647D01*
X445080Y448554D01*
X445113Y448460D01*
X445142Y448364D01*
X445167Y448268D01*
X445188Y448171D01*
X445206Y448072D01*
X445219Y447974D01*
X445229Y447874D01*
X445235Y447775D01*
X445237Y447675D01*
X445235Y447575D01*
X445229Y447476D01*
X445219Y447376D01*
X445206Y447278D01*
X445188Y447179D01*
X445167Y447082D01*
X445142Y446986D01*
X445113Y446890D01*
X445080Y446796D01*
X445044Y446703D01*
X445004Y446612D01*
X444960Y446522D01*
X444913Y446434D01*
X444863Y446348D01*
X444809Y446264D01*
X444752Y446182D01*
X444692Y446103D01*
X444628Y446025D01*
X444562Y445951D01*
X444493Y445879D01*
X444421Y445810D01*
X444347Y445744D01*
X444269Y445680D01*
X444190Y445620D01*
X444108Y445563D01*
X444024Y445509D01*
X443938Y445459D01*
X443850Y445412D01*
X443760Y445368D01*
X443669Y445328D01*
X443576Y445292D01*
X443482Y445259D01*
X443386Y445230D01*
X443290Y445205D01*
X443193Y445184D01*
X443094Y445166D01*
X442996Y445153D01*
X442896Y445143D01*
X442797Y445137D01*
X442697Y445135D01*
X440157Y445135D01*
D10*
X529590Y370840D02*
X567690Y370840D01*
D11*
X568306Y371314D01*
X568911Y371803D01*
X569503Y372307D01*
X570083Y372825D01*
X570650Y373357D01*
X571204Y373903D01*
X571744Y374462D01*
X572270Y375035D01*
X572783Y375620D01*
X573280Y376217D01*
X573763Y376826D01*
X574231Y377447D01*
X574684Y378080D01*
X575121Y378723D01*
X575542Y379377D01*
X575946Y380041D01*
X576335Y380714D01*
X576707Y381397D01*
X577062Y382089D01*
X577400Y382789D01*
X577721Y383497D01*
X578024Y384213D01*
X578310Y384937D01*
X578578Y385666D01*
X578828Y386403D01*
X579059Y387145D01*
X579273Y387893D01*
X579468Y388645D01*
X579645Y389403D01*
X579803Y390164D01*
X579943Y390929D01*
X580063Y391697D01*
X580165Y392468D01*
X580248Y393241D01*
X580312Y394016D01*
X580357Y394792D01*
X580383Y395569D01*
X580390Y396347D01*
X580378Y397124D01*
X580347Y397901D01*
X580296Y398677D01*
X580227Y399452D01*
X580139Y400224D01*
X580032Y400994D01*
X579906Y401762D01*
X579762Y402526D01*
X579598Y403286D01*
X579416Y404042D01*
X579216Y404793D01*
X578998Y405540D01*
X578761Y406280D01*
X578506Y407015D01*
X578233Y407743D01*
X577942Y408464D01*
X577634Y409178D01*
X577309Y409884D01*
X576966Y410582D01*
X576606Y411272D01*
X576230Y411952D01*
X575837Y412623D01*
X575427Y413284D01*
X575002Y413935D01*
X574561Y414575D01*
X574104Y415204D01*
X573632Y415822D01*
X573145Y416428D01*
X572643Y417022D01*
X572127Y417604D01*
X571597Y418173D01*
X571053Y418728D01*
X570495Y419271D01*
X569925Y419799D01*
X569342Y420313D01*
X568746Y420813D01*
X568138Y421298D01*
X567519Y421768D01*
X566888Y422222D01*
X566246Y422661D01*
X565594Y423085D01*
X564931Y423492D01*
X564259Y423883D01*
X563577Y424257D01*
X562887Y424614D01*
X562188Y424954D01*
X561480Y425278D01*
X560766Y425583D01*
X560043Y425872D01*
X559314Y426142D01*
X558579Y426394D01*
X557837Y426629D01*
X557090Y426845D01*
X556338Y427043D01*
X555582Y427222D01*
X554821Y427383D01*
X554057Y427525D01*
X553289Y427648D01*
X552518Y427752D01*
X551745Y427838D01*
X550971Y427904D01*
X550195Y427952D01*
X549418Y427980D01*
X548640Y427990D01*
X547862Y427980D01*
X547085Y427952D01*
X546309Y427904D01*
X545535Y427838D01*
X544762Y427752D01*
X543991Y427648D01*
X543223Y427525D01*
X542459Y427383D01*
X541698Y427222D01*
X540942Y427043D01*
X540190Y426845D01*
X539443Y426629D01*
X538701Y426394D01*
X537966Y426142D01*
X537237Y425872D01*
X536514Y425583D01*
X535800Y425278D01*
X535092Y424954D01*
X534393Y424614D01*
X533703Y424257D01*
X533021Y423883D01*
X532349Y423492D01*
X531686Y423085D01*
X531034Y422661D01*
X530392Y422222D01*
X529761Y421768D01*
X529142Y421298D01*
X528534Y420813D01*
X527938Y420313D01*
X527355Y419799D01*
X526785Y419271D01*
X526227Y418728D01*
X525683Y418173D01*
X525153Y417604D01*
X524637Y417022D01*
X524135Y416428D01*
X523648Y415822D01*
X523176Y415204D01*
X522719Y414575D01*
X522278Y413935D01*
X521853Y413284D01*
X521443Y412623D01*
X521050Y411952D01*
X520674Y411272D01*
X520314Y410582D01*
X519971Y409884D01*
X519646Y409178D01*
X519338Y408464D01*
X519047Y407743D01*
X518774Y407015D01*
X518519Y406280D01*
X518282Y405540D01*
X518064Y404793D01*
X517864Y404042D01*
X517682Y403286D01*
X517518Y402526D01*
X517374Y401762D01*
X517248Y400994D01*
X517141Y400224D01*
X517053Y399452D01*
X516984Y398677D01*
X516933Y397901D01*
X516902Y397124D01*
X516890Y396347D01*
X516897Y395569D01*
X516923Y394792D01*
X516968Y394016D01*
X517032Y393241D01*
X517115Y392468D01*
X517217Y391697D01*
X517337Y390929D01*
X517477Y390164D01*
X517635Y389403D01*
X517812Y388645D01*
X518007Y387893D01*
X518221Y387145D01*
X518452Y386403D01*
X518702Y385666D01*
X518970Y384937D01*
X519256Y384213D01*
X519559Y383497D01*
X519880Y382789D01*
X520218Y382089D01*
X520573Y381397D01*
X520945Y380714D01*
X521334Y380041D01*
X521738Y379377D01*
X522159Y378723D01*
X522596Y378080D01*
X523049Y377447D01*
X523517Y376826D01*
X524000Y376217D01*
X524497Y375620D01*
X525010Y375035D01*
X525536Y374462D01*
X526076Y373903D01*
X526630Y373357D01*
X527197Y372825D01*
X527777Y372307D01*
X528369Y371803D01*
X528974Y371314D01*
X529590Y370840D01*
D12*
X523240Y396240D02*
X523248Y396863D01*
X523271Y397486D01*
X523309Y398109D01*
X523362Y398730D01*
X523431Y399349D01*
X523515Y399967D01*
X523614Y400582D01*
X523728Y401195D01*
X523857Y401805D01*
X524001Y402412D01*
X524160Y403015D01*
X524334Y403613D01*
X524522Y404208D01*
X524725Y404797D01*
X524942Y405381D01*
X525173Y405960D01*
X525419Y406533D01*
X525679Y407100D01*
X525952Y407660D01*
X526239Y408213D01*
X526540Y408760D01*
X526854Y409298D01*
X527181Y409829D01*
X527521Y410351D01*
X527873Y410866D01*
X528239Y411371D01*
X528616Y411867D01*
X529006Y412354D01*
X529407Y412831D01*
X529820Y413298D01*
X530244Y413754D01*
X530679Y414201D01*
X531126Y414636D01*
X531582Y415060D01*
X532049Y415473D01*
X532526Y415874D01*
X533013Y416264D01*
X533509Y416641D01*
X534014Y417007D01*
X534529Y417359D01*
X535051Y417699D01*
X535582Y418026D01*
X536120Y418340D01*
X536667Y418641D01*
X537220Y418928D01*
X537780Y419201D01*
X538347Y419461D01*
X538920Y419707D01*
X539499Y419938D01*
X540083Y420155D01*
X540672Y420358D01*
X541267Y420546D01*
X541865Y420720D01*
X542468Y420879D01*
X543075Y421023D01*
X543685Y421152D01*
X544298Y421266D01*
X544913Y421365D01*
X545531Y421449D01*
X546150Y421518D01*
X546771Y421571D01*
X547394Y421609D01*
X548017Y421632D01*
X548640Y421640D01*
X549263Y421632D01*
X549886Y421609D01*
X550509Y421571D01*
X551130Y421518D01*
X551749Y421449D01*
X552367Y421365D01*
X552982Y421266D01*
X553595Y421152D01*
X554205Y421023D01*
X554812Y420879D01*
X555415Y420720D01*
X556013Y420546D01*
X556608Y420358D01*
X557197Y420155D01*
X557781Y419938D01*
X558360Y419707D01*
X558933Y419461D01*
X559500Y419201D01*
X560060Y418928D01*
X560613Y418641D01*
X561160Y418340D01*
X561698Y418026D01*
X562229Y417699D01*
X562751Y417359D01*
X563266Y417007D01*
X563771Y416641D01*
X564267Y416264D01*
X564754Y415874D01*
X565231Y415473D01*
X565698Y415060D01*
X566154Y414636D01*
X566601Y414201D01*
X567036Y413754D01*
X567460Y413298D01*
X567873Y412831D01*
X568274Y412354D01*
X568664Y411867D01*
X569041Y411371D01*
X569407Y410866D01*
X569759Y410351D01*
X570099Y409829D01*
X570426Y409298D01*
X570740Y408760D01*
X571041Y408213D01*
X571328Y407660D01*
X571601Y407100D01*
X571861Y406533D01*
X572107Y405960D01*
X572338Y405381D01*
X572555Y404797D01*
X572758Y404208D01*
X572946Y403613D01*
X573120Y403015D01*
X573279Y402412D01*
X573423Y401805D01*
X573552Y401195D01*
X573666Y400582D01*
X573765Y399967D01*
X573849Y399349D01*
X573918Y398730D01*
X573971Y398109D01*
X574009Y397486D01*
X574032Y396863D01*
X574040Y396240D01*
X574032Y395617D01*
X574009Y394994D01*
X573971Y394371D01*
X573918Y393750D01*
X573849Y393131D01*
X573765Y392513D01*
X573666Y391898D01*
X573552Y391285D01*
X573423Y390675D01*
X573279Y390068D01*
X573120Y389465D01*
X572946Y388867D01*
X572758Y388272D01*
X572555Y387683D01*
X572338Y387099D01*
X572107Y386520D01*
X571861Y385947D01*
X571601Y385380D01*
X571328Y384820D01*
X571041Y384267D01*
X570740Y383720D01*
X570426Y383182D01*
X570099Y382651D01*
X569759Y382129D01*
X569407Y381614D01*
X569041Y381109D01*
X568664Y380613D01*
X568274Y380126D01*
X567873Y379649D01*
X567460Y379182D01*
X567036Y378726D01*
X566601Y378279D01*
X566154Y377844D01*
X565698Y377420D01*
X565231Y377007D01*
X564754Y376606D01*
X564267Y376216D01*
X563771Y375839D01*
X563266Y375473D01*
X562751Y375121D01*
X562229Y374781D01*
X561698Y374454D01*
X561160Y374140D01*
X560613Y373839D01*
X560060Y373552D01*
X559500Y373279D01*
X558933Y373019D01*
X558360Y372773D01*
X557781Y372542D01*
X557197Y372325D01*
X556608Y372122D01*
X556013Y371934D01*
X555415Y371760D01*
X554812Y371601D01*
X554205Y371457D01*
X553595Y371328D01*
X552982Y371214D01*
X552367Y371115D01*
X551749Y371031D01*
X551130Y370962D01*
X550509Y370909D01*
X549886Y370871D01*
X549263Y370848D01*
X548640Y370840D01*
X548017Y370848D01*
X547394Y370871D01*
X546771Y370909D01*
X546150Y370962D01*
X545531Y371031D01*
X544913Y371115D01*
X544298Y371214D01*
X543685Y371328D01*
X543075Y371457D01*
X542468Y371601D01*
X541865Y371760D01*
X541267Y371934D01*
X540672Y372122D01*
X540083Y372325D01*
X539499Y372542D01*
X538920Y372773D01*
X538347Y373019D01*
X537780Y373279D01*
X537220Y373552D01*
X536667Y373839D01*
X536120Y374140D01*
X535582Y374454D01*
X535051Y374781D01*
X534529Y375121D01*
X534014Y375473D01*
X533509Y375839D01*
X533013Y376216D01*
X532526Y376606D01*
X532049Y377007D01*
X531582Y377420D01*
X531126Y377844D01*
X530679Y378279D01*
X530244Y378726D01*
X529820Y379182D01*
X529407Y379649D01*
X529006Y380126D01*
X528616Y380613D01*
X528239Y381109D01*
X527873Y381614D01*
X527521Y382129D01*
X527181Y382651D01*
X526854Y383182D01*
X526540Y383720D01*
X526239Y384267D01*
X525952Y384820D01*
X525679Y385380D01*
X525419Y385947D01*
X525173Y386520D01*
X524942Y387099D01*
X524725Y387683D01*
X524522Y388272D01*
X524334Y388867D01*
X524160Y389465D01*
X524001Y390068D01*
X523857Y390675D01*
X523728Y391285D01*
X523614Y391898D01*
X523515Y392513D01*
X523431Y393131D01*
X523362Y393750D01*
X523309Y394371D01*
X523271Y394994D01*
X523248Y395617D01*
X523240Y396240D01*
D13*
X529209Y438785D02*
X529209Y450215D01*
X529209Y438785D02*
X534289Y438785D01*
X539115Y438785D02*
X544195Y438785D01*
X539115Y438785D02*
X539115Y450215D01*
X544195Y450215D01*
X542925Y445135D02*
X539115Y445135D01*
X548996Y450215D02*
X548996Y438785D01*
X548996Y450215D02*
X552171Y450215D01*
X552282Y450213D01*
X552392Y450207D01*
X552503Y450198D01*
X552613Y450184D01*
X552722Y450167D01*
X552831Y450146D01*
X552939Y450121D01*
X553046Y450092D01*
X553152Y450060D01*
X553257Y450024D01*
X553360Y449984D01*
X553462Y449941D01*
X553563Y449894D01*
X553662Y449843D01*
X553759Y449790D01*
X553853Y449733D01*
X553946Y449672D01*
X554037Y449609D01*
X554126Y449542D01*
X554212Y449472D01*
X554295Y449399D01*
X554377Y449324D01*
X554455Y449246D01*
X554530Y449164D01*
X554603Y449081D01*
X554673Y448995D01*
X554740Y448906D01*
X554803Y448815D01*
X554864Y448722D01*
X554921Y448628D01*
X554974Y448531D01*
X555025Y448432D01*
X555072Y448331D01*
X555115Y448229D01*
X555155Y448126D01*
X555191Y448021D01*
X555223Y447915D01*
X555252Y447808D01*
X555277Y447700D01*
X555298Y447591D01*
X555315Y447482D01*
X555329Y447372D01*
X555338Y447261D01*
X555344Y447151D01*
X555346Y447040D01*
X555346Y441960D01*
X555344Y441849D01*
X555338Y441739D01*
X555329Y441628D01*
X555315Y441518D01*
X555298Y441409D01*
X555277Y441300D01*
X555252Y441192D01*
X555223Y441085D01*
X555191Y440979D01*
X555155Y440874D01*
X555115Y440771D01*
X555072Y440669D01*
X555025Y440568D01*
X554974Y440469D01*
X554921Y440372D01*
X554864Y440278D01*
X554803Y440185D01*
X554740Y440094D01*
X554673Y440005D01*
X554603Y439919D01*
X554530Y439836D01*
X554455Y439754D01*
X554377Y439676D01*
X554295Y439601D01*
X554212Y439528D01*
X554126Y439458D01*
X554037Y439391D01*
X553946Y439328D01*
X553853Y439267D01*
X553759Y439210D01*
X553662Y439157D01*
X553563Y439106D01*
X553462Y439059D01*
X553360Y439016D01*
X553257Y438976D01*
X553152Y438940D01*
X553046Y438908D01*
X552939Y438879D01*
X552831Y438854D01*
X552722Y438833D01*
X552613Y438816D01*
X552503Y438802D01*
X552392Y438793D01*
X552282Y438787D01*
X552171Y438785D01*
X548996Y438785D01*
X560807Y441325D02*
X563347Y450215D01*
X560807Y441325D02*
X567157Y441325D01*
X565252Y443865D02*
X565252Y438785D01*
D12*
X364236Y387604D02*
X364234Y387504D01*
X364228Y387405D01*
X364218Y387305D01*
X364205Y387207D01*
X364187Y387108D01*
X364166Y387011D01*
X364141Y386915D01*
X364112Y386819D01*
X364079Y386725D01*
X364043Y386632D01*
X364003Y386541D01*
X363959Y386451D01*
X363912Y386363D01*
X363862Y386277D01*
X363808Y386193D01*
X363751Y386111D01*
X363691Y386032D01*
X363627Y385954D01*
X363561Y385880D01*
X363492Y385808D01*
X363420Y385739D01*
X363346Y385673D01*
X363268Y385609D01*
X363189Y385549D01*
X363107Y385492D01*
X363023Y385438D01*
X362937Y385388D01*
X362849Y385341D01*
X362759Y385297D01*
X362668Y385257D01*
X362575Y385221D01*
X362481Y385188D01*
X362385Y385159D01*
X362289Y385134D01*
X362192Y385113D01*
X362093Y385095D01*
X361995Y385082D01*
X361895Y385072D01*
X361796Y385066D01*
X361696Y385064D01*
X364236Y405384D02*
X364234Y405484D01*
X364228Y405583D01*
X364218Y405683D01*
X364205Y405781D01*
X364187Y405880D01*
X364166Y405977D01*
X364141Y406073D01*
X364112Y406169D01*
X364079Y406263D01*
X364043Y406356D01*
X364003Y406447D01*
X363959Y406537D01*
X363912Y406625D01*
X363862Y406711D01*
X363808Y406795D01*
X363751Y406877D01*
X363691Y406956D01*
X363627Y407034D01*
X363561Y407108D01*
X363492Y407180D01*
X363420Y407249D01*
X363346Y407315D01*
X363268Y407379D01*
X363189Y407439D01*
X363107Y407496D01*
X363023Y407550D01*
X362937Y407600D01*
X362849Y407647D01*
X362759Y407691D01*
X362668Y407731D01*
X362575Y407767D01*
X362481Y407800D01*
X362385Y407829D01*
X362289Y407854D01*
X362192Y407875D01*
X362093Y407893D01*
X361995Y407906D01*
X361895Y407916D01*
X361796Y407922D01*
X361696Y407924D01*
X303276Y407924D02*
X303176Y407922D01*
X303077Y407916D01*
X302977Y407906D01*
X302879Y407893D01*
X302780Y407875D01*
X302683Y407854D01*
X302587Y407829D01*
X302491Y407800D01*
X302397Y407767D01*
X302304Y407731D01*
X302213Y407691D01*
X302123Y407647D01*
X302035Y407600D01*
X301949Y407550D01*
X301865Y407496D01*
X301783Y407439D01*
X301704Y407379D01*
X301626Y407315D01*
X301552Y407249D01*
X301480Y407180D01*
X301411Y407108D01*
X301345Y407034D01*
X301281Y406956D01*
X301221Y406877D01*
X301164Y406795D01*
X301110Y406711D01*
X301060Y406625D01*
X301013Y406537D01*
X300969Y406447D01*
X300929Y406356D01*
X300893Y406263D01*
X300860Y406169D01*
X300831Y406073D01*
X300806Y405977D01*
X300785Y405880D01*
X300767Y405781D01*
X300754Y405683D01*
X300744Y405583D01*
X300738Y405484D01*
X300736Y405384D01*
X300736Y387604D02*
X300738Y387504D01*
X300744Y387405D01*
X300754Y387305D01*
X300767Y387207D01*
X300785Y387108D01*
X300806Y387011D01*
X300831Y386915D01*
X300860Y386819D01*
X300893Y386725D01*
X300929Y386632D01*
X300969Y386541D01*
X301013Y386451D01*
X301060Y386363D01*
X301110Y386277D01*
X301164Y386193D01*
X301221Y386111D01*
X301281Y386032D01*
X301345Y385954D01*
X301411Y385880D01*
X301480Y385808D01*
X301552Y385739D01*
X301626Y385673D01*
X301704Y385609D01*
X301783Y385549D01*
X301865Y385492D01*
X301949Y385438D01*
X302035Y385388D01*
X302123Y385341D01*
X302213Y385297D01*
X302304Y385257D01*
X302397Y385221D01*
X302491Y385188D01*
X302587Y385159D01*
X302683Y385134D01*
X302780Y385113D01*
X302879Y385095D01*
X302977Y385082D01*
X303077Y385072D01*
X303176Y385066D01*
X303276Y385064D01*
X364236Y387604D02*
X364236Y405384D01*
X361696Y385064D02*
X357886Y385064D01*
X356616Y386334D01*
X357886Y407924D02*
X361696Y407924D01*
X357886Y407924D02*
X356616Y406654D01*
X308356Y386334D02*
X307086Y385064D01*
X308356Y386334D02*
X356616Y386334D01*
X308356Y406654D02*
X307086Y407924D01*
X308356Y406654D02*
X356616Y406654D01*
X307086Y385064D02*
X303276Y385064D01*
X303276Y407924D02*
X307086Y407924D01*
X300736Y405384D02*
X300736Y387604D01*
D14*
X296418Y396494D03*
X368554Y396494D03*
D13*
X326854Y375539D02*
X326854Y364109D01*
X326854Y375539D02*
X330029Y375539D01*
X330140Y375537D01*
X330250Y375531D01*
X330361Y375522D01*
X330471Y375508D01*
X330580Y375491D01*
X330689Y375470D01*
X330797Y375445D01*
X330904Y375416D01*
X331010Y375384D01*
X331115Y375348D01*
X331218Y375308D01*
X331320Y375265D01*
X331421Y375218D01*
X331520Y375167D01*
X331617Y375114D01*
X331711Y375057D01*
X331804Y374996D01*
X331895Y374933D01*
X331984Y374866D01*
X332070Y374796D01*
X332153Y374723D01*
X332235Y374648D01*
X332313Y374570D01*
X332388Y374488D01*
X332461Y374405D01*
X332531Y374319D01*
X332598Y374230D01*
X332661Y374139D01*
X332722Y374046D01*
X332779Y373951D01*
X332832Y373855D01*
X332883Y373756D01*
X332930Y373655D01*
X332973Y373553D01*
X333013Y373450D01*
X333049Y373345D01*
X333081Y373239D01*
X333110Y373132D01*
X333135Y373024D01*
X333156Y372915D01*
X333173Y372806D01*
X333187Y372696D01*
X333196Y372585D01*
X333202Y372475D01*
X333204Y372364D01*
X333202Y372253D01*
X333196Y372143D01*
X333187Y372032D01*
X333173Y371922D01*
X333156Y371813D01*
X333135Y371704D01*
X333110Y371596D01*
X333081Y371489D01*
X333049Y371383D01*
X333013Y371278D01*
X332973Y371175D01*
X332930Y371073D01*
X332883Y370972D01*
X332832Y370873D01*
X332779Y370776D01*
X332722Y370682D01*
X332661Y370589D01*
X332598Y370498D01*
X332531Y370409D01*
X332461Y370323D01*
X332388Y370240D01*
X332313Y370158D01*
X332235Y370080D01*
X332153Y370005D01*
X332070Y369932D01*
X331984Y369862D01*
X331895Y369795D01*
X331804Y369732D01*
X331711Y369671D01*
X331617Y369614D01*
X331520Y369561D01*
X331421Y369510D01*
X331320Y369463D01*
X331218Y369420D01*
X331115Y369380D01*
X331010Y369344D01*
X330904Y369312D01*
X330797Y369283D01*
X330689Y369258D01*
X330580Y369237D01*
X330471Y369220D01*
X330361Y369206D01*
X330250Y369197D01*
X330140Y369191D01*
X330029Y369189D01*
X326854Y369189D01*
X330664Y369189D02*
X333204Y364109D01*
X338201Y372999D02*
X341376Y375539D01*
X341376Y364109D01*
X338201Y364109D02*
X344551Y364109D01*
D12*
X411480Y288798D02*
X523240Y288798D01*
X411480Y288798D02*
X411480Y349758D01*
X523240Y349758D01*
X523240Y288798D01*
X474980Y334518D02*
X429260Y334518D01*
X485140Y334518D02*
X485140Y304038D01*
X480060Y304038D01*
X485140Y334518D02*
X490220Y334518D01*
X490220Y304038D01*
X485140Y304038D01*
X500380Y304038D02*
X505460Y304038D01*
X495300Y334518D02*
X490220Y334518D01*
X429260Y334518D02*
X429260Y333248D01*
X429260Y305308D02*
X429260Y304038D01*
X474980Y331978D02*
X474980Y334518D01*
X480060Y334518D01*
X480060Y326898D01*
X480060Y334518D02*
X485140Y334518D01*
X495300Y334518D02*
X495300Y329438D01*
X495300Y334518D02*
X500380Y334518D01*
X500380Y333248D01*
X500380Y334518D02*
X505460Y334518D01*
X505460Y333248D01*
X505460Y305308D02*
X505460Y304038D01*
X500380Y304038D02*
X500380Y305308D01*
X500380Y304038D02*
X495300Y304038D01*
X495300Y309118D01*
X495300Y304038D02*
X490220Y304038D01*
X480060Y304038D02*
X480060Y311658D01*
X480060Y304038D02*
X474980Y304038D01*
X474980Y306578D01*
X474980Y304038D02*
X429260Y304038D01*
D13*
X512445Y344043D02*
X515620Y346583D01*
X515620Y335153D01*
X512445Y335153D02*
X518795Y335153D01*
X424816Y343726D02*
X424814Y343830D01*
X424808Y343935D01*
X424799Y344039D01*
X424786Y344142D01*
X424768Y344245D01*
X424748Y344347D01*
X424723Y344449D01*
X424695Y344549D01*
X424663Y344649D01*
X424627Y344747D01*
X424588Y344844D01*
X424546Y344939D01*
X424500Y345033D01*
X424450Y345125D01*
X424398Y345215D01*
X424342Y345303D01*
X424282Y345389D01*
X424220Y345473D01*
X424155Y345554D01*
X424087Y345633D01*
X424015Y345710D01*
X423942Y345783D01*
X423865Y345855D01*
X423786Y345923D01*
X423705Y345988D01*
X423621Y346050D01*
X423535Y346110D01*
X423447Y346166D01*
X423357Y346218D01*
X423265Y346268D01*
X423171Y346314D01*
X423076Y346356D01*
X422979Y346395D01*
X422881Y346431D01*
X422781Y346463D01*
X422681Y346491D01*
X422579Y346516D01*
X422477Y346536D01*
X422374Y346554D01*
X422271Y346567D01*
X422167Y346576D01*
X422062Y346582D01*
X421958Y346584D01*
X421958Y346583D02*
X421840Y346581D01*
X421721Y346575D01*
X421603Y346566D01*
X421486Y346553D01*
X421369Y346535D01*
X421252Y346515D01*
X421136Y346490D01*
X421021Y346462D01*
X420908Y346429D01*
X420795Y346394D01*
X420683Y346354D01*
X420573Y346312D01*
X420464Y346265D01*
X420356Y346215D01*
X420251Y346162D01*
X420147Y346105D01*
X420045Y346045D01*
X419945Y345982D01*
X419847Y345915D01*
X419751Y345846D01*
X419658Y345773D01*
X419567Y345697D01*
X419478Y345619D01*
X419392Y345537D01*
X419309Y345453D01*
X419228Y345367D01*
X419151Y345277D01*
X419076Y345186D01*
X419004Y345092D01*
X418935Y344995D01*
X418870Y344897D01*
X418807Y344796D01*
X418748Y344693D01*
X418692Y344589D01*
X418640Y344483D01*
X418591Y344375D01*
X418546Y344266D01*
X418504Y344155D01*
X418466Y344043D01*
X423863Y341504D02*
X423939Y341579D01*
X424014Y341658D01*
X424085Y341739D01*
X424154Y341823D01*
X424219Y341909D01*
X424281Y341997D01*
X424341Y342087D01*
X424397Y342179D01*
X424450Y342274D01*
X424499Y342370D01*
X424545Y342468D01*
X424588Y342567D01*
X424627Y342668D01*
X424662Y342770D01*
X424694Y342873D01*
X424722Y342977D01*
X424747Y343082D01*
X424768Y343189D01*
X424785Y343295D01*
X424798Y343402D01*
X424807Y343510D01*
X424813Y343618D01*
X424815Y343726D01*
X423863Y341503D02*
X418465Y335153D01*
X424815Y335153D01*
X447548Y271653D02*
X447546Y271553D01*
X447540Y271454D01*
X447530Y271354D01*
X447517Y271256D01*
X447499Y271157D01*
X447478Y271060D01*
X447453Y270964D01*
X447424Y270868D01*
X447391Y270774D01*
X447355Y270681D01*
X447315Y270590D01*
X447271Y270500D01*
X447224Y270412D01*
X447174Y270326D01*
X447120Y270242D01*
X447063Y270160D01*
X447003Y270081D01*
X446939Y270003D01*
X446873Y269929D01*
X446804Y269857D01*
X446732Y269788D01*
X446658Y269722D01*
X446580Y269658D01*
X446501Y269598D01*
X446419Y269541D01*
X446335Y269487D01*
X446249Y269437D01*
X446161Y269390D01*
X446071Y269346D01*
X445980Y269306D01*
X445887Y269270D01*
X445793Y269237D01*
X445697Y269208D01*
X445601Y269183D01*
X445504Y269162D01*
X445405Y269144D01*
X445307Y269131D01*
X445207Y269121D01*
X445108Y269115D01*
X445008Y269113D01*
X444867Y269115D01*
X444726Y269120D01*
X444585Y269130D01*
X444444Y269143D01*
X444304Y269159D01*
X444164Y269180D01*
X444025Y269204D01*
X443886Y269232D01*
X443749Y269263D01*
X443612Y269298D01*
X443476Y269336D01*
X443341Y269378D01*
X443208Y269424D01*
X443075Y269473D01*
X442944Y269526D01*
X442815Y269582D01*
X442686Y269641D01*
X442560Y269704D01*
X442435Y269770D01*
X442312Y269839D01*
X442191Y269912D01*
X442072Y269988D01*
X441954Y270067D01*
X441839Y270148D01*
X441727Y270233D01*
X441616Y270321D01*
X441508Y270412D01*
X441402Y270505D01*
X441299Y270602D01*
X441198Y270701D01*
X441516Y278003D02*
X441518Y278103D01*
X441524Y278202D01*
X441534Y278302D01*
X441547Y278400D01*
X441565Y278499D01*
X441586Y278596D01*
X441611Y278692D01*
X441640Y278788D01*
X441673Y278882D01*
X441709Y278975D01*
X441749Y279066D01*
X441793Y279156D01*
X441840Y279244D01*
X441890Y279330D01*
X441944Y279414D01*
X442001Y279496D01*
X442061Y279575D01*
X442125Y279653D01*
X442191Y279727D01*
X442260Y279799D01*
X442332Y279868D01*
X442406Y279934D01*
X442484Y279998D01*
X442563Y280058D01*
X442645Y280115D01*
X442729Y280169D01*
X442815Y280219D01*
X442903Y280266D01*
X442993Y280310D01*
X443084Y280350D01*
X443177Y280386D01*
X443271Y280419D01*
X443367Y280448D01*
X443463Y280473D01*
X443560Y280494D01*
X443659Y280512D01*
X443757Y280525D01*
X443857Y280535D01*
X443956Y280541D01*
X444056Y280543D01*
X444056Y280544D02*
X444189Y280542D01*
X444322Y280537D01*
X444455Y280527D01*
X444588Y280514D01*
X444720Y280497D01*
X444852Y280477D01*
X444983Y280453D01*
X445113Y280425D01*
X445243Y280394D01*
X445371Y280359D01*
X445499Y280320D01*
X445625Y280278D01*
X445750Y280232D01*
X445874Y280183D01*
X445997Y280131D01*
X446118Y280075D01*
X446237Y280015D01*
X446355Y279953D01*
X446470Y279887D01*
X446584Y279818D01*
X446696Y279745D01*
X446806Y279670D01*
X446914Y279591D01*
X442785Y275780D02*
X442701Y275832D01*
X442618Y275887D01*
X442538Y275946D01*
X442460Y276007D01*
X442385Y276071D01*
X442312Y276139D01*
X442241Y276209D01*
X442174Y276281D01*
X442109Y276356D01*
X442047Y276434D01*
X441988Y276514D01*
X441932Y276596D01*
X441880Y276680D01*
X441831Y276766D01*
X441785Y276854D01*
X441742Y276944D01*
X441703Y277035D01*
X441668Y277128D01*
X441636Y277222D01*
X441608Y277317D01*
X441583Y277413D01*
X441563Y277510D01*
X441545Y277608D01*
X441532Y277706D01*
X441523Y277805D01*
X441517Y277904D01*
X441515Y278003D01*
X446278Y273876D02*
X446362Y273824D01*
X446445Y273769D01*
X446525Y273710D01*
X446603Y273649D01*
X446678Y273585D01*
X446751Y273517D01*
X446822Y273447D01*
X446889Y273375D01*
X446954Y273300D01*
X447016Y273222D01*
X447075Y273142D01*
X447131Y273060D01*
X447183Y272976D01*
X447232Y272890D01*
X447278Y272802D01*
X447321Y272712D01*
X447360Y272621D01*
X447395Y272528D01*
X447427Y272434D01*
X447455Y272339D01*
X447480Y272243D01*
X447500Y272146D01*
X447518Y272048D01*
X447531Y271950D01*
X447540Y271851D01*
X447546Y271752D01*
X447548Y271653D01*
X446278Y273876D02*
X442786Y275781D01*
X451866Y280543D02*
X454406Y269113D01*
X456946Y276733D01*
X459486Y269113D01*
X462026Y280543D01*
X467614Y280543D02*
X467614Y269113D01*
X466344Y269113D02*
X468884Y269113D01*
X468884Y280543D02*
X466344Y280543D01*
X475996Y280543D02*
X475996Y269113D01*
X472821Y280543D02*
X479171Y280543D01*
X485992Y269113D02*
X488532Y269113D01*
X485992Y269113D02*
X485892Y269115D01*
X485793Y269121D01*
X485693Y269131D01*
X485595Y269144D01*
X485496Y269162D01*
X485399Y269183D01*
X485303Y269208D01*
X485207Y269237D01*
X485113Y269270D01*
X485020Y269306D01*
X484929Y269346D01*
X484839Y269390D01*
X484751Y269437D01*
X484665Y269487D01*
X484581Y269541D01*
X484499Y269598D01*
X484420Y269658D01*
X484342Y269722D01*
X484268Y269788D01*
X484196Y269857D01*
X484127Y269929D01*
X484061Y270003D01*
X483997Y270081D01*
X483937Y270160D01*
X483880Y270242D01*
X483826Y270326D01*
X483776Y270412D01*
X483729Y270500D01*
X483685Y270590D01*
X483645Y270681D01*
X483609Y270774D01*
X483576Y270868D01*
X483547Y270964D01*
X483522Y271060D01*
X483501Y271157D01*
X483483Y271256D01*
X483470Y271354D01*
X483460Y271454D01*
X483454Y271553D01*
X483452Y271653D01*
X483452Y278003D01*
X483454Y278103D01*
X483460Y278202D01*
X483470Y278302D01*
X483483Y278400D01*
X483501Y278499D01*
X483522Y278596D01*
X483547Y278692D01*
X483576Y278788D01*
X483609Y278882D01*
X483645Y278975D01*
X483685Y279066D01*
X483729Y279156D01*
X483776Y279244D01*
X483826Y279330D01*
X483880Y279414D01*
X483937Y279496D01*
X483997Y279575D01*
X484061Y279653D01*
X484127Y279727D01*
X484196Y279799D01*
X484268Y279868D01*
X484342Y279934D01*
X484420Y279998D01*
X484499Y280058D01*
X484581Y280115D01*
X484665Y280169D01*
X484751Y280219D01*
X484839Y280266D01*
X484929Y280310D01*
X485020Y280350D01*
X485113Y280386D01*
X485207Y280419D01*
X485303Y280448D01*
X485399Y280473D01*
X485496Y280494D01*
X485595Y280512D01*
X485693Y280525D01*
X485793Y280535D01*
X485892Y280541D01*
X485992Y280543D01*
X488532Y280543D01*
X493395Y280543D02*
X493395Y269113D01*
X493395Y275463D02*
X499745Y275463D01*
X499745Y280543D02*
X499745Y269113D01*
D12*
X662432Y352806D02*
X687832Y352806D01*
X662432Y352806D02*
X662432Y327406D01*
X687832Y327406D01*
X687832Y352806D01*
D15*
X675132Y321056D02*
X675132Y263906D01*
D12*
X662432Y352806D02*
X637032Y352806D01*
X637032Y327406D01*
X662432Y327406D01*
D15*
X649732Y321056D02*
X649732Y263906D01*
D16*
X675132Y324866D03*
X649732Y324866D03*
D17*
X675132Y357886D03*
X649732Y357886D03*
D13*
X628777Y397891D02*
X628777Y409321D01*
X628777Y404241D02*
X635127Y404241D01*
X635127Y409321D02*
X635127Y397891D01*
X640994Y397891D02*
X646074Y397891D01*
X640994Y397891D02*
X640994Y409321D01*
X646074Y409321D01*
X644804Y404241D02*
X640994Y404241D01*
X649859Y397891D02*
X653669Y409321D01*
X657479Y397891D01*
X656526Y400749D02*
X650811Y400749D01*
X662305Y397891D02*
X662305Y409321D01*
X665480Y409321D01*
X665591Y409319D01*
X665701Y409313D01*
X665812Y409304D01*
X665922Y409290D01*
X666031Y409273D01*
X666140Y409252D01*
X666248Y409227D01*
X666355Y409198D01*
X666461Y409166D01*
X666566Y409130D01*
X666669Y409090D01*
X666771Y409047D01*
X666872Y409000D01*
X666971Y408949D01*
X667068Y408896D01*
X667162Y408839D01*
X667255Y408778D01*
X667346Y408715D01*
X667435Y408648D01*
X667521Y408578D01*
X667604Y408505D01*
X667686Y408430D01*
X667764Y408352D01*
X667839Y408270D01*
X667912Y408187D01*
X667982Y408101D01*
X668049Y408012D01*
X668112Y407921D01*
X668173Y407828D01*
X668230Y407734D01*
X668283Y407637D01*
X668334Y407538D01*
X668381Y407437D01*
X668424Y407335D01*
X668464Y407232D01*
X668500Y407127D01*
X668532Y407021D01*
X668561Y406914D01*
X668586Y406806D01*
X668607Y406697D01*
X668624Y406588D01*
X668638Y406478D01*
X668647Y406367D01*
X668653Y406257D01*
X668655Y406146D01*
X668655Y401066D01*
X668653Y400955D01*
X668647Y400845D01*
X668638Y400734D01*
X668624Y400624D01*
X668607Y400515D01*
X668586Y400406D01*
X668561Y400298D01*
X668532Y400191D01*
X668500Y400085D01*
X668464Y399980D01*
X668424Y399877D01*
X668381Y399775D01*
X668334Y399674D01*
X668283Y399575D01*
X668230Y399478D01*
X668173Y399384D01*
X668112Y399291D01*
X668049Y399200D01*
X667982Y399111D01*
X667912Y399025D01*
X667839Y398942D01*
X667764Y398860D01*
X667686Y398782D01*
X667604Y398707D01*
X667521Y398634D01*
X667435Y398564D01*
X667346Y398497D01*
X667255Y398434D01*
X667162Y398373D01*
X667068Y398316D01*
X666971Y398263D01*
X666872Y398212D01*
X666771Y398165D01*
X666669Y398122D01*
X666566Y398082D01*
X666461Y398046D01*
X666355Y398014D01*
X666248Y397985D01*
X666140Y397960D01*
X666031Y397939D01*
X665922Y397922D01*
X665812Y397908D01*
X665701Y397899D01*
X665591Y397893D01*
X665480Y397891D01*
X662305Y397891D01*
X674522Y397891D02*
X679602Y397891D01*
X674522Y397891D02*
X674522Y409321D01*
X679602Y409321D01*
X678332Y404241D02*
X674522Y404241D01*
X684486Y409321D02*
X684486Y397891D01*
X684486Y409321D02*
X687661Y409321D01*
X687772Y409319D01*
X687882Y409313D01*
X687993Y409304D01*
X688103Y409290D01*
X688212Y409273D01*
X688321Y409252D01*
X688429Y409227D01*
X688536Y409198D01*
X688642Y409166D01*
X688747Y409130D01*
X688850Y409090D01*
X688952Y409047D01*
X689053Y409000D01*
X689152Y408949D01*
X689249Y408896D01*
X689343Y408839D01*
X689436Y408778D01*
X689527Y408715D01*
X689616Y408648D01*
X689702Y408578D01*
X689785Y408505D01*
X689867Y408430D01*
X689945Y408352D01*
X690020Y408270D01*
X690093Y408187D01*
X690163Y408101D01*
X690230Y408012D01*
X690293Y407921D01*
X690354Y407828D01*
X690411Y407733D01*
X690464Y407637D01*
X690515Y407538D01*
X690562Y407437D01*
X690605Y407335D01*
X690645Y407232D01*
X690681Y407127D01*
X690713Y407021D01*
X690742Y406914D01*
X690767Y406806D01*
X690788Y406697D01*
X690805Y406588D01*
X690819Y406478D01*
X690828Y406367D01*
X690834Y406257D01*
X690836Y406146D01*
X690834Y406035D01*
X690828Y405925D01*
X690819Y405814D01*
X690805Y405704D01*
X690788Y405595D01*
X690767Y405486D01*
X690742Y405378D01*
X690713Y405271D01*
X690681Y405165D01*
X690645Y405060D01*
X690605Y404957D01*
X690562Y404855D01*
X690515Y404754D01*
X690464Y404655D01*
X690411Y404558D01*
X690354Y404464D01*
X690293Y404371D01*
X690230Y404280D01*
X690163Y404191D01*
X690093Y404105D01*
X690020Y404022D01*
X689945Y403940D01*
X689867Y403862D01*
X689785Y403787D01*
X689702Y403714D01*
X689616Y403644D01*
X689527Y403577D01*
X689436Y403514D01*
X689343Y403453D01*
X689249Y403396D01*
X689152Y403343D01*
X689053Y403292D01*
X688952Y403245D01*
X688850Y403202D01*
X688747Y403162D01*
X688642Y403126D01*
X688536Y403094D01*
X688429Y403065D01*
X688321Y403040D01*
X688212Y403019D01*
X688103Y403002D01*
X687993Y402988D01*
X687882Y402979D01*
X687772Y402973D01*
X687661Y402971D01*
X684486Y402971D01*
X688296Y402971D02*
X690836Y397891D01*
D12*
X304800Y636270D02*
X304800Y659130D01*
X273050Y627380D02*
X270510Y627380D01*
X273050Y627380D02*
X273050Y615950D01*
X270510Y627380D02*
X269240Y628650D01*
X269240Y666750D02*
X270510Y668020D01*
X273050Y668020D01*
X273050Y679450D02*
X274320Y680720D01*
X273050Y679450D02*
X273050Y668020D01*
X273050Y615950D02*
X274320Y614680D01*
X274320Y680720D02*
X292100Y680720D01*
X292100Y614680D02*
X274320Y614680D01*
X273050Y661670D02*
X273050Y668020D01*
X270510Y668020D02*
X270510Y659130D01*
X269240Y657860D02*
X269240Y666750D01*
X269240Y637540D02*
X269240Y628650D01*
X270510Y627380D02*
X270510Y636270D01*
X273050Y633730D02*
X273050Y627380D01*
D13*
X263525Y622935D02*
X252095Y622935D01*
X252095Y626110D01*
X252097Y626221D01*
X252103Y626331D01*
X252112Y626442D01*
X252126Y626552D01*
X252143Y626661D01*
X252164Y626770D01*
X252189Y626878D01*
X252218Y626985D01*
X252250Y627091D01*
X252286Y627196D01*
X252326Y627299D01*
X252369Y627401D01*
X252416Y627502D01*
X252467Y627601D01*
X252520Y627698D01*
X252577Y627792D01*
X252638Y627885D01*
X252701Y627976D01*
X252768Y628065D01*
X252838Y628151D01*
X252911Y628234D01*
X252986Y628316D01*
X253064Y628394D01*
X253146Y628469D01*
X253229Y628542D01*
X253315Y628612D01*
X253404Y628679D01*
X253495Y628742D01*
X253588Y628803D01*
X253683Y628860D01*
X253779Y628913D01*
X253878Y628964D01*
X253979Y629011D01*
X254081Y629054D01*
X254184Y629094D01*
X254289Y629130D01*
X254395Y629162D01*
X254502Y629191D01*
X254610Y629216D01*
X254719Y629237D01*
X254828Y629254D01*
X254938Y629268D01*
X255049Y629277D01*
X255159Y629283D01*
X255270Y629285D01*
X255381Y629283D01*
X255491Y629277D01*
X255602Y629268D01*
X255712Y629254D01*
X255821Y629237D01*
X255930Y629216D01*
X256038Y629191D01*
X256145Y629162D01*
X256251Y629130D01*
X256356Y629094D01*
X256459Y629054D01*
X256561Y629011D01*
X256662Y628964D01*
X256761Y628913D01*
X256858Y628860D01*
X256952Y628803D01*
X257045Y628742D01*
X257136Y628679D01*
X257225Y628612D01*
X257311Y628542D01*
X257394Y628469D01*
X257476Y628394D01*
X257554Y628316D01*
X257629Y628234D01*
X257702Y628151D01*
X257772Y628065D01*
X257839Y627976D01*
X257902Y627885D01*
X257963Y627792D01*
X258020Y627698D01*
X258073Y627601D01*
X258124Y627502D01*
X258171Y627401D01*
X258214Y627299D01*
X258254Y627196D01*
X258290Y627091D01*
X258322Y626985D01*
X258351Y626878D01*
X258376Y626770D01*
X258397Y626661D01*
X258414Y626552D01*
X258428Y626442D01*
X258437Y626331D01*
X258443Y626221D01*
X258445Y626110D01*
X258445Y622935D01*
X260350Y633794D02*
X255270Y633794D01*
X255159Y633796D01*
X255049Y633802D01*
X254938Y633811D01*
X254828Y633825D01*
X254719Y633842D01*
X254610Y633863D01*
X254502Y633888D01*
X254395Y633917D01*
X254289Y633949D01*
X254184Y633985D01*
X254081Y634025D01*
X253979Y634068D01*
X253878Y634115D01*
X253779Y634166D01*
X253683Y634219D01*
X253588Y634276D01*
X253495Y634337D01*
X253404Y634400D01*
X253315Y634467D01*
X253229Y634537D01*
X253146Y634610D01*
X253064Y634685D01*
X252986Y634763D01*
X252911Y634845D01*
X252838Y634928D01*
X252768Y635014D01*
X252701Y635103D01*
X252638Y635194D01*
X252577Y635287D01*
X252520Y635382D01*
X252467Y635478D01*
X252416Y635577D01*
X252369Y635678D01*
X252326Y635780D01*
X252286Y635883D01*
X252250Y635988D01*
X252218Y636094D01*
X252189Y636201D01*
X252164Y636309D01*
X252143Y636418D01*
X252126Y636527D01*
X252112Y636637D01*
X252103Y636748D01*
X252097Y636858D01*
X252095Y636969D01*
X252097Y637080D01*
X252103Y637190D01*
X252112Y637301D01*
X252126Y637411D01*
X252143Y637520D01*
X252164Y637629D01*
X252189Y637737D01*
X252218Y637844D01*
X252250Y637950D01*
X252286Y638055D01*
X252326Y638158D01*
X252369Y638260D01*
X252416Y638361D01*
X252467Y638460D01*
X252520Y638557D01*
X252577Y638651D01*
X252638Y638744D01*
X252701Y638835D01*
X252768Y638924D01*
X252838Y639010D01*
X252911Y639093D01*
X252986Y639175D01*
X253064Y639253D01*
X253146Y639328D01*
X253229Y639401D01*
X253315Y639471D01*
X253404Y639538D01*
X253495Y639601D01*
X253588Y639662D01*
X253683Y639719D01*
X253779Y639772D01*
X253878Y639823D01*
X253979Y639870D01*
X254081Y639913D01*
X254184Y639953D01*
X254289Y639989D01*
X254395Y640021D01*
X254502Y640050D01*
X254610Y640075D01*
X254719Y640096D01*
X254828Y640113D01*
X254938Y640127D01*
X255049Y640136D01*
X255159Y640142D01*
X255270Y640144D01*
X260350Y640144D01*
X260461Y640142D01*
X260571Y640136D01*
X260682Y640127D01*
X260792Y640113D01*
X260901Y640096D01*
X261010Y640075D01*
X261118Y640050D01*
X261225Y640021D01*
X261331Y639989D01*
X261436Y639953D01*
X261539Y639913D01*
X261641Y639870D01*
X261742Y639823D01*
X261841Y639772D01*
X261938Y639719D01*
X262032Y639662D01*
X262125Y639601D01*
X262216Y639538D01*
X262305Y639471D01*
X262391Y639401D01*
X262474Y639328D01*
X262556Y639253D01*
X262634Y639175D01*
X262709Y639093D01*
X262782Y639010D01*
X262852Y638924D01*
X262919Y638835D01*
X262982Y638744D01*
X263043Y638651D01*
X263100Y638556D01*
X263153Y638460D01*
X263204Y638361D01*
X263251Y638260D01*
X263294Y638158D01*
X263334Y638055D01*
X263370Y637950D01*
X263402Y637844D01*
X263431Y637737D01*
X263456Y637629D01*
X263477Y637520D01*
X263494Y637411D01*
X263508Y637301D01*
X263517Y637190D01*
X263523Y637080D01*
X263525Y636969D01*
X263523Y636858D01*
X263517Y636748D01*
X263508Y636637D01*
X263494Y636527D01*
X263477Y636418D01*
X263456Y636309D01*
X263431Y636201D01*
X263402Y636094D01*
X263370Y635988D01*
X263334Y635883D01*
X263294Y635780D01*
X263251Y635678D01*
X263204Y635577D01*
X263153Y635478D01*
X263100Y635382D01*
X263043Y635287D01*
X262982Y635194D01*
X262919Y635103D01*
X262852Y635014D01*
X262782Y634928D01*
X262709Y634845D01*
X262634Y634763D01*
X262556Y634685D01*
X262474Y634610D01*
X262391Y634537D01*
X262305Y634467D01*
X262216Y634400D01*
X262125Y634337D01*
X262032Y634276D01*
X261937Y634219D01*
X261841Y634166D01*
X261742Y634115D01*
X261641Y634068D01*
X261539Y634025D01*
X261436Y633985D01*
X261331Y633949D01*
X261225Y633917D01*
X261118Y633888D01*
X261010Y633863D01*
X260901Y633842D01*
X260792Y633825D01*
X260682Y633811D01*
X260571Y633802D01*
X260461Y633796D01*
X260350Y633794D01*
X263525Y647637D02*
X252095Y647637D01*
X252095Y644462D02*
X252095Y650812D01*
M02*
