<?xml version="1.0" encoding="utf-8" standalone="no"?>
<!DOCTYPE svg PUBLIC "-//W3C//DTD SVG 1.1//EN"
  "http://www.w3.org/Graphics/SVG/1.1/DTD/svg11.dtd">
<!-- Created with matplotlib (https://matplotlib.org/) -->
<svg height="360pt" version="1.1" viewBox="0 0 720 360" width="720pt" xmlns="http://www.w3.org/2000/svg" xmlns:xlink="http://www.w3.org/1999/xlink">
 <metadata>
  <rdf:RDF xmlns:cc="http://creativecommons.org/ns#" xmlns:dc="http://purl.org/dc/elements/1.1/" xmlns:rdf="http://www.w3.org/1999/02/22-rdf-syntax-ns#">
   <cc:Work>
    <dc:type rdf:resource="http://purl.org/dc/dcmitype/StillImage"/>
    <dc:date>2021-03-22T11:57:43.945656</dc:date>
    <dc:format>image/svg+xml</dc:format>
    <dc:creator>
     <cc:Agent>
      <dc:title>Matplotlib v3.3.2, https://matplotlib.org/</dc:title>
     </cc:Agent>
    </dc:creator>
   </cc:Work>
  </rdf:RDF>
 </metadata>
 <defs>
  <style type="text/css">*{stroke-linecap:butt;stroke-linejoin:round;}</style>
 </defs>
 <g id="figure_1">
  <g id="patch_1">
   <path d="M 0 360 
L 720 360 
L 720 0 
L 0 0 
z
" style="fill:none;"/>
  </g>
  <g id="axes_1">
   <g id="patch_2">
    <path d="M 90 315 
L 343.636364 315 
L 343.636364 43.2 
L 90 43.2 
z
" style="fill:#ffffff;"/>
   </g>
   <g id="matplotlib.axis_1">
    <g id="xtick_1">
     <g id="line2d_1">
      <defs>
       <path d="M 0 0 
L 0 3.5 
" id="m6f5cf1f266" style="stroke:#000000;stroke-width:0.8;"/>
      </defs>
      <g>
       <use style="stroke:#000000;stroke-width:0.8;" x="123.184407" xlink:href="#m6f5cf1f266" y="315"/>
      </g>
     </g>
     <g id="text_1">
      <!-- −150 -->
      <g transform="translate(109.450813 329.598437)scale(0.1 -0.1)">
       <defs>
        <path d="M 10.59375 35.5 
L 73.1875 35.5 
L 73.1875 27.203125 
L 10.59375 27.203125 
z
" id="DejaVuSans-8722"/>
        <path d="M 12.40625 8.296875 
L 28.515625 8.296875 
L 28.515625 63.921875 
L 10.984375 60.40625 
L 10.984375 69.390625 
L 28.421875 72.90625 
L 38.28125 72.90625 
L 38.28125 8.296875 
L 54.390625 8.296875 
L 54.390625 0 
L 12.40625 0 
z
" id="DejaVuSans-49"/>
        <path d="M 10.796875 72.90625 
L 49.515625 72.90625 
L 49.515625 64.59375 
L 19.828125 64.59375 
L 19.828125 46.734375 
Q 21.96875 47.46875 24.109375 47.828125 
Q 26.265625 48.1875 28.421875 48.1875 
Q 40.625 48.1875 47.75 41.5 
Q 54.890625 34.8125 54.890625 23.390625 
Q 54.890625 11.625 47.5625 5.09375 
Q 40.234375 -1.421875 26.90625 -1.421875 
Q 22.3125 -1.421875 17.546875 -0.640625 
Q 12.796875 0.140625 7.71875 1.703125 
L 7.71875 11.625 
Q 12.109375 9.234375 16.796875 8.0625 
Q 21.484375 6.890625 26.703125 6.890625 
Q 35.15625 6.890625 40.078125 11.328125 
Q 45.015625 15.765625 45.015625 23.390625 
Q 45.015625 31 40.078125 35.4375 
Q 35.15625 39.890625 26.703125 39.890625 
Q 22.75 39.890625 18.8125 39.015625 
Q 14.890625 38.140625 10.796875 36.28125 
z
" id="DejaVuSans-53"/>
        <path d="M 31.78125 66.40625 
Q 24.171875 66.40625 20.328125 58.90625 
Q 16.5 51.421875 16.5 36.375 
Q 16.5 21.390625 20.328125 13.890625 
Q 24.171875 6.390625 31.78125 6.390625 
Q 39.453125 6.390625 43.28125 13.890625 
Q 47.125 21.390625 47.125 36.375 
Q 47.125 51.421875 43.28125 58.90625 
Q 39.453125 66.40625 31.78125 66.40625 
z
M 31.78125 74.21875 
Q 44.046875 74.21875 50.515625 64.515625 
Q 56.984375 54.828125 56.984375 36.375 
Q 56.984375 17.96875 50.515625 8.265625 
Q 44.046875 -1.421875 31.78125 -1.421875 
Q 19.53125 -1.421875 13.0625 8.265625 
Q 6.59375 17.96875 6.59375 36.375 
Q 6.59375 54.828125 13.0625 64.515625 
Q 19.53125 74.21875 31.78125 74.21875 
z
" id="DejaVuSans-48"/>
       </defs>
       <use xlink:href="#DejaVuSans-8722"/>
       <use x="83.789062" xlink:href="#DejaVuSans-49"/>
       <use x="147.412109" xlink:href="#DejaVuSans-53"/>
       <use x="211.035156" xlink:href="#DejaVuSans-48"/>
      </g>
     </g>
    </g>
    <g id="xtick_2">
     <g id="line2d_2">
      <g>
       <use style="stroke:#000000;stroke-width:0.8;" x="161.935546" xlink:href="#m6f5cf1f266" y="315"/>
      </g>
     </g>
     <g id="text_2">
      <!-- −100 -->
      <g transform="translate(148.201952 329.598437)scale(0.1 -0.1)">
       <use xlink:href="#DejaVuSans-8722"/>
       <use x="83.789062" xlink:href="#DejaVuSans-49"/>
       <use x="147.412109" xlink:href="#DejaVuSans-48"/>
       <use x="211.035156" xlink:href="#DejaVuSans-48"/>
      </g>
     </g>
    </g>
    <g id="xtick_3">
     <g id="line2d_3">
      <g>
       <use style="stroke:#000000;stroke-width:0.8;" x="200.686684" xlink:href="#m6f5cf1f266" y="315"/>
      </g>
     </g>
     <g id="text_3">
      <!-- −50 -->
      <g transform="translate(190.134341 329.598437)scale(0.1 -0.1)">
       <use xlink:href="#DejaVuSans-8722"/>
       <use x="83.789062" xlink:href="#DejaVuSans-53"/>
       <use x="147.412109" xlink:href="#DejaVuSans-48"/>
      </g>
     </g>
    </g>
    <g id="xtick_4">
     <g id="line2d_4">
      <g>
       <use style="stroke:#000000;stroke-width:0.8;" x="239.437823" xlink:href="#m6f5cf1f266" y="315"/>
      </g>
     </g>
     <g id="text_4">
      <!-- 0 -->
      <g transform="translate(236.256573 329.598437)scale(0.1 -0.1)">
       <use xlink:href="#DejaVuSans-48"/>
      </g>
     </g>
    </g>
    <g id="xtick_5">
     <g id="line2d_5">
      <g>
       <use style="stroke:#000000;stroke-width:0.8;" x="278.188962" xlink:href="#m6f5cf1f266" y="315"/>
      </g>
     </g>
     <g id="text_5">
      <!-- 50 -->
      <g transform="translate(271.826462 329.598437)scale(0.1 -0.1)">
       <use xlink:href="#DejaVuSans-53"/>
       <use x="63.623047" xlink:href="#DejaVuSans-48"/>
      </g>
     </g>
    </g>
    <g id="xtick_6">
     <g id="line2d_6">
      <g>
       <use style="stroke:#000000;stroke-width:0.8;" x="316.9401" xlink:href="#m6f5cf1f266" y="315"/>
      </g>
     </g>
     <g id="text_6">
      <!-- 100 -->
      <g transform="translate(307.39635 329.598437)scale(0.1 -0.1)">
       <use xlink:href="#DejaVuSans-49"/>
       <use x="63.623047" xlink:href="#DejaVuSans-48"/>
       <use x="127.246094" xlink:href="#DejaVuSans-48"/>
      </g>
     </g>
    </g>
   </g>
   <g id="matplotlib.axis_2">
    <g id="ytick_1">
     <g id="line2d_7">
      <defs>
       <path d="M 0 0 
L -3.5 0 
" id="mf6afe2498c" style="stroke:#000000;stroke-width:0.8;"/>
      </defs>
      <g>
       <use style="stroke:#000000;stroke-width:0.8;" x="90" xlink:href="#mf6afe2498c" y="282.319544"/>
      </g>
     </g>
     <g id="text_7">
      <!-- −150 -->
      <g transform="translate(55.532812 286.118763)scale(0.1 -0.1)">
       <use xlink:href="#DejaVuSans-8722"/>
       <use x="83.789062" xlink:href="#DejaVuSans-49"/>
       <use x="147.412109" xlink:href="#DejaVuSans-53"/>
       <use x="211.035156" xlink:href="#DejaVuSans-48"/>
      </g>
     </g>
    </g>
    <g id="ytick_2">
     <g id="line2d_8">
      <g>
       <use style="stroke:#000000;stroke-width:0.8;" x="90" xlink:href="#mf6afe2498c" y="245.419064"/>
      </g>
     </g>
     <g id="text_8">
      <!-- −100 -->
      <g transform="translate(55.532812 249.218283)scale(0.1 -0.1)">
       <use xlink:href="#DejaVuSans-8722"/>
       <use x="83.789062" xlink:href="#DejaVuSans-49"/>
       <use x="147.412109" xlink:href="#DejaVuSans-48"/>
       <use x="211.035156" xlink:href="#DejaVuSans-48"/>
      </g>
     </g>
    </g>
    <g id="ytick_3">
     <g id="line2d_9">
      <g>
       <use style="stroke:#000000;stroke-width:0.8;" x="90" xlink:href="#mf6afe2498c" y="208.518583"/>
      </g>
     </g>
     <g id="text_9">
      <!-- −50 -->
      <g transform="translate(61.895313 212.317802)scale(0.1 -0.1)">
       <use xlink:href="#DejaVuSans-8722"/>
       <use x="83.789062" xlink:href="#DejaVuSans-53"/>
       <use x="147.412109" xlink:href="#DejaVuSans-48"/>
      </g>
     </g>
    </g>
    <g id="ytick_4">
     <g id="line2d_10">
      <g>
       <use style="stroke:#000000;stroke-width:0.8;" x="90" xlink:href="#mf6afe2498c" y="171.618103"/>
      </g>
     </g>
     <g id="text_10">
      <!-- 0 -->
      <g transform="translate(76.6375 175.417322)scale(0.1 -0.1)">
       <use xlink:href="#DejaVuSans-48"/>
      </g>
     </g>
    </g>
    <g id="ytick_5">
     <g id="line2d_11">
      <g>
       <use style="stroke:#000000;stroke-width:0.8;" x="90" xlink:href="#mf6afe2498c" y="134.717622"/>
      </g>
     </g>
     <g id="text_11">
      <!-- 50 -->
      <g transform="translate(70.275 138.516841)scale(0.1 -0.1)">
       <use xlink:href="#DejaVuSans-53"/>
       <use x="63.623047" xlink:href="#DejaVuSans-48"/>
      </g>
     </g>
    </g>
    <g id="ytick_6">
     <g id="line2d_12">
      <g>
       <use style="stroke:#000000;stroke-width:0.8;" x="90" xlink:href="#mf6afe2498c" y="97.817142"/>
      </g>
     </g>
     <g id="text_12">
      <!-- 100 -->
      <g transform="translate(63.9125 101.616361)scale(0.1 -0.1)">
       <use xlink:href="#DejaVuSans-49"/>
       <use x="63.623047" xlink:href="#DejaVuSans-48"/>
       <use x="127.246094" xlink:href="#DejaVuSans-48"/>
      </g>
     </g>
    </g>
    <g id="ytick_7">
     <g id="line2d_13">
      <g>
       <use style="stroke:#000000;stroke-width:0.8;" x="90" xlink:href="#mf6afe2498c" y="60.916661"/>
      </g>
     </g>
     <g id="text_13">
      <!-- 150 -->
      <g transform="translate(63.9125 64.71588)scale(0.1 -0.1)">
       <use xlink:href="#DejaVuSans-49"/>
       <use x="63.623047" xlink:href="#DejaVuSans-53"/>
       <use x="127.246094" xlink:href="#DejaVuSans-48"/>
      </g>
     </g>
    </g>
   </g>
   <g id="line2d_14">
    <path clip-path="url(#p55fdae8ff4)" d="M 208.056412 176.832391 
L 218.029597 183.555445 
" style="fill:none;stroke:#0000ff;stroke-linecap:square;stroke-width:2;"/>
   </g>
   <g id="line2d_15">
    <path clip-path="url(#p55fdae8ff4)" d="M 218.029597 183.555445 
L 181.649184 195.620913 
" style="fill:none;stroke:#0000ff;stroke-linecap:square;stroke-width:2;"/>
   </g>
   <g id="line2d_16">
    <path clip-path="url(#p55fdae8ff4)" d="M 181.649184 195.620913 
L 172.983881 191.379887 
" style="fill:none;stroke:#0000ff;stroke-linecap:square;stroke-width:2;"/>
   </g>
   <g id="line2d_17">
    <path clip-path="url(#p55fdae8ff4)" d="M 172.983881 191.379887 
L 138.824246 202.480895 
" style="fill:none;stroke:#0000ff;stroke-linecap:square;stroke-width:2;"/>
   </g>
   <g id="line2d_18">
    <path clip-path="url(#p55fdae8ff4)" d="M 237.904654 188.478881 
L 239.969466 184.483055 
" style="fill:none;stroke:#0000ff;stroke-linecap:square;stroke-width:2;"/>
   </g>
   <g id="line2d_19">
    <path clip-path="url(#p55fdae8ff4)" d="M 239.969466 184.483055 
L 252.209935 213.913192 
" style="fill:none;stroke:#0000ff;stroke-linecap:square;stroke-width:2;"/>
   </g>
   <g id="line2d_20">
    <path clip-path="url(#p55fdae8ff4)" d="M 252.209935 213.913192 
L 238.2029 247.183085 
" style="fill:none;stroke:#0000ff;stroke-linecap:square;stroke-width:2;"/>
   </g>
   <g id="line2d_21">
    <path clip-path="url(#p55fdae8ff4)" d="M 238.2029 247.183085 
L 240.487451 302.645455 
" style="fill:none;stroke:#0000ff;stroke-linecap:square;stroke-width:2;"/>
   </g>
   <g id="line2d_22">
    <path clip-path="url(#p55fdae8ff4)" d="M 252.191647 186.264646 
L 258.984274 186.12248 
" style="fill:none;stroke:#0000ff;stroke-linecap:square;stroke-width:2;"/>
   </g>
   <g id="line2d_23">
    <path clip-path="url(#p55fdae8ff4)" d="M 258.984274 186.12248 
L 279.368582 214.968437 
" style="fill:none;stroke:#0000ff;stroke-linecap:square;stroke-width:2;"/>
   </g>
   <g id="line2d_24">
    <path clip-path="url(#p55fdae8ff4)" d="M 279.368582 214.968437 
L 290.778684 222.943835 
" style="fill:none;stroke:#0000ff;stroke-linecap:square;stroke-width:2;"/>
   </g>
   <g id="line2d_25">
    <path clip-path="url(#p55fdae8ff4)" d="M 290.778684 222.943835 
L 330.198368 265.32135 
" style="fill:none;stroke:#0000ff;stroke-linecap:square;stroke-width:2;"/>
   </g>
   <g id="line2d_26">
    <path clip-path="url(#p55fdae8ff4)" d="M 202.481881 156.752104 
L 209.134628 159.215144 
" style="fill:none;stroke:#0000ff;stroke-linecap:square;stroke-width:2;"/>
   </g>
   <g id="line2d_27">
    <path clip-path="url(#p55fdae8ff4)" d="M 209.134628 159.215144 
L 175.252982 131.465112 
" style="fill:none;stroke:#0000ff;stroke-linecap:square;stroke-width:2;"/>
   </g>
   <g id="line2d_28">
    <path clip-path="url(#p55fdae8ff4)" d="M 175.252982 131.465112 
L 147.517513 134.534302 
" style="fill:none;stroke:#0000ff;stroke-linecap:square;stroke-width:2;"/>
   </g>
   <g id="line2d_29">
    <path clip-path="url(#p55fdae8ff4)" d="M 147.517513 134.534302 
L 101.528926 113.909711 
" style="fill:none;stroke:#0000ff;stroke-linecap:square;stroke-width:2;"/>
   </g>
   <g id="line2d_30">
    <path clip-path="url(#p55fdae8ff4)" d="M 234.906266 158.379425 
L 240.266239 166.403815 
" style="fill:none;stroke:#0000ff;stroke-linecap:square;stroke-width:2;"/>
   </g>
   <g id="line2d_31">
    <path clip-path="url(#p55fdae8ff4)" d="M 240.266239 166.403815 
L 256.751083 122.894434 
" style="fill:none;stroke:#0000ff;stroke-linecap:square;stroke-width:2;"/>
   </g>
   <g id="line2d_32">
    <path clip-path="url(#p55fdae8ff4)" d="M 256.751083 122.894434 
L 238.90618 107.519172 
" style="fill:none;stroke:#0000ff;stroke-linecap:square;stroke-width:2;"/>
   </g>
   <g id="line2d_33">
    <path clip-path="url(#p55fdae8ff4)" d="M 238.90618 107.519172 
L 230.293425 55.554545 
" style="fill:none;stroke:#0000ff;stroke-linecap:square;stroke-width:2;"/>
   </g>
   <g id="line2d_34">
    <path clip-path="url(#p55fdae8ff4)" d="M 252.663277 160.820721 
L 258.890228 164.200345 
" style="fill:none;stroke:#0000ff;stroke-linecap:square;stroke-width:2;"/>
   </g>
   <g id="line2d_35">
    <path clip-path="url(#p55fdae8ff4)" d="M 258.890228 164.200345 
L 271.099644 126.761215 
" style="fill:none;stroke:#0000ff;stroke-linecap:square;stroke-width:2;"/>
   </g>
   <g id="line2d_36">
    <path clip-path="url(#p55fdae8ff4)" d="M 271.099644 126.761215 
L 288.365123 128.677076 
" style="fill:none;stroke:#0000ff;stroke-linecap:square;stroke-width:2;"/>
   </g>
   <g id="line2d_37">
    <path clip-path="url(#p55fdae8ff4)" d="M 288.365123 128.677076 
L 332.107438 91.747267 
" style="fill:none;stroke:#0000ff;stroke-linecap:square;stroke-width:2;"/>
   </g>
   <g id="patch_3">
    <path d="M 90 315 
L 90 43.2 
" style="fill:none;stroke:#000000;stroke-linecap:square;stroke-linejoin:miter;stroke-width:0.8;"/>
   </g>
   <g id="patch_4">
    <path d="M 343.636364 315 
L 343.636364 43.2 
" style="fill:none;stroke:#000000;stroke-linecap:square;stroke-linejoin:miter;stroke-width:0.8;"/>
   </g>
   <g id="patch_5">
    <path d="M 90 315 
L 343.636364 315 
" style="fill:none;stroke:#000000;stroke-linecap:square;stroke-linejoin:miter;stroke-width:0.8;"/>
   </g>
   <g id="patch_6">
    <path d="M 90 43.2 
L 343.636364 43.2 
" style="fill:none;stroke:#000000;stroke-linecap:square;stroke-linejoin:miter;stroke-width:0.8;"/>
   </g>
   <g id="text_14">
    <!-- Target domain pose -->
    <g transform="translate(157.669432 37.2)scale(0.12 -0.12)">
     <defs>
      <path d="M -0.296875 72.90625 
L 61.375 72.90625 
L 61.375 64.59375 
L 35.5 64.59375 
L 35.5 0 
L 25.59375 0 
L 25.59375 64.59375 
L -0.296875 64.59375 
z
" id="DejaVuSans-84"/>
      <path d="M 34.28125 27.484375 
Q 23.390625 27.484375 19.1875 25 
Q 14.984375 22.515625 14.984375 16.5 
Q 14.984375 11.71875 18.140625 8.90625 
Q 21.296875 6.109375 26.703125 6.109375 
Q 34.1875 6.109375 38.703125 11.40625 
Q 43.21875 16.703125 43.21875 25.484375 
L 43.21875 27.484375 
z
M 52.203125 31.203125 
L 52.203125 0 
L 43.21875 0 
L 43.21875 8.296875 
Q 40.140625 3.328125 35.546875 0.953125 
Q 30.953125 -1.421875 24.3125 -1.421875 
Q 15.921875 -1.421875 10.953125 3.296875 
Q 6 8.015625 6 15.921875 
Q 6 25.140625 12.171875 29.828125 
Q 18.359375 34.515625 30.609375 34.515625 
L 43.21875 34.515625 
L 43.21875 35.40625 
Q 43.21875 41.609375 39.140625 45 
Q 35.0625 48.390625 27.6875 48.390625 
Q 23 48.390625 18.546875 47.265625 
Q 14.109375 46.140625 10.015625 43.890625 
L 10.015625 52.203125 
Q 14.9375 54.109375 19.578125 55.046875 
Q 24.21875 56 28.609375 56 
Q 40.484375 56 46.34375 49.84375 
Q 52.203125 43.703125 52.203125 31.203125 
z
" id="DejaVuSans-97"/>
      <path d="M 41.109375 46.296875 
Q 39.59375 47.171875 37.8125 47.578125 
Q 36.03125 48 33.890625 48 
Q 26.265625 48 22.1875 43.046875 
Q 18.109375 38.09375 18.109375 28.8125 
L 18.109375 0 
L 9.078125 0 
L 9.078125 54.6875 
L 18.109375 54.6875 
L 18.109375 46.1875 
Q 20.953125 51.171875 25.484375 53.578125 
Q 30.03125 56 36.53125 56 
Q 37.453125 56 38.578125 55.875 
Q 39.703125 55.765625 41.0625 55.515625 
z
" id="DejaVuSans-114"/>
      <path d="M 45.40625 27.984375 
Q 45.40625 37.75 41.375 43.109375 
Q 37.359375 48.484375 30.078125 48.484375 
Q 22.859375 48.484375 18.828125 43.109375 
Q 14.796875 37.75 14.796875 27.984375 
Q 14.796875 18.265625 18.828125 12.890625 
Q 22.859375 7.515625 30.078125 7.515625 
Q 37.359375 7.515625 41.375 12.890625 
Q 45.40625 18.265625 45.40625 27.984375 
z
M 54.390625 6.78125 
Q 54.390625 -7.171875 48.1875 -13.984375 
Q 42 -20.796875 29.203125 -20.796875 
Q 24.46875 -20.796875 20.265625 -20.09375 
Q 16.0625 -19.390625 12.109375 -17.921875 
L 12.109375 -9.1875 
Q 16.0625 -11.328125 19.921875 -12.34375 
Q 23.78125 -13.375 27.78125 -13.375 
Q 36.625 -13.375 41.015625 -8.765625 
Q 45.40625 -4.15625 45.40625 5.171875 
L 45.40625 9.625 
Q 42.625 4.78125 38.28125 2.390625 
Q 33.9375 0 27.875 0 
Q 17.828125 0 11.671875 7.65625 
Q 5.515625 15.328125 5.515625 27.984375 
Q 5.515625 40.671875 11.671875 48.328125 
Q 17.828125 56 27.875 56 
Q 33.9375 56 38.28125 53.609375 
Q 42.625 51.21875 45.40625 46.390625 
L 45.40625 54.6875 
L 54.390625 54.6875 
z
" id="DejaVuSans-103"/>
      <path d="M 56.203125 29.59375 
L 56.203125 25.203125 
L 14.890625 25.203125 
Q 15.484375 15.921875 20.484375 11.0625 
Q 25.484375 6.203125 34.421875 6.203125 
Q 39.59375 6.203125 44.453125 7.46875 
Q 49.3125 8.734375 54.109375 11.28125 
L 54.109375 2.78125 
Q 49.265625 0.734375 44.1875 -0.34375 
Q 39.109375 -1.421875 33.890625 -1.421875 
Q 20.796875 -1.421875 13.15625 6.1875 
Q 5.515625 13.8125 5.515625 26.8125 
Q 5.515625 40.234375 12.765625 48.109375 
Q 20.015625 56 32.328125 56 
Q 43.359375 56 49.78125 48.890625 
Q 56.203125 41.796875 56.203125 29.59375 
z
M 47.21875 32.234375 
Q 47.125 39.59375 43.09375 43.984375 
Q 39.0625 48.390625 32.421875 48.390625 
Q 24.90625 48.390625 20.390625 44.140625 
Q 15.875 39.890625 15.1875 32.171875 
z
" id="DejaVuSans-101"/>
      <path d="M 18.3125 70.21875 
L 18.3125 54.6875 
L 36.8125 54.6875 
L 36.8125 47.703125 
L 18.3125 47.703125 
L 18.3125 18.015625 
Q 18.3125 11.328125 20.140625 9.421875 
Q 21.96875 7.515625 27.59375 7.515625 
L 36.8125 7.515625 
L 36.8125 0 
L 27.59375 0 
Q 17.1875 0 13.234375 3.875 
Q 9.28125 7.765625 9.28125 18.015625 
L 9.28125 47.703125 
L 2.6875 47.703125 
L 2.6875 54.6875 
L 9.28125 54.6875 
L 9.28125 70.21875 
z
" id="DejaVuSans-116"/>
      <path id="DejaVuSans-32"/>
      <path d="M 45.40625 46.390625 
L 45.40625 75.984375 
L 54.390625 75.984375 
L 54.390625 0 
L 45.40625 0 
L 45.40625 8.203125 
Q 42.578125 3.328125 38.25 0.953125 
Q 33.9375 -1.421875 27.875 -1.421875 
Q 17.96875 -1.421875 11.734375 6.484375 
Q 5.515625 14.40625 5.515625 27.296875 
Q 5.515625 40.1875 11.734375 48.09375 
Q 17.96875 56 27.875 56 
Q 33.9375 56 38.25 53.625 
Q 42.578125 51.265625 45.40625 46.390625 
z
M 14.796875 27.296875 
Q 14.796875 17.390625 18.875 11.75 
Q 22.953125 6.109375 30.078125 6.109375 
Q 37.203125 6.109375 41.296875 11.75 
Q 45.40625 17.390625 45.40625 27.296875 
Q 45.40625 37.203125 41.296875 42.84375 
Q 37.203125 48.484375 30.078125 48.484375 
Q 22.953125 48.484375 18.875 42.84375 
Q 14.796875 37.203125 14.796875 27.296875 
z
" id="DejaVuSans-100"/>
      <path d="M 30.609375 48.390625 
Q 23.390625 48.390625 19.1875 42.75 
Q 14.984375 37.109375 14.984375 27.296875 
Q 14.984375 17.484375 19.15625 11.84375 
Q 23.34375 6.203125 30.609375 6.203125 
Q 37.796875 6.203125 41.984375 11.859375 
Q 46.1875 17.53125 46.1875 27.296875 
Q 46.1875 37.015625 41.984375 42.703125 
Q 37.796875 48.390625 30.609375 48.390625 
z
M 30.609375 56 
Q 42.328125 56 49.015625 48.375 
Q 55.71875 40.765625 55.71875 27.296875 
Q 55.71875 13.875 49.015625 6.21875 
Q 42.328125 -1.421875 30.609375 -1.421875 
Q 18.84375 -1.421875 12.171875 6.21875 
Q 5.515625 13.875 5.515625 27.296875 
Q 5.515625 40.765625 12.171875 48.375 
Q 18.84375 56 30.609375 56 
z
" id="DejaVuSans-111"/>
      <path d="M 52 44.1875 
Q 55.375 50.25 60.0625 53.125 
Q 64.75 56 71.09375 56 
Q 79.640625 56 84.28125 50.015625 
Q 88.921875 44.046875 88.921875 33.015625 
L 88.921875 0 
L 79.890625 0 
L 79.890625 32.71875 
Q 79.890625 40.578125 77.09375 44.375 
Q 74.3125 48.1875 68.609375 48.1875 
Q 61.625 48.1875 57.5625 43.546875 
Q 53.515625 38.921875 53.515625 30.90625 
L 53.515625 0 
L 44.484375 0 
L 44.484375 32.71875 
Q 44.484375 40.625 41.703125 44.40625 
Q 38.921875 48.1875 33.109375 48.1875 
Q 26.21875 48.1875 22.15625 43.53125 
Q 18.109375 38.875 18.109375 30.90625 
L 18.109375 0 
L 9.078125 0 
L 9.078125 54.6875 
L 18.109375 54.6875 
L 18.109375 46.1875 
Q 21.1875 51.21875 25.484375 53.609375 
Q 29.78125 56 35.6875 56 
Q 41.65625 56 45.828125 52.96875 
Q 50 49.953125 52 44.1875 
z
" id="DejaVuSans-109"/>
      <path d="M 9.421875 54.6875 
L 18.40625 54.6875 
L 18.40625 0 
L 9.421875 0 
z
M 9.421875 75.984375 
L 18.40625 75.984375 
L 18.40625 64.59375 
L 9.421875 64.59375 
z
" id="DejaVuSans-105"/>
      <path d="M 54.890625 33.015625 
L 54.890625 0 
L 45.90625 0 
L 45.90625 32.71875 
Q 45.90625 40.484375 42.875 44.328125 
Q 39.84375 48.1875 33.796875 48.1875 
Q 26.515625 48.1875 22.3125 43.546875 
Q 18.109375 38.921875 18.109375 30.90625 
L 18.109375 0 
L 9.078125 0 
L 9.078125 54.6875 
L 18.109375 54.6875 
L 18.109375 46.1875 
Q 21.34375 51.125 25.703125 53.5625 
Q 30.078125 56 35.796875 56 
Q 45.21875 56 50.046875 50.171875 
Q 54.890625 44.34375 54.890625 33.015625 
z
" id="DejaVuSans-110"/>
      <path d="M 18.109375 8.203125 
L 18.109375 -20.796875 
L 9.078125 -20.796875 
L 9.078125 54.6875 
L 18.109375 54.6875 
L 18.109375 46.390625 
Q 20.953125 51.265625 25.265625 53.625 
Q 29.59375 56 35.59375 56 
Q 45.5625 56 51.78125 48.09375 
Q 58.015625 40.1875 58.015625 27.296875 
Q 58.015625 14.40625 51.78125 6.484375 
Q 45.5625 -1.421875 35.59375 -1.421875 
Q 29.59375 -1.421875 25.265625 0.953125 
Q 20.953125 3.328125 18.109375 8.203125 
z
M 48.6875 27.296875 
Q 48.6875 37.203125 44.609375 42.84375 
Q 40.53125 48.484375 33.40625 48.484375 
Q 26.265625 48.484375 22.1875 42.84375 
Q 18.109375 37.203125 18.109375 27.296875 
Q 18.109375 17.390625 22.1875 11.75 
Q 26.265625 6.109375 33.40625 6.109375 
Q 40.53125 6.109375 44.609375 11.75 
Q 48.6875 17.390625 48.6875 27.296875 
z
" id="DejaVuSans-112"/>
      <path d="M 44.28125 53.078125 
L 44.28125 44.578125 
Q 40.484375 46.53125 36.375 47.5 
Q 32.28125 48.484375 27.875 48.484375 
Q 21.1875 48.484375 17.84375 46.4375 
Q 14.5 44.390625 14.5 40.28125 
Q 14.5 37.15625 16.890625 35.375 
Q 19.28125 33.59375 26.515625 31.984375 
L 29.59375 31.296875 
Q 39.15625 29.25 43.1875 25.515625 
Q 47.21875 21.78125 47.21875 15.09375 
Q 47.21875 7.46875 41.1875 3.015625 
Q 35.15625 -1.421875 24.609375 -1.421875 
Q 20.21875 -1.421875 15.453125 -0.5625 
Q 10.6875 0.296875 5.421875 2 
L 5.421875 11.28125 
Q 10.40625 8.6875 15.234375 7.390625 
Q 20.0625 6.109375 24.8125 6.109375 
Q 31.15625 6.109375 34.5625 8.28125 
Q 37.984375 10.453125 37.984375 14.40625 
Q 37.984375 18.0625 35.515625 20.015625 
Q 33.0625 21.96875 24.703125 23.78125 
L 21.578125 24.515625 
Q 13.234375 26.265625 9.515625 29.90625 
Q 5.8125 33.546875 5.8125 39.890625 
Q 5.8125 47.609375 11.28125 51.796875 
Q 16.75 56 26.8125 56 
Q 31.78125 56 36.171875 55.265625 
Q 40.578125 54.546875 44.28125 53.078125 
z
" id="DejaVuSans-115"/>
     </defs>
     <use xlink:href="#DejaVuSans-84"/>
     <use x="44.583984" xlink:href="#DejaVuSans-97"/>
     <use x="105.863281" xlink:href="#DejaVuSans-114"/>
     <use x="145.226562" xlink:href="#DejaVuSans-103"/>
     <use x="208.703125" xlink:href="#DejaVuSans-101"/>
     <use x="270.226562" xlink:href="#DejaVuSans-116"/>
     <use x="309.435547" xlink:href="#DejaVuSans-32"/>
     <use x="341.222656" xlink:href="#DejaVuSans-100"/>
     <use x="404.699219" xlink:href="#DejaVuSans-111"/>
     <use x="465.880859" xlink:href="#DejaVuSans-109"/>
     <use x="563.292969" xlink:href="#DejaVuSans-97"/>
     <use x="624.572266" xlink:href="#DejaVuSans-105"/>
     <use x="652.355469" xlink:href="#DejaVuSans-110"/>
     <use x="715.734375" xlink:href="#DejaVuSans-32"/>
     <use x="747.521484" xlink:href="#DejaVuSans-112"/>
     <use x="810.998047" xlink:href="#DejaVuSans-111"/>
     <use x="872.179688" xlink:href="#DejaVuSans-115"/>
     <use x="924.279297" xlink:href="#DejaVuSans-101"/>
    </g>
   </g>
  </g>
  <g id="axes_2">
   <g id="patch_7">
    <path d="M 394.363636 315 
L 648 315 
L 648 43.2 
L 394.363636 43.2 
z
" style="fill:#ffffff;"/>
   </g>
   <g id="matplotlib.axis_3">
    <g id="xtick_7">
     <g id="line2d_38">
      <g>
       <use style="stroke:#000000;stroke-width:0.8;" x="424.679733" xlink:href="#m6f5cf1f266" y="315"/>
      </g>
     </g>
     <g id="text_15">
      <!-- −300 -->
      <g transform="translate(410.946139 329.598437)scale(0.1 -0.1)">
       <defs>
        <path d="M 40.578125 39.3125 
Q 47.65625 37.796875 51.625 33 
Q 55.609375 28.21875 55.609375 21.1875 
Q 55.609375 10.40625 48.1875 4.484375 
Q 40.765625 -1.421875 27.09375 -1.421875 
Q 22.515625 -1.421875 17.65625 -0.515625 
Q 12.796875 0.390625 7.625 2.203125 
L 7.625 11.71875 
Q 11.71875 9.328125 16.59375 8.109375 
Q 21.484375 6.890625 26.8125 6.890625 
Q 36.078125 6.890625 40.9375 10.546875 
Q 45.796875 14.203125 45.796875 21.1875 
Q 45.796875 27.640625 41.28125 31.265625 
Q 36.765625 34.90625 28.71875 34.90625 
L 20.21875 34.90625 
L 20.21875 43.015625 
L 29.109375 43.015625 
Q 36.375 43.015625 40.234375 45.921875 
Q 44.09375 48.828125 44.09375 54.296875 
Q 44.09375 59.90625 40.109375 62.90625 
Q 36.140625 65.921875 28.71875 65.921875 
Q 24.65625 65.921875 20.015625 65.03125 
Q 15.375 64.15625 9.8125 62.3125 
L 9.8125 71.09375 
Q 15.4375 72.65625 20.34375 73.4375 
Q 25.25 74.21875 29.59375 74.21875 
Q 40.828125 74.21875 47.359375 69.109375 
Q 53.90625 64.015625 53.90625 55.328125 
Q 53.90625 49.265625 50.4375 45.09375 
Q 46.96875 40.921875 40.578125 39.3125 
z
" id="DejaVuSans-51"/>
       </defs>
       <use xlink:href="#DejaVuSans-8722"/>
       <use x="83.789062" xlink:href="#DejaVuSans-51"/>
       <use x="147.412109" xlink:href="#DejaVuSans-48"/>
       <use x="211.035156" xlink:href="#DejaVuSans-48"/>
      </g>
     </g>
    </g>
    <g id="xtick_8">
     <g id="line2d_39">
      <g>
       <use style="stroke:#000000;stroke-width:0.8;" x="461.886267" xlink:href="#m6f5cf1f266" y="315"/>
      </g>
     </g>
     <g id="text_16">
      <!-- −200 -->
      <g transform="translate(448.152673 329.598437)scale(0.1 -0.1)">
       <defs>
        <path d="M 19.1875 8.296875 
L 53.609375 8.296875 
L 53.609375 0 
L 7.328125 0 
L 7.328125 8.296875 
Q 12.9375 14.109375 22.625 23.890625 
Q 32.328125 33.6875 34.8125 36.53125 
Q 39.546875 41.84375 41.421875 45.53125 
Q 43.3125 49.21875 43.3125 52.78125 
Q 43.3125 58.59375 39.234375 62.25 
Q 35.15625 65.921875 28.609375 65.921875 
Q 23.96875 65.921875 18.8125 64.3125 
Q 13.671875 62.703125 7.8125 59.421875 
L 7.8125 69.390625 
Q 13.765625 71.78125 18.9375 73 
Q 24.125 74.21875 28.421875 74.21875 
Q 39.75 74.21875 46.484375 68.546875 
Q 53.21875 62.890625 53.21875 53.421875 
Q 53.21875 48.921875 51.53125 44.890625 
Q 49.859375 40.875 45.40625 35.40625 
Q 44.1875 33.984375 37.640625 27.21875 
Q 31.109375 20.453125 19.1875 8.296875 
z
" id="DejaVuSans-50"/>
       </defs>
       <use xlink:href="#DejaVuSans-8722"/>
       <use x="83.789062" xlink:href="#DejaVuSans-50"/>
       <use x="147.412109" xlink:href="#DejaVuSans-48"/>
       <use x="211.035156" xlink:href="#DejaVuSans-48"/>
      </g>
     </g>
    </g>
    <g id="xtick_9">
     <g id="line2d_40">
      <g>
       <use style="stroke:#000000;stroke-width:0.8;" x="499.0928" xlink:href="#m6f5cf1f266" y="315"/>
      </g>
     </g>
     <g id="text_17">
      <!-- −100 -->
      <g transform="translate(485.359206 329.598437)scale(0.1 -0.1)">
       <use xlink:href="#DejaVuSans-8722"/>
       <use x="83.789062" xlink:href="#DejaVuSans-49"/>
       <use x="147.412109" xlink:href="#DejaVuSans-48"/>
       <use x="211.035156" xlink:href="#DejaVuSans-48"/>
      </g>
     </g>
    </g>
    <g id="xtick_10">
     <g id="line2d_41">
      <g>
       <use style="stroke:#000000;stroke-width:0.8;" x="536.299334" xlink:href="#m6f5cf1f266" y="315"/>
      </g>
     </g>
     <g id="text_18">
      <!-- 0 -->
      <g transform="translate(533.118084 329.598437)scale(0.1 -0.1)">
       <use xlink:href="#DejaVuSans-48"/>
      </g>
     </g>
    </g>
    <g id="xtick_11">
     <g id="line2d_42">
      <g>
       <use style="stroke:#000000;stroke-width:0.8;" x="573.505867" xlink:href="#m6f5cf1f266" y="315"/>
      </g>
     </g>
     <g id="text_19">
      <!-- 100 -->
      <g transform="translate(563.962117 329.598437)scale(0.1 -0.1)">
       <use xlink:href="#DejaVuSans-49"/>
       <use x="63.623047" xlink:href="#DejaVuSans-48"/>
       <use x="127.246094" xlink:href="#DejaVuSans-48"/>
      </g>
     </g>
    </g>
    <g id="xtick_12">
     <g id="line2d_43">
      <g>
       <use style="stroke:#000000;stroke-width:0.8;" x="610.712401" xlink:href="#m6f5cf1f266" y="315"/>
      </g>
     </g>
     <g id="text_20">
      <!-- 200 -->
      <g transform="translate(601.168651 329.598437)scale(0.1 -0.1)">
       <use xlink:href="#DejaVuSans-50"/>
       <use x="63.623047" xlink:href="#DejaVuSans-48"/>
       <use x="127.246094" xlink:href="#DejaVuSans-48"/>
      </g>
     </g>
    </g>
    <g id="xtick_13">
     <g id="line2d_44">
      <g>
       <use style="stroke:#000000;stroke-width:0.8;" x="647.918934" xlink:href="#m6f5cf1f266" y="315"/>
      </g>
     </g>
     <g id="text_21">
      <!-- 300 -->
      <g transform="translate(638.375184 329.598437)scale(0.1 -0.1)">
       <use xlink:href="#DejaVuSans-51"/>
       <use x="63.623047" xlink:href="#DejaVuSans-48"/>
       <use x="127.246094" xlink:href="#DejaVuSans-48"/>
      </g>
     </g>
    </g>
   </g>
   <g id="matplotlib.axis_4">
    <g id="ytick_8">
     <g id="line2d_45">
      <g>
       <use style="stroke:#000000;stroke-width:0.8;" x="394.363636" xlink:href="#mf6afe2498c" y="297.568953"/>
      </g>
     </g>
     <g id="text_22">
      <!-- −400 -->
      <g transform="translate(359.896449 301.368172)scale(0.1 -0.1)">
       <defs>
        <path d="M 37.796875 64.3125 
L 12.890625 25.390625 
L 37.796875 25.390625 
z
M 35.203125 72.90625 
L 47.609375 72.90625 
L 47.609375 25.390625 
L 58.015625 25.390625 
L 58.015625 17.1875 
L 47.609375 17.1875 
L 47.609375 0 
L 37.796875 0 
L 37.796875 17.1875 
L 4.890625 17.1875 
L 4.890625 26.703125 
z
" id="DejaVuSans-52"/>
       </defs>
       <use xlink:href="#DejaVuSans-8722"/>
       <use x="83.789062" xlink:href="#DejaVuSans-52"/>
       <use x="147.412109" xlink:href="#DejaVuSans-48"/>
       <use x="211.035156" xlink:href="#DejaVuSans-48"/>
      </g>
     </g>
    </g>
    <g id="ytick_9">
     <g id="line2d_46">
      <g>
       <use style="stroke:#000000;stroke-width:0.8;" x="394.363636" xlink:href="#mf6afe2498c" y="238.365526"/>
      </g>
     </g>
     <g id="text_23">
      <!-- −200 -->
      <g transform="translate(359.896449 242.164745)scale(0.1 -0.1)">
       <use xlink:href="#DejaVuSans-8722"/>
       <use x="83.789062" xlink:href="#DejaVuSans-50"/>
       <use x="147.412109" xlink:href="#DejaVuSans-48"/>
       <use x="211.035156" xlink:href="#DejaVuSans-48"/>
      </g>
     </g>
    </g>
    <g id="ytick_10">
     <g id="line2d_47">
      <g>
       <use style="stroke:#000000;stroke-width:0.8;" x="394.363636" xlink:href="#mf6afe2498c" y="179.162099"/>
      </g>
     </g>
     <g id="text_24">
      <!-- 0 -->
      <g transform="translate(381.001136 182.961317)scale(0.1 -0.1)">
       <use xlink:href="#DejaVuSans-48"/>
      </g>
     </g>
    </g>
    <g id="ytick_11">
     <g id="line2d_48">
      <g>
       <use style="stroke:#000000;stroke-width:0.8;" x="394.363636" xlink:href="#mf6afe2498c" y="119.958671"/>
      </g>
     </g>
     <g id="text_25">
      <!-- 200 -->
      <g transform="translate(368.276136 123.75789)scale(0.1 -0.1)">
       <use xlink:href="#DejaVuSans-50"/>
       <use x="63.623047" xlink:href="#DejaVuSans-48"/>
       <use x="127.246094" xlink:href="#DejaVuSans-48"/>
      </g>
     </g>
    </g>
    <g id="ytick_12">
     <g id="line2d_49">
      <g>
       <use style="stroke:#000000;stroke-width:0.8;" x="394.363636" xlink:href="#mf6afe2498c" y="60.755244"/>
      </g>
     </g>
     <g id="text_26">
      <!-- 400 -->
      <g transform="translate(368.276136 64.554463)scale(0.1 -0.1)">
       <use xlink:href="#DejaVuSans-52"/>
       <use x="63.623047" xlink:href="#DejaVuSans-48"/>
       <use x="127.246094" xlink:href="#DejaVuSans-48"/>
      </g>
     </g>
    </g>
   </g>
   <g id="line2d_50">
    <path clip-path="url(#p5c538fb767)" d="M 567.206957 190.990277 
L 559.778071 183.397093 
" style="fill:none;stroke:#ba1e31;stroke-linecap:square;stroke-width:2;"/>
   </g>
   <g id="line2d_51">
    <path clip-path="url(#p5c538fb767)" d="M 559.778071 183.397093 
L 599.27219 202.693786 
" style="fill:none;stroke:#ba1e31;stroke-linecap:square;stroke-width:2;"/>
   </g>
   <g id="line2d_52">
    <path clip-path="url(#p5c538fb767)" d="M 599.27219 202.693786 
L 599.405516 211.093615 
" style="fill:none;stroke:#ba1e31;stroke-linecap:square;stroke-width:2;"/>
   </g>
   <g id="line2d_53">
    <path clip-path="url(#p5c538fb767)" d="M 599.405516 211.093615 
L 618.703594 219.427771 
" style="fill:none;stroke:#ba1e31;stroke-linecap:square;stroke-width:2;"/>
   </g>
   <g id="line2d_54">
    <path clip-path="url(#p5c538fb767)" d="M 542.555295 170.339911 
L 540.072055 170.22162 
" style="fill:none;stroke:#c9564f;stroke-linecap:square;stroke-width:2;"/>
   </g>
   <g id="line2d_55">
    <path clip-path="url(#p5c538fb767)" d="M 540.072055 170.22162 
L 579.803209 140.2018 
" style="fill:none;stroke:#c9564f;stroke-linecap:square;stroke-width:2;"/>
   </g>
   <g id="line2d_56">
    <path clip-path="url(#p5c538fb767)" d="M 579.803209 140.2018 
L 596.19931 134.092935 
" style="fill:none;stroke:#c9564f;stroke-linecap:square;stroke-width:2;"/>
   </g>
   <g id="line2d_57">
    <path clip-path="url(#p5c538fb767)" d="M 596.19931 134.092935 
L 636.471074 113.340239 
" style="fill:none;stroke:#c9564f;stroke-linecap:square;stroke-width:2;"/>
   </g>
   <g id="line2d_58">
    <path clip-path="url(#p5c538fb767)" d="M 534.243887 162.378603 
L 533.498592 157.33016 
" style="fill:none;stroke:#d58579;stroke-linecap:square;stroke-width:2;"/>
   </g>
   <g id="line2d_59">
    <path clip-path="url(#p5c538fb767)" d="M 533.498592 157.33016 
L 547.610961 117.154623 
" style="fill:none;stroke:#d58579;stroke-linecap:square;stroke-width:2;"/>
   </g>
   <g id="line2d_60">
    <path clip-path="url(#p5c538fb767)" d="M 547.610961 117.154623 
L 538.354781 99.160949 
" style="fill:none;stroke:#d58579;stroke-linecap:square;stroke-width:2;"/>
   </g>
   <g id="line2d_61">
    <path clip-path="url(#p5c538fb767)" d="M 538.354781 99.160949 
L 544.351889 55.554545 
" style="fill:none;stroke:#d58579;stroke-linecap:square;stroke-width:2;"/>
   </g>
   <g id="line2d_62">
    <path clip-path="url(#p5c538fb767)" d="M 530.826383 210.208718 
L 530.973831 214.025205 
" style="fill:none;stroke:#0f7399;stroke-linecap:square;stroke-width:2;"/>
   </g>
   <g id="line2d_63">
    <path clip-path="url(#p5c538fb767)" d="M 530.973831 214.025205 
L 531.846522 253.053288 
" style="fill:none;stroke:#0f7399;stroke-linecap:square;stroke-width:2;"/>
   </g>
   <g id="line2d_64">
    <path clip-path="url(#p5c538fb767)" d="M 531.846522 253.053288 
L 546.604419 276.73428 
" style="fill:none;stroke:#0f7399;stroke-linecap:square;stroke-width:2;"/>
   </g>
   <g id="line2d_65">
    <path clip-path="url(#p5c538fb767)" d="M 546.604419 276.73428 
L 564.063585 302.645455 
" style="fill:none;stroke:#0f7399;stroke-linecap:square;stroke-width:2;"/>
   </g>
   <g id="line2d_66">
    <path clip-path="url(#p5c538fb767)" d="M 521.695159 183.468674 
L 520.794218 183.627832 
" style="fill:none;stroke:#1a8daf;stroke-linecap:square;stroke-width:2;"/>
   </g>
   <g id="line2d_67">
    <path clip-path="url(#p5c538fb767)" d="M 520.794218 183.627832 
L 470.628563 203.468848 
" style="fill:none;stroke:#1a8daf;stroke-linecap:square;stroke-width:2;"/>
   </g>
   <g id="line2d_68">
    <path clip-path="url(#p5c538fb767)" d="M 470.628563 203.468848 
L 470.450343 217.240647 
" style="fill:none;stroke:#1a8daf;stroke-linecap:square;stroke-width:2;"/>
   </g>
   <g id="line2d_69">
    <path clip-path="url(#p5c538fb767)" d="M 470.450343 217.240647 
L 445.753802 242.893911 
" style="fill:none;stroke:#1a8daf;stroke-linecap:square;stroke-width:2;"/>
   </g>
   <g id="line2d_70">
    <path clip-path="url(#p5c538fb767)" d="M 511.325738 174.927104 
L 507.615464 170.508068 
" style="fill:none;stroke:#75becb;stroke-linecap:square;stroke-width:2;"/>
   </g>
   <g id="line2d_71">
    <path clip-path="url(#p5c538fb767)" d="M 507.615464 170.508068 
L 463.983939 171.944379 
" style="fill:none;stroke:#75becb;stroke-linecap:square;stroke-width:2;"/>
   </g>
   <g id="line2d_72">
    <path clip-path="url(#p5c538fb767)" d="M 463.983939 171.944379 
L 456.951146 162.568148 
" style="fill:none;stroke:#75becb;stroke-linecap:square;stroke-width:2;"/>
   </g>
   <g id="line2d_73">
    <path clip-path="url(#p5c538fb767)" d="M 456.951146 162.568148 
L 416.440468 157.14719 
" style="fill:none;stroke:#75becb;stroke-linecap:square;stroke-width:2;"/>
   </g>
   <g id="line2d_74">
    <path clip-path="url(#p5c538fb767)" d="M 565.086707 188.483211 
L 554.981616 185.142482 
" style="fill:none;stroke:#ba1e31;stroke-linecap:square;stroke-width:2;"/>
   </g>
   <g id="line2d_75">
    <path clip-path="url(#p5c538fb767)" d="M 554.981616 185.142482 
L 596.206144 202.664776 
" style="fill:none;stroke:#ba1e31;stroke-linecap:square;stroke-width:2;"/>
   </g>
   <g id="line2d_76">
    <path clip-path="url(#p5c538fb767)" d="M 596.206144 202.664776 
L 597.764254 213.350539 
" style="fill:none;stroke:#ba1e31;stroke-linecap:square;stroke-width:2;"/>
   </g>
   <g id="line2d_77">
    <path clip-path="url(#p5c538fb767)" d="M 597.764254 213.350539 
L 616.046715 224.196991 
" style="fill:none;stroke:#ba1e31;stroke-linecap:square;stroke-width:2;"/>
   </g>
   <g id="line2d_78">
    <path clip-path="url(#p5c538fb767)" d="M 539.542449 170.307833 
L 537.872081 170.915147 
" style="fill:none;stroke:#c9564f;stroke-linecap:square;stroke-width:2;"/>
   </g>
   <g id="line2d_79">
    <path clip-path="url(#p5c538fb767)" d="M 537.872081 170.915147 
L 576.777019 140.246883 
" style="fill:none;stroke:#c9564f;stroke-linecap:square;stroke-width:2;"/>
   </g>
   <g id="line2d_80">
    <path clip-path="url(#p5c538fb767)" d="M 576.777019 140.246883 
L 596.965086 136.149386 
" style="fill:none;stroke:#c9564f;stroke-linecap:square;stroke-width:2;"/>
   </g>
   <g id="line2d_81">
    <path clip-path="url(#p5c538fb767)" d="M 596.965086 136.149386 
L 636.38827 117.940585 
" style="fill:none;stroke:#c9564f;stroke-linecap:square;stroke-width:2;"/>
   </g>
   <g id="line2d_82">
    <path clip-path="url(#p5c538fb767)" d="M 531.260472 162.377239 
L 529.629861 159.764796 
" style="fill:none;stroke:#d58579;stroke-linecap:square;stroke-width:2;"/>
   </g>
   <g id="line2d_83">
    <path clip-path="url(#p5c538fb767)" d="M 529.629861 159.764796 
L 546.130158 119.585025 
" style="fill:none;stroke:#d58579;stroke-linecap:square;stroke-width:2;"/>
   </g>
   <g id="line2d_84">
    <path clip-path="url(#p5c538fb767)" d="M 546.130158 119.585025 
L 538.372492 103.853232 
" style="fill:none;stroke:#d58579;stroke-linecap:square;stroke-width:2;"/>
   </g>
   <g id="line2d_85">
    <path clip-path="url(#p5c538fb767)" d="M 538.372492 103.853232 
L 548.582104 61.298072 
" style="fill:none;stroke:#d58579;stroke-linecap:square;stroke-width:2;"/>
   </g>
   <g id="line2d_86">
    <path clip-path="url(#p5c538fb767)" d="M 530.381633 209.284224 
L 526.99481 207.845361 
" style="fill:none;stroke:#0f7399;stroke-linecap:square;stroke-width:2;"/>
   </g>
   <g id="line2d_87">
    <path clip-path="url(#p5c538fb767)" d="M 526.99481 207.845361 
L 534.726586 247.093108 
" style="fill:none;stroke:#0f7399;stroke-linecap:square;stroke-width:2;"/>
   </g>
   <g id="line2d_88">
    <path clip-path="url(#p5c538fb767)" d="M 534.726586 247.093108 
L 545.266815 259.785175 
" style="fill:none;stroke:#0f7399;stroke-linecap:square;stroke-width:2;"/>
   </g>
   <g id="line2d_89">
    <path clip-path="url(#p5c538fb767)" d="M 545.266815 259.785175 
L 546.687005 279.796631 
" style="fill:none;stroke:#0f7399;stroke-linecap:square;stroke-width:2;"/>
   </g>
   <g id="line2d_90">
    <path clip-path="url(#p5c538fb767)" d="M 518.691275 183.430961 
L 517.788557 183.591231 
" style="fill:none;stroke:#1a8daf;stroke-linecap:square;stroke-width:2;"/>
   </g>
   <g id="line2d_91">
    <path clip-path="url(#p5c538fb767)" d="M 517.788557 183.591231 
L 466.676832 205.210133 
" style="fill:none;stroke:#1a8daf;stroke-linecap:square;stroke-width:2;"/>
   </g>
   <g id="line2d_92">
    <path clip-path="url(#p5c538fb767)" d="M 466.676832 205.210133 
L 469.774767 218.950123 
" style="fill:none;stroke:#1a8daf;stroke-linecap:square;stroke-width:2;"/>
   </g>
   <g id="line2d_93">
    <path clip-path="url(#p5c538fb767)" d="M 469.774767 218.950123 
L 441.381472 247.370251 
" style="fill:none;stroke:#1a8daf;stroke-linecap:square;stroke-width:2;"/>
   </g>
   <g id="line2d_94">
    <path clip-path="url(#p5c538fb767)" d="M 508.325929 174.893237 
L 504.55867 170.480404 
" style="fill:none;stroke:#75becb;stroke-linecap:square;stroke-width:2;"/>
   </g>
   <g id="line2d_95">
    <path clip-path="url(#p5c538fb767)" d="M 504.55867 170.480404 
L 463.34431 173.664289 
" style="fill:none;stroke:#75becb;stroke-linecap:square;stroke-width:2;"/>
   </g>
   <g id="line2d_96">
    <path clip-path="url(#p5c538fb767)" d="M 463.34431 173.664289 
L 456.957049 165.128442 
" style="fill:none;stroke:#75becb;stroke-linecap:square;stroke-width:2;"/>
   </g>
   <g id="line2d_97">
    <path clip-path="url(#p5c538fb767)" d="M 456.957049 165.128442 
L 413.440815 159.650985 
" style="fill:none;stroke:#75becb;stroke-linecap:square;stroke-width:2;"/>
   </g>
   <g id="line2d_98">
    <path clip-path="url(#p5c538fb767)" d="M 563.229823 185.482399 
L 553.998277 180.993895 
" style="fill:none;stroke:#0000ff;stroke-linecap:square;stroke-width:2;"/>
   </g>
   <g id="line2d_99">
    <path clip-path="url(#p5c538fb767)" d="M 553.998277 180.993895 
L 595.09403 196.798768 
" style="fill:none;stroke:#0000ff;stroke-linecap:square;stroke-width:2;"/>
   </g>
   <g id="line2d_100">
    <path clip-path="url(#p5c538fb767)" d="M 595.09403 196.798768 
L 591.808002 205.177948 
" style="fill:none;stroke:#0000ff;stroke-linecap:square;stroke-width:2;"/>
   </g>
   <g id="line2d_101">
    <path clip-path="url(#p5c538fb767)" d="M 591.808002 205.177948 
L 614.713903 213.105603 
" style="fill:none;stroke:#0000ff;stroke-linecap:square;stroke-width:2;"/>
   </g>
   <g id="line2d_102">
    <path clip-path="url(#p5c538fb767)" d="M 540.372069 170.107929 
L 539.123562 170.373511 
" style="fill:none;stroke:#0000ff;stroke-linecap:square;stroke-width:2;"/>
   </g>
   <g id="line2d_103">
    <path clip-path="url(#p5c538fb767)" d="M 539.123562 170.373511 
L 563.512887 138.274149 
" style="fill:none;stroke:#0000ff;stroke-linecap:square;stroke-width:2;"/>
   </g>
   <g id="line2d_104">
    <path clip-path="url(#p5c538fb767)" d="M 563.512887 138.274149 
L 587.801644 131.144229 
" style="fill:none;stroke:#0000ff;stroke-linecap:square;stroke-width:2;"/>
   </g>
   <g id="line2d_105">
    <path clip-path="url(#p5c538fb767)" d="M 587.801644 131.144229 
L 628.081012 104.790431 
" style="fill:none;stroke:#0000ff;stroke-linecap:square;stroke-width:2;"/>
   </g>
   <g id="line2d_106">
    <path clip-path="url(#p5c538fb767)" d="M 533.249438 162.490972 
L 530.213486 159.958797 
" style="fill:none;stroke:#0000ff;stroke-linecap:square;stroke-width:2;"/>
   </g>
   <g id="line2d_107">
    <path clip-path="url(#p5c538fb767)" d="M 530.213486 159.958797 
L 545.278488 122.77892 
" style="fill:none;stroke:#0000ff;stroke-linecap:square;stroke-width:2;"/>
   </g>
   <g id="line2d_108">
    <path clip-path="url(#p5c538fb767)" d="M 545.278488 122.77892 
L 534.843365 107.849573 
" style="fill:none;stroke:#0000ff;stroke-linecap:square;stroke-width:2;"/>
   </g>
   <g id="line2d_109">
    <path clip-path="url(#p5c538fb767)" d="M 534.843365 107.849573 
L 536.957245 69.214542 
" style="fill:none;stroke:#0000ff;stroke-linecap:square;stroke-width:2;"/>
   </g>
   <g id="line2d_110">
    <path clip-path="url(#p5c538fb767)" d="M 532.947811 204.615287 
L 535.641422 201.767141 
" style="fill:none;stroke:#0000ff;stroke-linecap:square;stroke-width:2;"/>
   </g>
   <g id="line2d_111">
    <path clip-path="url(#p5c538fb767)" d="M 535.641422 201.767141 
L 539.976054 238.038821 
" style="fill:none;stroke:#0000ff;stroke-linecap:square;stroke-width:2;"/>
   </g>
   <g id="line2d_112">
    <path clip-path="url(#p5c538fb767)" d="M 539.976054 238.038821 
L 559.373112 255.059573 
" style="fill:none;stroke:#0000ff;stroke-linecap:square;stroke-width:2;"/>
   </g>
   <g id="line2d_113">
    <path clip-path="url(#p5c538fb767)" d="M 559.373112 255.059573 
L 574.379306 282.091505 
" style="fill:none;stroke:#0000ff;stroke-linecap:square;stroke-width:2;"/>
   </g>
   <g id="line2d_114">
    <path clip-path="url(#p5c538fb767)" d="M 524.180956 181.341111 
L 523.345629 181.015732 
" style="fill:none;stroke:#0000ff;stroke-linecap:square;stroke-width:2;"/>
   </g>
   <g id="line2d_115">
    <path clip-path="url(#p5c538fb767)" d="M 523.345629 181.015732 
L 475.222581 196.37218 
" style="fill:none;stroke:#0000ff;stroke-linecap:square;stroke-width:2;"/>
   </g>
   <g id="line2d_116">
    <path clip-path="url(#p5c538fb767)" d="M 475.222581 196.37218 
L 478.084966 208.582552 
" style="fill:none;stroke:#0000ff;stroke-linecap:square;stroke-width:2;"/>
   </g>
   <g id="line2d_117">
    <path clip-path="url(#p5c538fb767)" d="M 478.084966 208.582552 
L 448.050397 236.488929 
" style="fill:none;stroke:#0000ff;stroke-linecap:square;stroke-width:2;"/>
   </g>
   <g id="line2d_118">
    <path clip-path="url(#p5c538fb767)" d="M 513.96703 174.315027 
L 510.631082 171.653442 
" style="fill:none;stroke:#0000ff;stroke-linecap:square;stroke-width:2;"/>
   </g>
   <g id="line2d_119">
    <path clip-path="url(#p5c538fb767)" d="M 510.631082 171.653442 
L 466.170927 177.330302 
" style="fill:none;stroke:#0000ff;stroke-linecap:square;stroke-width:2;"/>
   </g>
   <g id="line2d_120">
    <path clip-path="url(#p5c538fb767)" d="M 466.170927 177.330302 
L 451.236978 166.567409 
" style="fill:none;stroke:#0000ff;stroke-linecap:square;stroke-width:2;"/>
   </g>
   <g id="line2d_121">
    <path clip-path="url(#p5c538fb767)" d="M 451.236978 166.567409 
L 405.892562 161.007557 
" style="fill:none;stroke:#0000ff;stroke-linecap:square;stroke-width:2;"/>
   </g>
   <g id="patch_8">
    <path d="M 394.363636 315 
L 394.363636 43.2 
" style="fill:none;stroke:#000000;stroke-linecap:square;stroke-linejoin:miter;stroke-width:0.8;"/>
   </g>
   <g id="patch_9">
    <path d="M 648 315 
L 648 43.2 
" style="fill:none;stroke:#000000;stroke-linecap:square;stroke-linejoin:miter;stroke-width:0.8;"/>
   </g>
   <g id="patch_10">
    <path d="M 394.363636 315 
L 648 315 
" style="fill:none;stroke:#000000;stroke-linecap:square;stroke-linejoin:miter;stroke-width:0.8;"/>
   </g>
   <g id="patch_11">
    <path d="M 394.363636 43.2 
L 648 43.2 
" style="fill:none;stroke:#000000;stroke-linecap:square;stroke-linejoin:miter;stroke-width:0.8;"/>
   </g>
   <g id="text_27">
    <!-- Source domain poses -->
    <g transform="translate(456.868381 37.2)scale(0.12 -0.12)">
     <defs>
      <path d="M 53.515625 70.515625 
L 53.515625 60.890625 
Q 47.90625 63.578125 42.921875 64.890625 
Q 37.9375 66.21875 33.296875 66.21875 
Q 25.25 66.21875 20.875 63.09375 
Q 16.5 59.96875 16.5 54.203125 
Q 16.5 49.359375 19.40625 46.890625 
Q 22.3125 44.4375 30.421875 42.921875 
L 36.375 41.703125 
Q 47.40625 39.59375 52.65625 34.296875 
Q 57.90625 29 57.90625 20.125 
Q 57.90625 9.515625 50.796875 4.046875 
Q 43.703125 -1.421875 29.984375 -1.421875 
Q 24.8125 -1.421875 18.96875 -0.25 
Q 13.140625 0.921875 6.890625 3.21875 
L 6.890625 13.375 
Q 12.890625 10.015625 18.65625 8.296875 
Q 24.421875 6.59375 29.984375 6.59375 
Q 38.421875 6.59375 43.015625 9.90625 
Q 47.609375 13.234375 47.609375 19.390625 
Q 47.609375 24.75 44.3125 27.78125 
Q 41.015625 30.8125 33.5 32.328125 
L 27.484375 33.5 
Q 16.453125 35.6875 11.515625 40.375 
Q 6.59375 45.0625 6.59375 53.421875 
Q 6.59375 63.09375 13.40625 68.65625 
Q 20.21875 74.21875 32.171875 74.21875 
Q 37.3125 74.21875 42.625 73.28125 
Q 47.953125 72.359375 53.515625 70.515625 
z
" id="DejaVuSans-83"/>
      <path d="M 8.5 21.578125 
L 8.5 54.6875 
L 17.484375 54.6875 
L 17.484375 21.921875 
Q 17.484375 14.15625 20.5 10.265625 
Q 23.53125 6.390625 29.59375 6.390625 
Q 36.859375 6.390625 41.078125 11.03125 
Q 45.3125 15.671875 45.3125 23.6875 
L 45.3125 54.6875 
L 54.296875 54.6875 
L 54.296875 0 
L 45.3125 0 
L 45.3125 8.40625 
Q 42.046875 3.421875 37.71875 1 
Q 33.40625 -1.421875 27.6875 -1.421875 
Q 18.265625 -1.421875 13.375 4.4375 
Q 8.5 10.296875 8.5 21.578125 
z
M 31.109375 56 
z
" id="DejaVuSans-117"/>
      <path d="M 48.78125 52.59375 
L 48.78125 44.1875 
Q 44.96875 46.296875 41.140625 47.34375 
Q 37.3125 48.390625 33.40625 48.390625 
Q 24.65625 48.390625 19.8125 42.84375 
Q 14.984375 37.3125 14.984375 27.296875 
Q 14.984375 17.28125 19.8125 11.734375 
Q 24.65625 6.203125 33.40625 6.203125 
Q 37.3125 6.203125 41.140625 7.25 
Q 44.96875 8.296875 48.78125 10.40625 
L 48.78125 2.09375 
Q 45.015625 0.34375 40.984375 -0.53125 
Q 36.96875 -1.421875 32.421875 -1.421875 
Q 20.0625 -1.421875 12.78125 6.34375 
Q 5.515625 14.109375 5.515625 27.296875 
Q 5.515625 40.671875 12.859375 48.328125 
Q 20.21875 56 33.015625 56 
Q 37.15625 56 41.109375 55.140625 
Q 45.0625 54.296875 48.78125 52.59375 
z
" id="DejaVuSans-99"/>
     </defs>
     <use xlink:href="#DejaVuSans-83"/>
     <use x="63.476562" xlink:href="#DejaVuSans-111"/>
     <use x="124.658203" xlink:href="#DejaVuSans-117"/>
     <use x="188.037109" xlink:href="#DejaVuSans-114"/>
     <use x="226.900391" xlink:href="#DejaVuSans-99"/>
     <use x="281.880859" xlink:href="#DejaVuSans-101"/>
     <use x="343.404297" xlink:href="#DejaVuSans-32"/>
     <use x="375.191406" xlink:href="#DejaVuSans-100"/>
     <use x="438.667969" xlink:href="#DejaVuSans-111"/>
     <use x="499.849609" xlink:href="#DejaVuSans-109"/>
     <use x="597.261719" xlink:href="#DejaVuSans-97"/>
     <use x="658.541016" xlink:href="#DejaVuSans-105"/>
     <use x="686.324219" xlink:href="#DejaVuSans-110"/>
     <use x="749.703125" xlink:href="#DejaVuSans-32"/>
     <use x="781.490234" xlink:href="#DejaVuSans-112"/>
     <use x="844.966797" xlink:href="#DejaVuSans-111"/>
     <use x="906.148438" xlink:href="#DejaVuSans-115"/>
     <use x="958.248047" xlink:href="#DejaVuSans-101"/>
     <use x="1019.771484" xlink:href="#DejaVuSans-115"/>
    </g>
   </g>
  </g>
 </g>
 <defs>
  <clipPath id="p55fdae8ff4">
   <rect height="271.8" width="253.636364" x="90" y="43.2"/>
  </clipPath>
  <clipPath id="p5c538fb767">
   <rect height="271.8" width="253.636364" x="394.363636" y="43.2"/>
  </clipPath>
 </defs>
</svg>
