<?xml version="1.0" encoding="utf-8" standalone="no"?>
<!DOCTYPE svg PUBLIC "-//W3C//DTD SVG 1.1//EN"
  "http://www.w3.org/Graphics/SVG/1.1/DTD/svg11.dtd">
<!-- Created with matplotlib (https://matplotlib.org/) -->
<svg height="576pt" version="1.1" viewBox="0 0 360 576" width="360pt" xmlns="http://www.w3.org/2000/svg" xmlns:xlink="http://www.w3.org/1999/xlink">
 <defs>
  <style type="text/css">
*{stroke-linecap:butt;stroke-linejoin:round;}
  </style>
 </defs>
 <g id="figure_1">
  <g id="patch_1">
   <path d="M 0 576 
L 360 576 
L 360 0 
L 0 0 
z
" style="fill:#ffffff;"/>
  </g>
  <g id="axes_1">
   <g id="patch_2">
    <path d="M 77.8 228.6 
L 349.2 228.6 
L 349.2 10.8 
L 77.8 10.8 
z
" style="fill:#ffffff;"/>
   </g>
   <g id="matplotlib.axis_1">
    <g id="xtick_1">
     <g id="line2d_1">
      <defs>
       <path d="M 0 0 
L 0 3.5 
" id="m26e94e0352" style="stroke:#000000;stroke-width:0.8;"/>
      </defs>
      <g>
       <use style="stroke:#000000;stroke-width:0.8;" x="98.641065" xlink:href="#m26e94e0352" y="228.6"/>
      </g>
     </g>
     <g id="text_1">
      <!-- −1 -->
      <defs>
       <path d="M 10.59375 35.5 
L 73.1875 35.5 
L 73.1875 27.203125 
L 10.59375 27.203125 
z
" id="DejaVuSans-8722"/>
       <path d="M 12.40625 8.296875 
L 28.515625 8.296875 
L 28.515625 63.921875 
L 10.984375 60.40625 
L 10.984375 69.390625 
L 28.421875 72.90625 
L 38.28125 72.90625 
L 38.28125 8.296875 
L 54.390625 8.296875 
L 54.390625 0 
L 12.40625 0 
z
" id="DejaVuSans-49"/>
      </defs>
      <g transform="translate(83.898877 250.796875)scale(0.2 -0.2)">
       <use xlink:href="#DejaVuSans-8722"/>
       <use x="83.789062" xlink:href="#DejaVuSans-49"/>
      </g>
     </g>
    </g>
    <g id="xtick_2">
     <g id="line2d_2">
      <g>
       <use style="stroke:#000000;stroke-width:0.8;" x="196.874339" xlink:href="#m26e94e0352" y="228.6"/>
      </g>
     </g>
     <g id="text_2">
      <!-- 0 -->
      <defs>
       <path d="M 31.78125 66.40625 
Q 24.171875 66.40625 20.328125 58.90625 
Q 16.5 51.421875 16.5 36.375 
Q 16.5 21.390625 20.328125 13.890625 
Q 24.171875 6.390625 31.78125 6.390625 
Q 39.453125 6.390625 43.28125 13.890625 
Q 47.125 21.390625 47.125 36.375 
Q 47.125 51.421875 43.28125 58.90625 
Q 39.453125 66.40625 31.78125 66.40625 
z
M 31.78125 74.21875 
Q 44.046875 74.21875 50.515625 64.515625 
Q 56.984375 54.828125 56.984375 36.375 
Q 56.984375 17.96875 50.515625 8.265625 
Q 44.046875 -1.421875 31.78125 -1.421875 
Q 19.53125 -1.421875 13.0625 8.265625 
Q 6.59375 17.96875 6.59375 36.375 
Q 6.59375 54.828125 13.0625 64.515625 
Q 19.53125 74.21875 31.78125 74.21875 
z
" id="DejaVuSans-48"/>
      </defs>
      <g transform="translate(190.511839 250.796875)scale(0.2 -0.2)">
       <use xlink:href="#DejaVuSans-48"/>
      </g>
     </g>
    </g>
    <g id="xtick_3">
     <g id="line2d_3">
      <g>
       <use style="stroke:#000000;stroke-width:0.8;" x="295.107614" xlink:href="#m26e94e0352" y="228.6"/>
      </g>
     </g>
     <g id="text_3">
      <!-- 1 -->
      <g transform="translate(288.745114 250.796875)scale(0.2 -0.2)">
       <use xlink:href="#DejaVuSans-49"/>
      </g>
     </g>
    </g>
    <g id="text_4">
     <!-- X (mm) -->
     <defs>
      <path d="M 6.296875 72.90625 
L 16.890625 72.90625 
L 35.015625 45.796875 
L 53.21875 72.90625 
L 63.8125 72.90625 
L 40.375 37.890625 
L 65.375 0 
L 54.78125 0 
L 34.28125 31 
L 13.625 0 
L 2.984375 0 
L 29 38.921875 
z
" id="DejaVuSans-88"/>
      <path id="DejaVuSans-32"/>
      <path d="M 31 75.875 
Q 24.46875 64.65625 21.28125 53.65625 
Q 18.109375 42.671875 18.109375 31.390625 
Q 18.109375 20.125 21.3125 9.0625 
Q 24.515625 -2 31 -13.1875 
L 23.1875 -13.1875 
Q 15.875 -1.703125 12.234375 9.375 
Q 8.59375 20.453125 8.59375 31.390625 
Q 8.59375 42.28125 12.203125 53.3125 
Q 15.828125 64.359375 23.1875 75.875 
z
" id="DejaVuSans-40"/>
      <path d="M 52 44.1875 
Q 55.375 50.25 60.0625 53.125 
Q 64.75 56 71.09375 56 
Q 79.640625 56 84.28125 50.015625 
Q 88.921875 44.046875 88.921875 33.015625 
L 88.921875 0 
L 79.890625 0 
L 79.890625 32.71875 
Q 79.890625 40.578125 77.09375 44.375 
Q 74.3125 48.1875 68.609375 48.1875 
Q 61.625 48.1875 57.5625 43.546875 
Q 53.515625 38.921875 53.515625 30.90625 
L 53.515625 0 
L 44.484375 0 
L 44.484375 32.71875 
Q 44.484375 40.625 41.703125 44.40625 
Q 38.921875 48.1875 33.109375 48.1875 
Q 26.21875 48.1875 22.15625 43.53125 
Q 18.109375 38.875 18.109375 30.90625 
L 18.109375 0 
L 9.078125 0 
L 9.078125 54.6875 
L 18.109375 54.6875 
L 18.109375 46.1875 
Q 21.1875 51.21875 25.484375 53.609375 
Q 29.78125 56 35.6875 56 
Q 41.65625 56 45.828125 52.96875 
Q 50 49.953125 52 44.1875 
z
" id="DejaVuSans-109"/>
      <path d="M 8.015625 75.875 
L 15.828125 75.875 
Q 23.140625 64.359375 26.78125 53.3125 
Q 30.421875 42.28125 30.421875 31.390625 
Q 30.421875 20.453125 26.78125 9.375 
Q 23.140625 -1.703125 15.828125 -13.1875 
L 8.015625 -13.1875 
Q 14.5 -2 17.703125 9.0625 
Q 20.90625 20.125 20.90625 31.390625 
Q 20.90625 42.671875 17.703125 53.65625 
Q 14.5 64.65625 8.015625 75.875 
z
" id="DejaVuSans-41"/>
     </defs>
     <g transform="translate(166.859375 277.952344)scale(0.25 -0.25)">
      <use xlink:href="#DejaVuSans-88"/>
      <use x="68.505859" xlink:href="#DejaVuSans-32"/>
      <use x="100.292969" xlink:href="#DejaVuSans-40"/>
      <use x="139.306641" xlink:href="#DejaVuSans-109"/>
      <use x="236.71875" xlink:href="#DejaVuSans-109"/>
      <use x="334.130859" xlink:href="#DejaVuSans-41"/>
     </g>
    </g>
   </g>
   <g id="matplotlib.axis_2">
    <g id="ytick_1">
     <g id="line2d_4">
      <defs>
       <path d="M 0 0 
L -3.5 0 
" id="m8925c0d74a" style="stroke:#000000;stroke-width:0.8;"/>
      </defs>
      <g>
       <use style="stroke:#000000;stroke-width:0.8;" x="77.8" xlink:href="#m8925c0d74a" y="194.359105"/>
      </g>
     </g>
     <g id="text_5">
      <!-- −1 -->
      <g transform="translate(41.315625 201.957542)scale(0.2 -0.2)">
       <use xlink:href="#DejaVuSans-8722"/>
       <use x="83.789062" xlink:href="#DejaVuSans-49"/>
      </g>
     </g>
    </g>
    <g id="ytick_2">
     <g id="line2d_5">
      <g>
       <use style="stroke:#000000;stroke-width:0.8;" x="77.8" xlink:href="#m8925c0d74a" y="119.651788"/>
      </g>
     </g>
     <g id="text_6">
      <!-- 0 -->
      <g transform="translate(58.075 127.250226)scale(0.2 -0.2)">
       <use xlink:href="#DejaVuSans-48"/>
      </g>
     </g>
    </g>
    <g id="ytick_3">
     <g id="line2d_6">
      <g>
       <use style="stroke:#000000;stroke-width:0.8;" x="77.8" xlink:href="#m8925c0d74a" y="44.944472"/>
      </g>
     </g>
     <g id="text_7">
      <!-- 1 -->
      <g transform="translate(58.075 52.542909)scale(0.2 -0.2)">
       <use xlink:href="#DejaVuSans-49"/>
      </g>
     </g>
    </g>
    <g id="text_8">
     <!-- Y (mm) -->
     <defs>
      <path d="M -0.203125 72.90625 
L 10.40625 72.90625 
L 30.609375 42.921875 
L 50.6875 72.90625 
L 61.28125 72.90625 
L 35.5 34.71875 
L 35.5 0 
L 25.59375 0 
L 25.59375 34.71875 
z
" id="DejaVuSans-89"/>
     </defs>
     <g transform="translate(32.116406 165.412891)rotate(-90)scale(0.25 -0.25)">
      <use xlink:href="#DejaVuSans-89"/>
      <use x="61.083984" xlink:href="#DejaVuSans-32"/>
      <use x="92.871094" xlink:href="#DejaVuSans-40"/>
      <use x="131.884766" xlink:href="#DejaVuSans-109"/>
      <use x="229.296875" xlink:href="#DejaVuSans-109"/>
      <use x="326.708984" xlink:href="#DejaVuSans-41"/>
     </g>
    </g>
   </g>
   <g id="line2d_7">
    <path clip-path="url(#p044c99772b)" d="M 90.76721 155.580593 
L 92.684119 151.196986 
L 100.276756 154.009177 
L 108.633058 151.38312 
L 110.290057 152.793036 
L 111.150923 152.478772 
L 98.689879 150.737972 
L 92.028142 155.441035 
L 92.529613 153.105732 
L 97.249258 152.197149 
L 104.908954 155.517834 
L 112.074018 154.430707 
L 110.417412 152.375797 
L 110.951883 152.898476 
L 107.168548 151.777874 
L 93.491674 151.635063 
L 93.634259 153.147289 
L 95.35098 153.712313 
L 106.426676 158.482194 
L 116.729789 158.744973 
L 117.264564 153.943321 
L 115.012963 152.868274 
L 111.010294 156.480543 
L 94.306736 150.522596 
" style="fill:none;stroke:#0f7399;stroke-linecap:square;stroke-width:1.5;"/>
    <defs>
     <path d="M 0 3 
C 0.795609 3 1.55874 2.683901 2.12132 2.12132 
C 2.683901 1.55874 3 0.795609 3 0 
C 3 -0.795609 2.683901 -1.55874 2.12132 -2.12132 
C 1.55874 -2.683901 0.795609 -3 0 -3 
C -0.795609 -3 -1.55874 -2.683901 -2.12132 -2.12132 
C -2.683901 -1.55874 -3 -0.795609 -3 0 
C -3 0.795609 -2.683901 1.55874 -2.12132 2.12132 
C -1.55874 2.683901 -0.795609 3 0 3 
z
" id="mfaab3d0f30" style="stroke:#0f7399;"/>
    </defs>
    <g clip-path="url(#p044c99772b)">
     <use style="fill:#0f7399;stroke:#0f7399;" x="90.76721" xlink:href="#mfaab3d0f30" y="155.580593"/>
     <use style="fill:#0f7399;stroke:#0f7399;" x="92.684119" xlink:href="#mfaab3d0f30" y="151.196986"/>
     <use style="fill:#0f7399;stroke:#0f7399;" x="100.276756" xlink:href="#mfaab3d0f30" y="154.009177"/>
     <use style="fill:#0f7399;stroke:#0f7399;" x="108.633058" xlink:href="#mfaab3d0f30" y="151.38312"/>
     <use style="fill:#0f7399;stroke:#0f7399;" x="110.290057" xlink:href="#mfaab3d0f30" y="152.793036"/>
     <use style="fill:#0f7399;stroke:#0f7399;" x="111.150923" xlink:href="#mfaab3d0f30" y="152.478772"/>
     <use style="fill:#0f7399;stroke:#0f7399;" x="98.689879" xlink:href="#mfaab3d0f30" y="150.737972"/>
     <use style="fill:#0f7399;stroke:#0f7399;" x="92.028142" xlink:href="#mfaab3d0f30" y="155.441035"/>
     <use style="fill:#0f7399;stroke:#0f7399;" x="92.529613" xlink:href="#mfaab3d0f30" y="153.105732"/>
     <use style="fill:#0f7399;stroke:#0f7399;" x="97.249258" xlink:href="#mfaab3d0f30" y="152.197149"/>
     <use style="fill:#0f7399;stroke:#0f7399;" x="104.908954" xlink:href="#mfaab3d0f30" y="155.517834"/>
     <use style="fill:#0f7399;stroke:#0f7399;" x="112.074018" xlink:href="#mfaab3d0f30" y="154.430707"/>
     <use style="fill:#0f7399;stroke:#0f7399;" x="110.417412" xlink:href="#mfaab3d0f30" y="152.375797"/>
     <use style="fill:#0f7399;stroke:#0f7399;" x="110.951883" xlink:href="#mfaab3d0f30" y="152.898476"/>
     <use style="fill:#0f7399;stroke:#0f7399;" x="107.168548" xlink:href="#mfaab3d0f30" y="151.777874"/>
     <use style="fill:#0f7399;stroke:#0f7399;" x="93.491674" xlink:href="#mfaab3d0f30" y="151.635063"/>
     <use style="fill:#0f7399;stroke:#0f7399;" x="93.634259" xlink:href="#mfaab3d0f30" y="153.147289"/>
     <use style="fill:#0f7399;stroke:#0f7399;" x="95.35098" xlink:href="#mfaab3d0f30" y="153.712313"/>
     <use style="fill:#0f7399;stroke:#0f7399;" x="106.426676" xlink:href="#mfaab3d0f30" y="158.482194"/>
     <use style="fill:#0f7399;stroke:#0f7399;" x="116.729789" xlink:href="#mfaab3d0f30" y="158.744973"/>
     <use style="fill:#0f7399;stroke:#0f7399;" x="117.264564" xlink:href="#mfaab3d0f30" y="153.943321"/>
     <use style="fill:#0f7399;stroke:#0f7399;" x="115.012963" xlink:href="#mfaab3d0f30" y="152.868274"/>
     <use style="fill:#0f7399;stroke:#0f7399;" x="111.010294" xlink:href="#mfaab3d0f30" y="156.480543"/>
     <use style="fill:#0f7399;stroke:#0f7399;" x="94.306736" xlink:href="#mfaab3d0f30" y="150.522596"/>
    </g>
   </g>
   <g id="line2d_8">
    <path clip-path="url(#p044c99772b)" d="M 219.163769 216.304917 
L 222.988974 217.007799 
L 231.065628 217.456821 
L 209.360243 218.7 
L 187.881352 217.558258 
L 198.553104 217.237889 
L 206.325277 216.863284 
L 224.41085 216.435396 
L 232.32511 216.195162 
L 241.684056 215.460424 
L 239.363659 215.842919 
L 202.297846 218.521599 
L 183.484201 216.27852 
L 195.90781 215.604556 
L 204.504541 215.844335 
L 217.226061 215.637097 
L 222.406631 216.186149 
L 230.043443 216.822888 
L 245.453408 215.915769 
L 238.016088 215.371188 
L 183.942477 214.305955 
L 191.669622 212.564853 
L 198.141697 213.733241 
L 209.215917 213.577175 
" style="fill:none;stroke:#1a8daf;stroke-linecap:square;stroke-width:1.5;"/>
    <defs>
     <path d="M 0 3 
C 0.795609 3 1.55874 2.683901 2.12132 2.12132 
C 2.683901 1.55874 3 0.795609 3 0 
C 3 -0.795609 2.683901 -1.55874 2.12132 -2.12132 
C 1.55874 -2.683901 0.795609 -3 0 -3 
C -0.795609 -3 -1.55874 -2.683901 -2.12132 -2.12132 
C -2.683901 -1.55874 -3 -0.795609 -3 0 
C -3 0.795609 -2.683901 1.55874 -2.12132 2.12132 
C -1.55874 2.683901 -0.795609 3 0 3 
z
" id="m15ad423b44" style="stroke:#1a8daf;"/>
    </defs>
    <g clip-path="url(#p044c99772b)">
     <use style="fill:#1a8daf;stroke:#1a8daf;" x="219.163769" xlink:href="#m15ad423b44" y="216.304917"/>
     <use style="fill:#1a8daf;stroke:#1a8daf;" x="222.988974" xlink:href="#m15ad423b44" y="217.007799"/>
     <use style="fill:#1a8daf;stroke:#1a8daf;" x="231.065628" xlink:href="#m15ad423b44" y="217.456821"/>
     <use style="fill:#1a8daf;stroke:#1a8daf;" x="209.360243" xlink:href="#m15ad423b44" y="218.7"/>
     <use style="fill:#1a8daf;stroke:#1a8daf;" x="187.881352" xlink:href="#m15ad423b44" y="217.558258"/>
     <use style="fill:#1a8daf;stroke:#1a8daf;" x="198.553104" xlink:href="#m15ad423b44" y="217.237889"/>
     <use style="fill:#1a8daf;stroke:#1a8daf;" x="206.325277" xlink:href="#m15ad423b44" y="216.863284"/>
     <use style="fill:#1a8daf;stroke:#1a8daf;" x="224.41085" xlink:href="#m15ad423b44" y="216.435396"/>
     <use style="fill:#1a8daf;stroke:#1a8daf;" x="232.32511" xlink:href="#m15ad423b44" y="216.195162"/>
     <use style="fill:#1a8daf;stroke:#1a8daf;" x="241.684056" xlink:href="#m15ad423b44" y="215.460424"/>
     <use style="fill:#1a8daf;stroke:#1a8daf;" x="239.363659" xlink:href="#m15ad423b44" y="215.842919"/>
     <use style="fill:#1a8daf;stroke:#1a8daf;" x="202.297846" xlink:href="#m15ad423b44" y="218.521599"/>
     <use style="fill:#1a8daf;stroke:#1a8daf;" x="183.484201" xlink:href="#m15ad423b44" y="216.27852"/>
     <use style="fill:#1a8daf;stroke:#1a8daf;" x="195.90781" xlink:href="#m15ad423b44" y="215.604556"/>
     <use style="fill:#1a8daf;stroke:#1a8daf;" x="204.504541" xlink:href="#m15ad423b44" y="215.844335"/>
     <use style="fill:#1a8daf;stroke:#1a8daf;" x="217.226061" xlink:href="#m15ad423b44" y="215.637097"/>
     <use style="fill:#1a8daf;stroke:#1a8daf;" x="222.406631" xlink:href="#m15ad423b44" y="216.186149"/>
     <use style="fill:#1a8daf;stroke:#1a8daf;" x="230.043443" xlink:href="#m15ad423b44" y="216.822888"/>
     <use style="fill:#1a8daf;stroke:#1a8daf;" x="245.453408" xlink:href="#m15ad423b44" y="215.915769"/>
     <use style="fill:#1a8daf;stroke:#1a8daf;" x="238.016088" xlink:href="#m15ad423b44" y="215.371188"/>
     <use style="fill:#1a8daf;stroke:#1a8daf;" x="183.942477" xlink:href="#m15ad423b44" y="214.305955"/>
     <use style="fill:#1a8daf;stroke:#1a8daf;" x="191.669622" xlink:href="#m15ad423b44" y="212.564853"/>
     <use style="fill:#1a8daf;stroke:#1a8daf;" x="198.141697" xlink:href="#m15ad423b44" y="213.733241"/>
     <use style="fill:#1a8daf;stroke:#1a8daf;" x="209.215917" xlink:href="#m15ad423b44" y="213.577175"/>
    </g>
   </g>
   <g id="line2d_9">
    <path clip-path="url(#p044c99772b)" d="M 318.879011 185.466893 
L 306.134132 183.905572 
L 307.124204 184.52079 
L 310.885383 185.141493 
L 316.625805 187.746842 
L 321.319804 186.06242 
L 328.832934 188.703994 
L 329.588495 185.155181 
L 311.48501 188.160134 
L 305.992097 187.780177 
L 310.069443 187.485279 
L 314.55405 184.271881 
L 320.192838 185.384653 
L 328.532049 187.273133 
L 332.190107 186.418319 
L 335.129912 184.426339 
L 323.011161 184.067333 
L 304.344444 182.571919 
L 301.977016 187.556053 
L 308.493035 182.606081 
L 318.741157 179.987169 
L 327.324703 180.387859 
L 330.536188 182.92584 
L 334.271581 183.555543 
" style="fill:none;stroke:#75becb;stroke-linecap:square;stroke-width:1.5;"/>
    <defs>
     <path d="M 0 3 
C 0.795609 3 1.55874 2.683901 2.12132 2.12132 
C 2.683901 1.55874 3 0.795609 3 0 
C 3 -0.795609 2.683901 -1.55874 2.12132 -2.12132 
C 1.55874 -2.683901 0.795609 -3 0 -3 
C -0.795609 -3 -1.55874 -2.683901 -2.12132 -2.12132 
C -2.683901 -1.55874 -3 -0.795609 -3 0 
C -3 0.795609 -2.683901 1.55874 -2.12132 2.12132 
C -1.55874 2.683901 -0.795609 3 0 3 
z
" id="m22cf7e62f2" style="stroke:#75becb;"/>
    </defs>
    <g clip-path="url(#p044c99772b)">
     <use style="fill:#75becb;stroke:#75becb;" x="318.879011" xlink:href="#m22cf7e62f2" y="185.466893"/>
     <use style="fill:#75becb;stroke:#75becb;" x="306.134132" xlink:href="#m22cf7e62f2" y="183.905572"/>
     <use style="fill:#75becb;stroke:#75becb;" x="307.124204" xlink:href="#m22cf7e62f2" y="184.52079"/>
     <use style="fill:#75becb;stroke:#75becb;" x="310.885383" xlink:href="#m22cf7e62f2" y="185.141493"/>
     <use style="fill:#75becb;stroke:#75becb;" x="316.625805" xlink:href="#m22cf7e62f2" y="187.746842"/>
     <use style="fill:#75becb;stroke:#75becb;" x="321.319804" xlink:href="#m22cf7e62f2" y="186.06242"/>
     <use style="fill:#75becb;stroke:#75becb;" x="328.832934" xlink:href="#m22cf7e62f2" y="188.703994"/>
     <use style="fill:#75becb;stroke:#75becb;" x="329.588495" xlink:href="#m22cf7e62f2" y="185.155181"/>
     <use style="fill:#75becb;stroke:#75becb;" x="311.48501" xlink:href="#m22cf7e62f2" y="188.160134"/>
     <use style="fill:#75becb;stroke:#75becb;" x="305.992097" xlink:href="#m22cf7e62f2" y="187.780177"/>
     <use style="fill:#75becb;stroke:#75becb;" x="310.069443" xlink:href="#m22cf7e62f2" y="187.485279"/>
     <use style="fill:#75becb;stroke:#75becb;" x="314.55405" xlink:href="#m22cf7e62f2" y="184.271881"/>
     <use style="fill:#75becb;stroke:#75becb;" x="320.192838" xlink:href="#m22cf7e62f2" y="185.384653"/>
     <use style="fill:#75becb;stroke:#75becb;" x="328.532049" xlink:href="#m22cf7e62f2" y="187.273133"/>
     <use style="fill:#75becb;stroke:#75becb;" x="332.190107" xlink:href="#m22cf7e62f2" y="186.418319"/>
     <use style="fill:#75becb;stroke:#75becb;" x="335.129912" xlink:href="#m22cf7e62f2" y="184.426339"/>
     <use style="fill:#75becb;stroke:#75becb;" x="323.011161" xlink:href="#m22cf7e62f2" y="184.067333"/>
     <use style="fill:#75becb;stroke:#75becb;" x="304.344444" xlink:href="#m22cf7e62f2" y="182.571919"/>
     <use style="fill:#75becb;stroke:#75becb;" x="301.977016" xlink:href="#m22cf7e62f2" y="187.556053"/>
     <use style="fill:#75becb;stroke:#75becb;" x="308.493035" xlink:href="#m22cf7e62f2" y="182.606081"/>
     <use style="fill:#75becb;stroke:#75becb;" x="318.741157" xlink:href="#m22cf7e62f2" y="179.987169"/>
     <use style="fill:#75becb;stroke:#75becb;" x="327.324703" xlink:href="#m22cf7e62f2" y="180.387859"/>
     <use style="fill:#75becb;stroke:#75becb;" x="330.536188" xlink:href="#m22cf7e62f2" y="182.92584"/>
     <use style="fill:#75becb;stroke:#75becb;" x="334.271581" xlink:href="#m22cf7e62f2" y="183.555543"/>
    </g>
   </g>
   <g id="line2d_10">
    <path clip-path="url(#p044c99772b)" d="M 106.564834 76.11181 
L 111.815238 82.120824 
L 98.915186 86.11057 
L 91.366673 78.783142 
L 90.136364 78.572088 
L 91.575983 76.214071 
L 97.669588 73.345137 
L 103.62627 76.833091 
L 110.620165 78.671174 
L 110.957469 87.019416 
L 101.835294 87.31311 
L 91.413397 78.970427 
L 90.34859 76.400839 
L 93.044844 77.852009 
L 98.128328 78.480772 
L 103.698757 81.588302 
L 108.112529 84.853079 
L 111.198894 85.520614 
L 112.985304 90.55581 
L 98.211636 77.91121 
L 93.46645 70.508326 
L 94.796708 70.974358 
L 99.329292 73.891739 
L 105.242394 74.521749 
" style="fill:none;stroke:#ba1e31;stroke-linecap:square;stroke-width:1.5;"/>
    <defs>
     <path d="M 0 3 
C 0.795609 3 1.55874 2.683901 2.12132 2.12132 
C 2.683901 1.55874 3 0.795609 3 0 
C 3 -0.795609 2.683901 -1.55874 2.12132 -2.12132 
C 1.55874 -2.683901 0.795609 -3 0 -3 
C -0.795609 -3 -1.55874 -2.683901 -2.12132 -2.12132 
C -2.683901 -1.55874 -3 -0.795609 -3 0 
C -3 0.795609 -2.683901 1.55874 -2.12132 2.12132 
C -1.55874 2.683901 -0.795609 3 0 3 
z
" id="m668d155f55" style="stroke:#ba1e31;"/>
    </defs>
    <g clip-path="url(#p044c99772b)">
     <use style="fill:#ba1e31;stroke:#ba1e31;" x="106.564834" xlink:href="#m668d155f55" y="76.11181"/>
     <use style="fill:#ba1e31;stroke:#ba1e31;" x="111.815238" xlink:href="#m668d155f55" y="82.120824"/>
     <use style="fill:#ba1e31;stroke:#ba1e31;" x="98.915186" xlink:href="#m668d155f55" y="86.11057"/>
     <use style="fill:#ba1e31;stroke:#ba1e31;" x="91.366673" xlink:href="#m668d155f55" y="78.783142"/>
     <use style="fill:#ba1e31;stroke:#ba1e31;" x="90.136364" xlink:href="#m668d155f55" y="78.572088"/>
     <use style="fill:#ba1e31;stroke:#ba1e31;" x="91.575983" xlink:href="#m668d155f55" y="76.214071"/>
     <use style="fill:#ba1e31;stroke:#ba1e31;" x="97.669588" xlink:href="#m668d155f55" y="73.345137"/>
     <use style="fill:#ba1e31;stroke:#ba1e31;" x="103.62627" xlink:href="#m668d155f55" y="76.833091"/>
     <use style="fill:#ba1e31;stroke:#ba1e31;" x="110.620165" xlink:href="#m668d155f55" y="78.671174"/>
     <use style="fill:#ba1e31;stroke:#ba1e31;" x="110.957469" xlink:href="#m668d155f55" y="87.019416"/>
     <use style="fill:#ba1e31;stroke:#ba1e31;" x="101.835294" xlink:href="#m668d155f55" y="87.31311"/>
     <use style="fill:#ba1e31;stroke:#ba1e31;" x="91.413397" xlink:href="#m668d155f55" y="78.970427"/>
     <use style="fill:#ba1e31;stroke:#ba1e31;" x="90.34859" xlink:href="#m668d155f55" y="76.400839"/>
     <use style="fill:#ba1e31;stroke:#ba1e31;" x="93.044844" xlink:href="#m668d155f55" y="77.852009"/>
     <use style="fill:#ba1e31;stroke:#ba1e31;" x="98.128328" xlink:href="#m668d155f55" y="78.480772"/>
     <use style="fill:#ba1e31;stroke:#ba1e31;" x="103.698757" xlink:href="#m668d155f55" y="81.588302"/>
     <use style="fill:#ba1e31;stroke:#ba1e31;" x="108.112529" xlink:href="#m668d155f55" y="84.853079"/>
     <use style="fill:#ba1e31;stroke:#ba1e31;" x="111.198894" xlink:href="#m668d155f55" y="85.520614"/>
     <use style="fill:#ba1e31;stroke:#ba1e31;" x="112.985304" xlink:href="#m668d155f55" y="90.55581"/>
     <use style="fill:#ba1e31;stroke:#ba1e31;" x="98.211636" xlink:href="#m668d155f55" y="77.91121"/>
     <use style="fill:#ba1e31;stroke:#ba1e31;" x="93.46645" xlink:href="#m668d155f55" y="70.508326"/>
     <use style="fill:#ba1e31;stroke:#ba1e31;" x="94.796708" xlink:href="#m668d155f55" y="70.974358"/>
     <use style="fill:#ba1e31;stroke:#ba1e31;" x="99.329292" xlink:href="#m668d155f55" y="73.891739"/>
     <use style="fill:#ba1e31;stroke:#ba1e31;" x="105.242394" xlink:href="#m668d155f55" y="74.521749"/>
    </g>
   </g>
   <g id="line2d_11">
    <path clip-path="url(#p044c99772b)" d="M 177.128625 21.115794 
L 168.673543 21.909043 
L 181.201789 23.371947 
L 197.344396 23.241958 
L 216.305826 22.336682 
L 230.062689 23.43687 
L 248.91088 23.87524 
L 225.827634 22.192275 
L 184.964962 20.7 
L 177.144023 22.230534 
L 190.617275 22.940514 
L 206.065946 23.354286 
L 218.789924 22.602343 
L 229.600567 23.649817 
L 241.954245 23.53682 
L 246.846122 24.581756 
L 209.248752 21.841226 
L 195.54441 22.678977 
L 206.10103 22.837011 
L 213.70252 22.715731 
L 226.264994 21.828793 
L 249.35695 23.405415 
L 246.686669 25.898666 
L 229.572424 22.819805 
" style="fill:none;stroke:#c9564f;stroke-linecap:square;stroke-width:1.5;"/>
    <defs>
     <path d="M 0 3 
C 0.795609 3 1.55874 2.683901 2.12132 2.12132 
C 2.683901 1.55874 3 0.795609 3 0 
C 3 -0.795609 2.683901 -1.55874 2.12132 -2.12132 
C 1.55874 -2.683901 0.795609 -3 0 -3 
C -0.795609 -3 -1.55874 -2.683901 -2.12132 -2.12132 
C -2.683901 -1.55874 -3 -0.795609 -3 0 
C -3 0.795609 -2.683901 1.55874 -2.12132 2.12132 
C -1.55874 2.683901 -0.795609 3 0 3 
z
" id="m991c6a6a39" style="stroke:#c9564f;"/>
    </defs>
    <g clip-path="url(#p044c99772b)">
     <use style="fill:#c9564f;stroke:#c9564f;" x="177.128625" xlink:href="#m991c6a6a39" y="21.115794"/>
     <use style="fill:#c9564f;stroke:#c9564f;" x="168.673543" xlink:href="#m991c6a6a39" y="21.909043"/>
     <use style="fill:#c9564f;stroke:#c9564f;" x="181.201789" xlink:href="#m991c6a6a39" y="23.371947"/>
     <use style="fill:#c9564f;stroke:#c9564f;" x="197.344396" xlink:href="#m991c6a6a39" y="23.241958"/>
     <use style="fill:#c9564f;stroke:#c9564f;" x="216.305826" xlink:href="#m991c6a6a39" y="22.336682"/>
     <use style="fill:#c9564f;stroke:#c9564f;" x="230.062689" xlink:href="#m991c6a6a39" y="23.43687"/>
     <use style="fill:#c9564f;stroke:#c9564f;" x="248.91088" xlink:href="#m991c6a6a39" y="23.87524"/>
     <use style="fill:#c9564f;stroke:#c9564f;" x="225.827634" xlink:href="#m991c6a6a39" y="22.192275"/>
     <use style="fill:#c9564f;stroke:#c9564f;" x="184.964962" xlink:href="#m991c6a6a39" y="20.7"/>
     <use style="fill:#c9564f;stroke:#c9564f;" x="177.144023" xlink:href="#m991c6a6a39" y="22.230534"/>
     <use style="fill:#c9564f;stroke:#c9564f;" x="190.617275" xlink:href="#m991c6a6a39" y="22.940514"/>
     <use style="fill:#c9564f;stroke:#c9564f;" x="206.065946" xlink:href="#m991c6a6a39" y="23.354286"/>
     <use style="fill:#c9564f;stroke:#c9564f;" x="218.789924" xlink:href="#m991c6a6a39" y="22.602343"/>
     <use style="fill:#c9564f;stroke:#c9564f;" x="229.600567" xlink:href="#m991c6a6a39" y="23.649817"/>
     <use style="fill:#c9564f;stroke:#c9564f;" x="241.954245" xlink:href="#m991c6a6a39" y="23.53682"/>
     <use style="fill:#c9564f;stroke:#c9564f;" x="246.846122" xlink:href="#m991c6a6a39" y="24.581756"/>
     <use style="fill:#c9564f;stroke:#c9564f;" x="209.248752" xlink:href="#m991c6a6a39" y="21.841226"/>
     <use style="fill:#c9564f;stroke:#c9564f;" x="195.54441" xlink:href="#m991c6a6a39" y="22.678977"/>
     <use style="fill:#c9564f;stroke:#c9564f;" x="206.10103" xlink:href="#m991c6a6a39" y="22.837011"/>
     <use style="fill:#c9564f;stroke:#c9564f;" x="213.70252" xlink:href="#m991c6a6a39" y="22.715731"/>
     <use style="fill:#c9564f;stroke:#c9564f;" x="226.264994" xlink:href="#m991c6a6a39" y="21.828793"/>
     <use style="fill:#c9564f;stroke:#c9564f;" x="249.35695" xlink:href="#m991c6a6a39" y="23.405415"/>
     <use style="fill:#c9564f;stroke:#c9564f;" x="246.686669" xlink:href="#m991c6a6a39" y="25.898666"/>
     <use style="fill:#c9564f;stroke:#c9564f;" x="229.572424" xlink:href="#m991c6a6a39" y="22.819805"/>
    </g>
   </g>
   <g id="line2d_12">
    <path clip-path="url(#p044c99772b)" d="M 320.578049 59.904334 
L 330.56879 61.208478 
L 334.775827 62.451875 
L 336.863636 63.492082 
L 328.172085 61.382119 
L 307.365355 59.046201 
L 306.122925 59.838431 
L 311.216024 60.130425 
L 316.783309 58.567942 
L 324.285922 57.301968 
L 327.299772 58.746013 
L 329.439809 58.360677 
L 327.620447 59.071262 
L 311.817431 57.481937 
L 308.540965 60.481577 
L 311.349603 59.538216 
L 317.205618 62.134129 
L 324.350622 62.94548 
L 328.306192 61.491411 
L 329.854917 61.2555 
L 324.925575 60.243373 
L 309.171601 58.849192 
L 308.279907 60.005388 
L 313.063057 60.53401 
" style="fill:none;stroke:#d58579;stroke-linecap:square;stroke-width:1.5;"/>
    <defs>
     <path d="M 0 3 
C 0.795609 3 1.55874 2.683901 2.12132 2.12132 
C 2.683901 1.55874 3 0.795609 3 0 
C 3 -0.795609 2.683901 -1.55874 2.12132 -2.12132 
C 1.55874 -2.683901 0.795609 -3 0 -3 
C -0.795609 -3 -1.55874 -2.683901 -2.12132 -2.12132 
C -2.683901 -1.55874 -3 -0.795609 -3 0 
C -3 0.795609 -2.683901 1.55874 -2.12132 2.12132 
C -1.55874 2.683901 -0.795609 3 0 3 
z
" id="m3a86fb3069" style="stroke:#d58579;"/>
    </defs>
    <g clip-path="url(#p044c99772b)">
     <use style="fill:#d58579;stroke:#d58579;" x="320.578049" xlink:href="#m3a86fb3069" y="59.904334"/>
     <use style="fill:#d58579;stroke:#d58579;" x="330.56879" xlink:href="#m3a86fb3069" y="61.208478"/>
     <use style="fill:#d58579;stroke:#d58579;" x="334.775827" xlink:href="#m3a86fb3069" y="62.451875"/>
     <use style="fill:#d58579;stroke:#d58579;" x="336.863636" xlink:href="#m3a86fb3069" y="63.492082"/>
     <use style="fill:#d58579;stroke:#d58579;" x="328.172085" xlink:href="#m3a86fb3069" y="61.382119"/>
     <use style="fill:#d58579;stroke:#d58579;" x="307.365355" xlink:href="#m3a86fb3069" y="59.046201"/>
     <use style="fill:#d58579;stroke:#d58579;" x="306.122925" xlink:href="#m3a86fb3069" y="59.838431"/>
     <use style="fill:#d58579;stroke:#d58579;" x="311.216024" xlink:href="#m3a86fb3069" y="60.130425"/>
     <use style="fill:#d58579;stroke:#d58579;" x="316.783309" xlink:href="#m3a86fb3069" y="58.567942"/>
     <use style="fill:#d58579;stroke:#d58579;" x="324.285922" xlink:href="#m3a86fb3069" y="57.301968"/>
     <use style="fill:#d58579;stroke:#d58579;" x="327.299772" xlink:href="#m3a86fb3069" y="58.746013"/>
     <use style="fill:#d58579;stroke:#d58579;" x="329.439809" xlink:href="#m3a86fb3069" y="58.360677"/>
     <use style="fill:#d58579;stroke:#d58579;" x="327.620447" xlink:href="#m3a86fb3069" y="59.071262"/>
     <use style="fill:#d58579;stroke:#d58579;" x="311.817431" xlink:href="#m3a86fb3069" y="57.481937"/>
     <use style="fill:#d58579;stroke:#d58579;" x="308.540965" xlink:href="#m3a86fb3069" y="60.481577"/>
     <use style="fill:#d58579;stroke:#d58579;" x="311.349603" xlink:href="#m3a86fb3069" y="59.538216"/>
     <use style="fill:#d58579;stroke:#d58579;" x="317.205618" xlink:href="#m3a86fb3069" y="62.134129"/>
     <use style="fill:#d58579;stroke:#d58579;" x="324.350622" xlink:href="#m3a86fb3069" y="62.94548"/>
     <use style="fill:#d58579;stroke:#d58579;" x="328.306192" xlink:href="#m3a86fb3069" y="61.491411"/>
     <use style="fill:#d58579;stroke:#d58579;" x="329.854917" xlink:href="#m3a86fb3069" y="61.2555"/>
     <use style="fill:#d58579;stroke:#d58579;" x="324.925575" xlink:href="#m3a86fb3069" y="60.243373"/>
     <use style="fill:#d58579;stroke:#d58579;" x="309.171601" xlink:href="#m3a86fb3069" y="58.849192"/>
     <use style="fill:#d58579;stroke:#d58579;" x="308.279907" xlink:href="#m3a86fb3069" y="60.005388"/>
     <use style="fill:#d58579;stroke:#d58579;" x="313.063057" xlink:href="#m3a86fb3069" y="60.53401"/>
    </g>
   </g>
   <g id="patch_3">
    <path d="M 77.8 228.6 
L 77.8 10.8 
" style="fill:none;stroke:#000000;stroke-linecap:square;stroke-linejoin:miter;stroke-width:0.8;"/>
   </g>
   <g id="patch_4">
    <path d="M 349.2 228.6 
L 349.2 10.8 
" style="fill:none;stroke:#000000;stroke-linecap:square;stroke-linejoin:miter;stroke-width:0.8;"/>
   </g>
   <g id="patch_5">
    <path d="M 77.8 228.6 
L 349.2 228.6 
" style="fill:none;stroke:#000000;stroke-linecap:square;stroke-linejoin:miter;stroke-width:0.8;"/>
   </g>
   <g id="patch_6">
    <path d="M 77.8 10.8 
L 349.2 10.8 
" style="fill:none;stroke:#000000;stroke-linecap:square;stroke-linejoin:miter;stroke-width:0.8;"/>
   </g>
  </g>
  <g id="axes_2">
   <g id="patch_7">
    <path d="M 77.8 511.2 
L 349.2 511.2 
L 349.2 293.4 
L 77.8 293.4 
z
" style="fill:#ffffff;"/>
   </g>
   <g id="matplotlib.axis_3">
    <g id="xtick_4">
     <g id="line2d_13">
      <g>
       <use style="stroke:#000000;stroke-width:0.8;" x="98.086409" xlink:href="#m26e94e0352" y="511.2"/>
      </g>
     </g>
     <g id="text_9">
      <!-- −1 -->
      <g transform="translate(83.344222 533.396875)scale(0.2 -0.2)">
       <use xlink:href="#DejaVuSans-8722"/>
       <use x="83.789062" xlink:href="#DejaVuSans-49"/>
      </g>
     </g>
    </g>
    <g id="xtick_5">
     <g id="line2d_14">
      <g>
       <use style="stroke:#000000;stroke-width:0.8;" x="197.270236" xlink:href="#m26e94e0352" y="511.2"/>
      </g>
     </g>
     <g id="text_10">
      <!-- 0 -->
      <g transform="translate(190.907736 533.396875)scale(0.2 -0.2)">
       <use xlink:href="#DejaVuSans-48"/>
      </g>
     </g>
    </g>
    <g id="xtick_6">
     <g id="line2d_15">
      <g>
       <use style="stroke:#000000;stroke-width:0.8;" x="296.454063" xlink:href="#m26e94e0352" y="511.2"/>
      </g>
     </g>
     <g id="text_11">
      <!-- 1 -->
      <g transform="translate(290.091563 533.396875)scale(0.2 -0.2)">
       <use xlink:href="#DejaVuSans-49"/>
      </g>
     </g>
    </g>
    <g id="text_12">
     <!-- X (mm) -->
     <g transform="translate(166.859375 560.552344)scale(0.25 -0.25)">
      <use xlink:href="#DejaVuSans-88"/>
      <use x="68.505859" xlink:href="#DejaVuSans-32"/>
      <use x="100.292969" xlink:href="#DejaVuSans-40"/>
      <use x="139.306641" xlink:href="#DejaVuSans-109"/>
      <use x="236.71875" xlink:href="#DejaVuSans-109"/>
      <use x="334.130859" xlink:href="#DejaVuSans-41"/>
     </g>
    </g>
   </g>
   <g id="matplotlib.axis_4">
    <g id="ytick_4">
     <g id="line2d_16">
      <g>
       <use style="stroke:#000000;stroke-width:0.8;" x="77.8" xlink:href="#m8925c0d74a" y="491.689422"/>
      </g>
     </g>
     <g id="text_13">
      <!-- 0.0 -->
      <defs>
       <path d="M 10.6875 12.40625 
L 21 12.40625 
L 21 0 
L 10.6875 0 
z
" id="DejaVuSans-46"/>
      </defs>
      <g transform="translate(38.99375 499.28786)scale(0.2 -0.2)">
       <use xlink:href="#DejaVuSans-48"/>
       <use x="63.623047" xlink:href="#DejaVuSans-46"/>
       <use x="95.410156" xlink:href="#DejaVuSans-48"/>
      </g>
     </g>
    </g>
    <g id="ytick_5">
     <g id="line2d_17">
      <g>
       <use style="stroke:#000000;stroke-width:0.8;" x="77.8" xlink:href="#m8925c0d74a" y="423.148577"/>
      </g>
     </g>
     <g id="text_14">
      <!-- 0.1 -->
      <g transform="translate(38.99375 430.747015)scale(0.2 -0.2)">
       <use xlink:href="#DejaVuSans-48"/>
       <use x="63.623047" xlink:href="#DejaVuSans-46"/>
       <use x="95.410156" xlink:href="#DejaVuSans-49"/>
      </g>
     </g>
    </g>
    <g id="ytick_6">
     <g id="line2d_18">
      <g>
       <use style="stroke:#000000;stroke-width:0.8;" x="77.8" xlink:href="#m8925c0d74a" y="354.607732"/>
      </g>
     </g>
     <g id="text_15">
      <!-- 0.2 -->
      <defs>
       <path d="M 19.1875 8.296875 
L 53.609375 8.296875 
L 53.609375 0 
L 7.328125 0 
L 7.328125 8.296875 
Q 12.9375 14.109375 22.625 23.890625 
Q 32.328125 33.6875 34.8125 36.53125 
Q 39.546875 41.84375 41.421875 45.53125 
Q 43.3125 49.21875 43.3125 52.78125 
Q 43.3125 58.59375 39.234375 62.25 
Q 35.15625 65.921875 28.609375 65.921875 
Q 23.96875 65.921875 18.8125 64.3125 
Q 13.671875 62.703125 7.8125 59.421875 
L 7.8125 69.390625 
Q 13.765625 71.78125 18.9375 73 
Q 24.125 74.21875 28.421875 74.21875 
Q 39.75 74.21875 46.484375 68.546875 
Q 53.21875 62.890625 53.21875 53.421875 
Q 53.21875 48.921875 51.53125 44.890625 
Q 49.859375 40.875 45.40625 35.40625 
Q 44.1875 33.984375 37.640625 27.21875 
Q 31.109375 20.453125 19.1875 8.296875 
z
" id="DejaVuSans-50"/>
      </defs>
      <g transform="translate(38.99375 362.20617)scale(0.2 -0.2)">
       <use xlink:href="#DejaVuSans-48"/>
       <use x="63.623047" xlink:href="#DejaVuSans-46"/>
       <use x="95.410156" xlink:href="#DejaVuSans-50"/>
      </g>
     </g>
    </g>
    <g id="text_16">
     <!-- Z (mm) -->
     <defs>
      <path d="M 5.609375 72.90625 
L 62.890625 72.90625 
L 62.890625 65.375 
L 16.796875 8.296875 
L 64.015625 8.296875 
L 64.015625 0 
L 4.5 0 
L 4.5 7.515625 
L 50.59375 64.59375 
L 5.609375 64.59375 
z
" id="DejaVuSans-90"/>
     </defs>
     <g transform="translate(29.794531 448.940625)rotate(-90)scale(0.25 -0.25)">
      <use xlink:href="#DejaVuSans-90"/>
      <use x="68.505859" xlink:href="#DejaVuSans-32"/>
      <use x="100.292969" xlink:href="#DejaVuSans-40"/>
      <use x="139.306641" xlink:href="#DejaVuSans-109"/>
      <use x="236.71875" xlink:href="#DejaVuSans-109"/>
      <use x="334.130859" xlink:href="#DejaVuSans-41"/>
     </g>
    </g>
   </g>
   <g id="line2d_19">
    <path clip-path="url(#pae6d4c03d8)" d="M 90.136364 413.696321 
L 92.071822 467.390955 
L 99.737929 454.628055 
L 108.17509 416.453516 
L 109.848122 398.353044 
L 110.717319 352.662479 
L 98.135696 303.3 
L 91.409497 364.487063 
L 91.91582 431.444498 
L 96.681135 454.583001 
L 104.41495 468.901881 
L 111.649347 389.231861 
L 109.97671 422.108343 
L 110.516353 398.713137 
L 106.696409 333.710967 
L 92.887191 443.164767 
L 93.031156 351.236119 
L 94.764489 474.231234 
L 105.947358 490.159417 
L 116.350169 446.396327 
L 116.890119 417.197867 
L 114.61673 390.364708 
L 110.575329 325.511634 
L 93.71014 459.344722 
" style="fill:none;stroke:#0f7399;stroke-linecap:square;stroke-width:1.5;"/>
    <g clip-path="url(#pae6d4c03d8)">
     <use style="fill:#0f7399;stroke:#0f7399;" x="90.136364" xlink:href="#mfaab3d0f30" y="413.696321"/>
     <use style="fill:#0f7399;stroke:#0f7399;" x="92.071822" xlink:href="#mfaab3d0f30" y="467.390955"/>
     <use style="fill:#0f7399;stroke:#0f7399;" x="99.737929" xlink:href="#mfaab3d0f30" y="454.628055"/>
     <use style="fill:#0f7399;stroke:#0f7399;" x="108.17509" xlink:href="#mfaab3d0f30" y="416.453516"/>
     <use style="fill:#0f7399;stroke:#0f7399;" x="109.848122" xlink:href="#mfaab3d0f30" y="398.353044"/>
     <use style="fill:#0f7399;stroke:#0f7399;" x="110.717319" xlink:href="#mfaab3d0f30" y="352.662479"/>
     <use style="fill:#0f7399;stroke:#0f7399;" x="98.135696" xlink:href="#mfaab3d0f30" y="303.3"/>
     <use style="fill:#0f7399;stroke:#0f7399;" x="91.409497" xlink:href="#mfaab3d0f30" y="364.487063"/>
     <use style="fill:#0f7399;stroke:#0f7399;" x="91.91582" xlink:href="#mfaab3d0f30" y="431.444498"/>
     <use style="fill:#0f7399;stroke:#0f7399;" x="96.681135" xlink:href="#mfaab3d0f30" y="454.583001"/>
     <use style="fill:#0f7399;stroke:#0f7399;" x="104.41495" xlink:href="#mfaab3d0f30" y="468.901881"/>
     <use style="fill:#0f7399;stroke:#0f7399;" x="111.649347" xlink:href="#mfaab3d0f30" y="389.231861"/>
     <use style="fill:#0f7399;stroke:#0f7399;" x="109.97671" xlink:href="#mfaab3d0f30" y="422.108343"/>
     <use style="fill:#0f7399;stroke:#0f7399;" x="110.516353" xlink:href="#mfaab3d0f30" y="398.713137"/>
     <use style="fill:#0f7399;stroke:#0f7399;" x="106.696409" xlink:href="#mfaab3d0f30" y="333.710967"/>
     <use style="fill:#0f7399;stroke:#0f7399;" x="92.887191" xlink:href="#mfaab3d0f30" y="443.164767"/>
     <use style="fill:#0f7399;stroke:#0f7399;" x="93.031156" xlink:href="#mfaab3d0f30" y="351.236119"/>
     <use style="fill:#0f7399;stroke:#0f7399;" x="94.764489" xlink:href="#mfaab3d0f30" y="474.231234"/>
     <use style="fill:#0f7399;stroke:#0f7399;" x="105.947358" xlink:href="#mfaab3d0f30" y="490.159417"/>
     <use style="fill:#0f7399;stroke:#0f7399;" x="116.350169" xlink:href="#mfaab3d0f30" y="446.396327"/>
     <use style="fill:#0f7399;stroke:#0f7399;" x="116.890119" xlink:href="#mfaab3d0f30" y="417.197867"/>
     <use style="fill:#0f7399;stroke:#0f7399;" x="114.61673" xlink:href="#mfaab3d0f30" y="390.364708"/>
     <use style="fill:#0f7399;stroke:#0f7399;" x="110.575329" xlink:href="#mfaab3d0f30" y="325.511634"/>
     <use style="fill:#0f7399;stroke:#0f7399;" x="93.71014" xlink:href="#mfaab3d0f30" y="459.344722"/>
    </g>
   </g>
   <g id="line2d_20">
    <path clip-path="url(#pae6d4c03d8)" d="M 219.775349 451.542827 
L 223.637569 480.930523 
L 231.792376 462.129145 
L 209.876959 437.674293 
L 188.190229 456.170715 
L 198.965246 482.154352 
L 206.812626 482.715935 
L 225.073203 498.89648 
L 233.064046 469.335986 
L 242.513553 481.320593 
L 240.170703 474.017238 
L 202.746223 427.159877 
L 183.750529 451.63943 
L 196.294354 488.998671 
L 204.974271 481.648841 
L 217.818891 485.780046 
L 223.049591 468.441993 
L 230.7603 488.996056 
L 246.31938 483.206412 
L 238.810093 441.157955 
L 184.21324 463.647214 
L 192.015156 469.741743 
L 198.549858 480.851267 
L 209.731238 489.649059 
" style="fill:none;stroke:#1a8daf;stroke-linecap:square;stroke-width:1.5;"/>
    <g clip-path="url(#pae6d4c03d8)">
     <use style="fill:#1a8daf;stroke:#1a8daf;" x="219.775349" xlink:href="#m15ad423b44" y="451.542827"/>
     <use style="fill:#1a8daf;stroke:#1a8daf;" x="223.637569" xlink:href="#m15ad423b44" y="480.930523"/>
     <use style="fill:#1a8daf;stroke:#1a8daf;" x="231.792376" xlink:href="#m15ad423b44" y="462.129145"/>
     <use style="fill:#1a8daf;stroke:#1a8daf;" x="209.876959" xlink:href="#m15ad423b44" y="437.674293"/>
     <use style="fill:#1a8daf;stroke:#1a8daf;" x="188.190229" xlink:href="#m15ad423b44" y="456.170715"/>
     <use style="fill:#1a8daf;stroke:#1a8daf;" x="198.965246" xlink:href="#m15ad423b44" y="482.154352"/>
     <use style="fill:#1a8daf;stroke:#1a8daf;" x="206.812626" xlink:href="#m15ad423b44" y="482.715935"/>
     <use style="fill:#1a8daf;stroke:#1a8daf;" x="225.073203" xlink:href="#m15ad423b44" y="498.89648"/>
     <use style="fill:#1a8daf;stroke:#1a8daf;" x="233.064046" xlink:href="#m15ad423b44" y="469.335986"/>
     <use style="fill:#1a8daf;stroke:#1a8daf;" x="242.513553" xlink:href="#m15ad423b44" y="481.320593"/>
     <use style="fill:#1a8daf;stroke:#1a8daf;" x="240.170703" xlink:href="#m15ad423b44" y="474.017238"/>
     <use style="fill:#1a8daf;stroke:#1a8daf;" x="202.746223" xlink:href="#m15ad423b44" y="427.159877"/>
     <use style="fill:#1a8daf;stroke:#1a8daf;" x="183.750529" xlink:href="#m15ad423b44" y="451.63943"/>
     <use style="fill:#1a8daf;stroke:#1a8daf;" x="196.294354" xlink:href="#m15ad423b44" y="488.998671"/>
     <use style="fill:#1a8daf;stroke:#1a8daf;" x="204.974271" xlink:href="#m15ad423b44" y="481.648841"/>
     <use style="fill:#1a8daf;stroke:#1a8daf;" x="217.818891" xlink:href="#m15ad423b44" y="485.780046"/>
     <use style="fill:#1a8daf;stroke:#1a8daf;" x="223.049591" xlink:href="#m15ad423b44" y="468.441993"/>
     <use style="fill:#1a8daf;stroke:#1a8daf;" x="230.7603" xlink:href="#m15ad423b44" y="488.996056"/>
     <use style="fill:#1a8daf;stroke:#1a8daf;" x="246.31938" xlink:href="#m15ad423b44" y="483.206412"/>
     <use style="fill:#1a8daf;stroke:#1a8daf;" x="238.810093" xlink:href="#m15ad423b44" y="441.157955"/>
     <use style="fill:#1a8daf;stroke:#1a8daf;" x="184.21324" xlink:href="#m15ad423b44" y="463.647214"/>
     <use style="fill:#1a8daf;stroke:#1a8daf;" x="192.015156" xlink:href="#m15ad423b44" y="469.741743"/>
     <use style="fill:#1a8daf;stroke:#1a8daf;" x="198.549858" xlink:href="#m15ad423b44" y="480.851267"/>
     <use style="fill:#1a8daf;stroke:#1a8daf;" x="209.731238" xlink:href="#m15ad423b44" y="489.649059"/>
    </g>
   </g>
   <g id="line2d_21">
    <path clip-path="url(#pae6d4c03d8)" d="M 320.455484 445.992755 
L 307.587279 478.555585 
L 308.586932 476.495541 
L 312.384506 451.451721 
L 318.180475 467.361647 
L 322.919895 496.72513 
L 330.505726 490.248048 
L 331.268598 501.3 
L 312.989935 465.293014 
L 307.44387 476.989986 
L 311.56067 483.374948 
L 316.088673 438.972347 
L 321.782024 463.364492 
L 330.201929 498.397163 
L 333.895384 488.046631 
L 336.863636 488.779803 
L 324.627618 470.513114 
L 305.780273 494.930241 
L 303.389937 487.814603 
L 309.969008 457.72596 
L 320.316296 477.698197 
L 328.982901 485.243216 
L 332.225461 491.415438 
L 335.996999 489.061785 
" style="fill:none;stroke:#75becb;stroke-linecap:square;stroke-width:1.5;"/>
    <g clip-path="url(#pae6d4c03d8)">
     <use style="fill:#75becb;stroke:#75becb;" x="320.455484" xlink:href="#m22cf7e62f2" y="445.992755"/>
     <use style="fill:#75becb;stroke:#75becb;" x="307.587279" xlink:href="#m22cf7e62f2" y="478.555585"/>
     <use style="fill:#75becb;stroke:#75becb;" x="308.586932" xlink:href="#m22cf7e62f2" y="476.495541"/>
     <use style="fill:#75becb;stroke:#75becb;" x="312.384506" xlink:href="#m22cf7e62f2" y="451.451721"/>
     <use style="fill:#75becb;stroke:#75becb;" x="318.180475" xlink:href="#m22cf7e62f2" y="467.361647"/>
     <use style="fill:#75becb;stroke:#75becb;" x="322.919895" xlink:href="#m22cf7e62f2" y="496.72513"/>
     <use style="fill:#75becb;stroke:#75becb;" x="330.505726" xlink:href="#m22cf7e62f2" y="490.248048"/>
     <use style="fill:#75becb;stroke:#75becb;" x="331.268598" xlink:href="#m22cf7e62f2" y="501.3"/>
     <use style="fill:#75becb;stroke:#75becb;" x="312.989935" xlink:href="#m22cf7e62f2" y="465.293014"/>
     <use style="fill:#75becb;stroke:#75becb;" x="307.44387" xlink:href="#m22cf7e62f2" y="476.989986"/>
     <use style="fill:#75becb;stroke:#75becb;" x="311.56067" xlink:href="#m22cf7e62f2" y="483.374948"/>
     <use style="fill:#75becb;stroke:#75becb;" x="316.088673" xlink:href="#m22cf7e62f2" y="438.972347"/>
     <use style="fill:#75becb;stroke:#75becb;" x="321.782024" xlink:href="#m22cf7e62f2" y="463.364492"/>
     <use style="fill:#75becb;stroke:#75becb;" x="330.201929" xlink:href="#m22cf7e62f2" y="498.397163"/>
     <use style="fill:#75becb;stroke:#75becb;" x="333.895384" xlink:href="#m22cf7e62f2" y="488.046631"/>
     <use style="fill:#75becb;stroke:#75becb;" x="336.863636" xlink:href="#m22cf7e62f2" y="488.779803"/>
     <use style="fill:#75becb;stroke:#75becb;" x="324.627618" xlink:href="#m22cf7e62f2" y="470.513114"/>
     <use style="fill:#75becb;stroke:#75becb;" x="305.780273" xlink:href="#m22cf7e62f2" y="494.930241"/>
     <use style="fill:#75becb;stroke:#75becb;" x="303.389937" xlink:href="#m22cf7e62f2" y="487.814603"/>
     <use style="fill:#75becb;stroke:#75becb;" x="309.969008" xlink:href="#m22cf7e62f2" y="457.72596"/>
     <use style="fill:#75becb;stroke:#75becb;" x="320.316296" xlink:href="#m22cf7e62f2" y="477.698197"/>
     <use style="fill:#75becb;stroke:#75becb;" x="328.982901" xlink:href="#m22cf7e62f2" y="485.243216"/>
     <use style="fill:#75becb;stroke:#75becb;" x="332.225461" xlink:href="#m22cf7e62f2" y="491.415438"/>
     <use style="fill:#75becb;stroke:#75becb;" x="335.996999" xlink:href="#m22cf7e62f2" y="489.061785"/>
    </g>
   </g>
   <g id="patch_8">
    <path d="M 77.8 511.2 
L 77.8 293.4 
" style="fill:none;stroke:#000000;stroke-linecap:square;stroke-linejoin:miter;stroke-width:0.8;"/>
   </g>
   <g id="patch_9">
    <path d="M 349.2 511.2 
L 349.2 293.4 
" style="fill:none;stroke:#000000;stroke-linecap:square;stroke-linejoin:miter;stroke-width:0.8;"/>
   </g>
   <g id="patch_10">
    <path d="M 77.8 511.2 
L 349.2 511.2 
" style="fill:none;stroke:#000000;stroke-linecap:square;stroke-linejoin:miter;stroke-width:0.8;"/>
   </g>
   <g id="patch_11">
    <path d="M 77.8 293.4 
L 349.2 293.4 
" style="fill:none;stroke:#000000;stroke-linecap:square;stroke-linejoin:miter;stroke-width:0.8;"/>
   </g>
  </g>
 </g>
 <defs>
  <clipPath id="p044c99772b">
   <rect height="217.8" width="271.4" x="77.8" y="10.8"/>
  </clipPath>
  <clipPath id="pae6d4c03d8">
   <rect height="217.8" width="271.4" x="77.8" y="293.4"/>
  </clipPath>
 </defs>
</svg>
