<?xml version="1.0" encoding="utf-8" standalone="no"?>
<!DOCTYPE svg PUBLIC "-//W3C//DTD SVG 1.1//EN"
  "http://www.w3.org/Graphics/SVG/1.1/DTD/svg11.dtd">
<!-- Created with matplotlib (https://matplotlib.org/) -->
<svg height="288pt" version="1.1" viewBox="0 0 432 288" width="432pt" xmlns="http://www.w3.org/2000/svg" xmlns:xlink="http://www.w3.org/1999/xlink">
 <defs>
  <style type="text/css">
*{stroke-linecap:butt;stroke-linejoin:round;}
  </style>
 </defs>
 <g id="figure_1">
  <g id="patch_1">
   <path d="M 0 288 
L 432 288 
L 432 0 
L 0 0 
z
" style="fill:#ffffff;"/>
  </g>
  <g id="axes_1">
   <g id="patch_2">
    <path d="M 54 252 
L 388.8 252 
L 388.8 34.56 
L 54 34.56 
z
" style="fill:#ffffff;"/>
   </g>
   <g id="PolyCollection_1">
    <defs>
     <path d="M 109.858675 -25.449598 
L 109.741325 -25.449598 
L 109.705568 -26.746354 
L 109.652277 -28.04311 
L 109.575295 -29.339866 
L 109.467484 -30.636622 
L 109.321082 -31.933378 
L 109.12827 -33.230134 
L 108.881931 -34.526889 
L 108.576538 -35.823645 
L 108.209054 -37.120401 
L 107.779699 -38.417157 
L 107.292459 -39.713913 
L 106.755223 -41.010669 
L 106.179495 -42.307425 
L 105.579727 -43.604181 
L 104.972363 -44.900937 
L 104.374755 -46.197693 
L 103.804102 -47.494449 
L 103.276559 -48.791205 
L 102.806566 -50.087961 
L 102.406402 -51.384717 
L 102.085897 -52.681473 
L 101.852226 -53.978229 
L 101.709695 -55.274984 
L 101.659511 -56.57174 
L 101.699582 -57.868496 
L 101.824409 -59.165252 
L 102.025201 -60.462008 
L 102.29028 -61.758764 
L 102.605799 -63.05552 
L 102.956734 -64.352276 
L 103.328033 -65.649032 
L 103.705759 -66.945788 
L 104.078082 -68.242544 
L 104.435965 -69.5393 
L 104.773478 -70.836056 
L 105.087712 -72.132812 
L 105.378359 -73.429568 
L 105.647048 -74.726324 
L 105.896588 -76.023079 
L 106.130227 -77.319835 
L 106.351067 -78.616591 
L 106.56167 -79.913347 
L 106.763881 -81.210103 
L 106.958837 -82.506859 
L 107.147077 -83.803615 
L 107.328715 -85.100371 
L 107.503585 -86.397127 
L 107.671357 -87.693883 
L 107.831597 -88.990639 
L 107.983811 -90.287395 
L 108.127472 -91.584151 
L 108.262065 -92.880907 
L 108.387145 -94.177663 
L 108.502404 -95.474419 
L 108.607718 -96.771174 
L 108.703188 -98.06793 
L 108.789137 -99.364686 
L 108.866085 -100.661442 
L 108.934709 -101.958198 
L 108.99579 -103.254954 
L 109.050159 -104.55171 
L 109.098661 -105.848466 
L 109.142112 -107.145222 
L 109.18127 -108.441978 
L 109.216811 -109.738734 
L 109.24931 -111.03549 
L 109.279228 -112.332246 
L 109.306922 -113.629002 
L 109.332657 -114.925758 
L 109.35664 -116.222514 
L 109.379059 -117.519269 
L 109.40012 -118.816025 
L 109.420071 -120.112781 
L 109.439211 -121.409537 
L 109.457873 -122.706293 
L 109.476392 -124.003049 
L 109.495063 -125.299805 
L 109.5141 -126.596561 
L 109.533608 -127.893317 
L 109.553572 -129.190073 
L 109.573871 -130.486829 
L 109.594307 -131.783585 
L 109.614637 -133.080341 
L 109.634607 -134.377097 
L 109.65398 -135.673853 
L 109.672543 -136.970609 
L 109.690117 -138.267364 
L 109.706549 -139.56412 
L 109.721709 -140.860876 
L 109.735487 -142.157632 
L 109.747798 -143.454388 
L 109.758588 -144.751144 
L 109.767842 -146.0479 
L 109.775592 -147.344656 
L 109.781918 -148.641412 
L 109.786941 -149.938168 
L 109.790816 -151.234924 
L 109.793716 -152.53168 
L 109.795821 -153.828436 
L 109.804179 -153.828436 
L 109.804179 -153.828436 
L 109.806284 -152.53168 
L 109.809184 -151.234924 
L 109.813059 -149.938168 
L 109.818082 -148.641412 
L 109.824408 -147.344656 
L 109.832158 -146.0479 
L 109.841412 -144.751144 
L 109.852202 -143.454388 
L 109.864513 -142.157632 
L 109.878291 -140.860876 
L 109.893451 -139.56412 
L 109.909883 -138.267364 
L 109.927457 -136.970609 
L 109.94602 -135.673853 
L 109.965393 -134.377097 
L 109.985363 -133.080341 
L 110.005693 -131.783585 
L 110.026129 -130.486829 
L 110.046428 -129.190073 
L 110.066392 -127.893317 
L 110.0859 -126.596561 
L 110.104937 -125.299805 
L 110.123608 -124.003049 
L 110.142127 -122.706293 
L 110.160789 -121.409537 
L 110.179929 -120.112781 
L 110.19988 -118.816025 
L 110.220941 -117.519269 
L 110.24336 -116.222514 
L 110.267343 -114.925758 
L 110.293078 -113.629002 
L 110.320772 -112.332246 
L 110.35069 -111.03549 
L 110.383189 -109.738734 
L 110.41873 -108.441978 
L 110.457888 -107.145222 
L 110.501339 -105.848466 
L 110.549841 -104.55171 
L 110.60421 -103.254954 
L 110.665291 -101.958198 
L 110.733915 -100.661442 
L 110.810863 -99.364686 
L 110.896812 -98.06793 
L 110.992282 -96.771174 
L 111.097596 -95.474419 
L 111.212855 -94.177663 
L 111.337935 -92.880907 
L 111.472528 -91.584151 
L 111.616189 -90.287395 
L 111.768403 -88.990639 
L 111.928643 -87.693883 
L 112.096415 -86.397127 
L 112.271285 -85.100371 
L 112.452923 -83.803615 
L 112.641163 -82.506859 
L 112.836119 -81.210103 
L 113.03833 -79.913347 
L 113.248933 -78.616591 
L 113.469773 -77.319835 
L 113.703412 -76.023079 
L 113.952952 -74.726324 
L 114.221641 -73.429568 
L 114.512288 -72.132812 
L 114.826522 -70.836056 
L 115.164035 -69.5393 
L 115.521918 -68.242544 
L 115.894241 -66.945788 
L 116.271967 -65.649032 
L 116.643266 -64.352276 
L 116.994201 -63.05552 
L 117.30972 -61.758764 
L 117.574799 -60.462008 
L 117.775591 -59.165252 
L 117.900418 -57.868496 
L 117.940489 -56.57174 
L 117.890305 -55.274984 
L 117.747774 -53.978229 
L 117.514103 -52.681473 
L 117.193598 -51.384717 
L 116.793434 -50.087961 
L 116.323441 -48.791205 
L 115.795898 -47.494449 
L 115.225245 -46.197693 
L 114.627637 -44.900937 
L 114.020273 -43.604181 
L 113.420505 -42.307425 
L 112.844777 -41.010669 
L 112.307541 -39.713913 
L 111.820301 -38.417157 
L 111.390946 -37.120401 
L 111.023462 -35.823645 
L 110.718069 -34.526889 
L 110.47173 -33.230134 
L 110.278918 -31.933378 
L 110.132516 -30.636622 
L 110.024705 -29.339866 
L 109.947723 -28.04311 
L 109.894432 -26.746354 
L 109.858675 -25.449598 
z
" id="m2fbe3c2167" style="stroke:#3d3d3d;stroke-width:1.5;"/>
    </defs>
    <g clip-path="url(#p50ce61fcb7)">
     <use style="fill:#3274a1;stroke:#3d3d3d;stroke-width:1.5;" x="0" xlink:href="#m2fbe3c2167" y="288"/>
    </g>
   </g>
   <g id="PolyCollection_2">
    <defs>
     <path d="M 221.586759 -31.964789 
L 221.213241 -31.964789 
L 221.108637 -32.426892 
L 220.956262 -32.888995 
L 220.740123 -33.351098 
L 220.441583 -33.813201 
L 220.040064 -34.275305 
L 219.514265 -34.737408 
L 218.843911 -35.199511 
L 218.011952 -35.661614 
L 217.007026 -36.123718 
L 215.825911 -36.585821 
L 214.47561 -37.047924 
L 212.974716 -37.510027 
L 211.353717 -37.97213 
L 209.654077 -38.434234 
L 207.926037 -38.896337 
L 206.225336 -39.35844 
L 204.609193 -39.820543 
L 203.132044 -40.282647 
L 201.841574 -40.74475 
L 200.775512 -41.206853 
L 199.959547 -41.668956 
L 199.406525 -42.131059 
L 199.116866 -42.593163 
L 199.08 -43.055266 
L 199.276477 -43.517369 
L 199.68038 -43.979472 
L 200.261725 -44.441576 
L 200.988585 -44.903679 
L 201.828828 -45.365782 
L 202.751434 -45.827885 
L 203.727435 -46.289988 
L 204.730585 -46.752092 
L 205.737821 -47.214195 
L 206.729595 -47.676298 
L 207.69008 -48.138401 
L 208.607258 -48.600505 
L 209.472847 -49.062608 
L 210.28207 -49.524711 
L 211.033243 -49.986814 
L 211.727218 -50.448917 
L 212.366747 -50.911021 
L 212.955806 -51.373124 
L 213.49898 -51.835227 
L 214.000941 -52.29733 
L 214.466069 -52.759434 
L 214.898223 -53.221537 
L 215.300635 -53.68364 
L 215.675922 -54.145743 
L 216.02616 -54.607846 
L 216.353 -55.06995 
L 216.657797 -55.532053 
L 216.941741 -55.994156 
L 217.205965 -56.456259 
L 217.45164 -56.918362 
L 217.680036 -57.380466 
L 217.892547 -57.842569 
L 218.090669 -58.304672 
L 218.275944 -58.766775 
L 218.449855 -59.228879 
L 218.613714 -59.690982 
L 218.768543 -60.153085 
L 218.914995 -60.615188 
L 219.053314 -61.077291 
L 219.183373 -61.539395 
L 219.304764 -62.001498 
L 219.416949 -62.463601 
L 219.51943 -62.925704 
L 219.611917 -63.387808 
L 219.69447 -63.849911 
L 219.767577 -64.312014 
L 219.832183 -64.774117 
L 219.889645 -65.23622 
L 219.94165 -65.698324 
L 219.990099 -66.160427 
L 220.036979 -66.62253 
L 220.084234 -67.084633 
L 220.133654 -67.546737 
L 220.186767 -68.00884 
L 220.244756 -68.470943 
L 220.30838 -68.933046 
L 220.37792 -69.395149 
L 220.453143 -69.857253 
L 220.533303 -70.319356 
L 220.617182 -70.781459 
L 220.703169 -71.243562 
L 220.78939 -71.705666 
L 220.873855 -72.167769 
L 220.954627 -72.629872 
L 221.029977 -73.091975 
L 221.098519 -73.554078 
L 221.15929 -74.016182 
L 221.211795 -74.478285 
L 221.255986 -74.940388 
L 221.292213 -75.402491 
L 221.321134 -75.864595 
L 221.343615 -76.326698 
L 221.360626 -76.788801 
L 221.373157 -77.250904 
L 221.382139 -77.713007 
L 221.417861 -77.713007 
L 221.417861 -77.713007 
L 221.426843 -77.250904 
L 221.439374 -76.788801 
L 221.456385 -76.326698 
L 221.478866 -75.864595 
L 221.507787 -75.402491 
L 221.544014 -74.940388 
L 221.588205 -74.478285 
L 221.64071 -74.016182 
L 221.701481 -73.554078 
L 221.770023 -73.091975 
L 221.845373 -72.629872 
L 221.926145 -72.167769 
L 222.01061 -71.705666 
L 222.096831 -71.243562 
L 222.182818 -70.781459 
L 222.266697 -70.319356 
L 222.346857 -69.857253 
L 222.42208 -69.395149 
L 222.49162 -68.933046 
L 222.555244 -68.470943 
L 222.613233 -68.00884 
L 222.666346 -67.546737 
L 222.715766 -67.084633 
L 222.763021 -66.62253 
L 222.809901 -66.160427 
L 222.85835 -65.698324 
L 222.910355 -65.23622 
L 222.967817 -64.774117 
L 223.032423 -64.312014 
L 223.10553 -63.849911 
L 223.188083 -63.387808 
L 223.28057 -62.925704 
L 223.383051 -62.463601 
L 223.495236 -62.001498 
L 223.616627 -61.539395 
L 223.746686 -61.077291 
L 223.885005 -60.615188 
L 224.031457 -60.153085 
L 224.186286 -59.690982 
L 224.350145 -59.228879 
L 224.524056 -58.766775 
L 224.709331 -58.304672 
L 224.907453 -57.842569 
L 225.119964 -57.380466 
L 225.34836 -56.918362 
L 225.594035 -56.456259 
L 225.858259 -55.994156 
L 226.142203 -55.532053 
L 226.447 -55.06995 
L 226.77384 -54.607846 
L 227.124078 -54.145743 
L 227.499365 -53.68364 
L 227.901777 -53.221537 
L 228.333931 -52.759434 
L 228.799059 -52.29733 
L 229.30102 -51.835227 
L 229.844194 -51.373124 
L 230.433253 -50.911021 
L 231.072782 -50.448917 
L 231.766757 -49.986814 
L 232.51793 -49.524711 
L 233.327153 -49.062608 
L 234.192742 -48.600505 
L 235.10992 -48.138401 
L 236.070405 -47.676298 
L 237.062179 -47.214195 
L 238.069415 -46.752092 
L 239.072565 -46.289988 
L 240.048566 -45.827885 
L 240.971172 -45.365782 
L 241.811415 -44.903679 
L 242.538275 -44.441576 
L 243.11962 -43.979472 
L 243.523523 -43.517369 
L 243.72 -43.055266 
L 243.683134 -42.593163 
L 243.393475 -42.131059 
L 242.840453 -41.668956 
L 242.024488 -41.206853 
L 240.958426 -40.74475 
L 239.667956 -40.282647 
L 238.190807 -39.820543 
L 236.574664 -39.35844 
L 234.873963 -38.896337 
L 233.145923 -38.434234 
L 231.446283 -37.97213 
L 229.825284 -37.510027 
L 228.32439 -37.047924 
L 226.974089 -36.585821 
L 225.792974 -36.123718 
L 224.788048 -35.661614 
L 223.956089 -35.199511 
L 223.285735 -34.737408 
L 222.759936 -34.275305 
L 222.358417 -33.813201 
L 222.059877 -33.351098 
L 221.843738 -32.888995 
L 221.691363 -32.426892 
L 221.586759 -31.964789 
z
" id="m76c9a51564" style="stroke:#3d3d3d;stroke-width:1.5;"/>
    </defs>
    <g clip-path="url(#p50ce61fcb7)">
     <use style="fill:#e1812c;stroke:#3d3d3d;stroke-width:1.5;" x="0" xlink:href="#m76c9a51564" y="288"/>
    </g>
   </g>
   <g id="PolyCollection_3">
    <defs>
     <path d="M 333.093673 -22.600071 
L 332.906327 -22.600071 
L 332.851398 -24.003127 
L 332.771017 -25.406182 
L 332.657112 -26.809238 
L 332.500775 -28.212294 
L 332.292909 -29.615349 
L 332.025123 -31.018405 
L 331.690829 -32.421461 
L 331.286399 -33.824516 
L 330.81224 -35.227572 
L 330.273594 -36.630628 
L 329.680906 -38.033684 
L 329.049646 -39.436739 
L 328.399552 -40.839795 
L 327.753336 -42.242851 
L 327.135002 -43.645906 
L 326.567954 -45.048962 
L 326.073144 -46.452018 
L 325.667471 -47.855074 
L 325.362608 -49.258129 
L 325.164395 -50.661185 
L 325.072808 -52.064241 
L 325.082476 -53.467296 
L 325.183637 -54.870352 
L 325.363379 -56.273408 
L 325.60703 -57.676464 
L 325.899519 -59.079519 
L 326.226602 -60.482575 
L 326.575829 -61.885631 
L 326.937171 -63.288686 
L 327.303267 -64.691742 
L 327.66928 -66.094798 
L 328.032388 -67.497853 
L 328.39103 -68.900909 
L 328.744023 -70.303965 
L 329.089738 -71.707021 
L 329.42547 -73.110076 
L 329.747154 -74.513132 
L 330.049465 -75.916188 
L 330.32629 -77.319243 
L 330.571496 -78.722299 
L 330.779849 -80.125355 
L 330.947919 -81.528411 
L 331.074814 -82.931466 
L 331.162607 -84.334522 
L 331.216379 -85.737578 
L 331.243842 -87.140633 
L 331.254583 -88.543689 
L 331.259045 -89.946745 
L 331.267367 -91.349801 
L 331.288278 -92.752856 
L 331.328192 -94.155912 
L 331.390645 -95.558968 
L 331.476141 -96.962023 
L 331.582402 -98.365079 
L 331.704957 -99.768135 
L 331.837948 -101.17119 
L 331.974998 -102.574246 
L 332.11002 -103.977302 
L 332.23784 -105.380358 
L 332.354593 -106.783413 
L 332.45786 -108.186469 
L 332.546598 -109.589525 
L 332.620916 -110.99258 
L 332.681762 -112.395636 
L 332.730594 -113.798692 
L 332.769088 -115.201748 
L 332.798906 -116.604803 
L 332.821549 -118.007859 
L 332.838283 -119.410915 
L 332.850121 -120.81397 
L 332.857855 -122.217026 
L 332.862097 -123.620082 
L 332.863343 -125.023138 
L 332.862014 -126.426193 
L 332.858504 -127.829249 
L 332.853211 -129.232305 
L 332.846557 -130.63536 
L 332.839015 -132.038416 
L 332.83112 -133.441472 
L 332.823473 -134.844528 
L 332.816738 -136.247583 
L 332.811612 -137.650639 
L 332.808779 -139.053695 
L 332.808842 -140.45675 
L 332.812246 -141.859806 
L 332.819206 -143.262862 
L 332.829652 -144.665917 
L 332.843214 -146.068973 
L 332.859253 -147.472029 
L 332.876924 -148.875085 
L 332.89528 -150.27814 
L 332.913385 -151.681196 
L 332.930415 -153.084252 
L 332.945737 -154.487307 
L 332.95895 -155.890363 
L 332.969888 -157.293419 
L 332.978591 -158.696475 
L 332.985252 -160.09953 
L 332.990159 -161.502586 
L 333.009841 -161.502586 
L 333.009841 -161.502586 
L 333.014748 -160.09953 
L 333.021409 -158.696475 
L 333.030112 -157.293419 
L 333.04105 -155.890363 
L 333.054263 -154.487307 
L 333.069585 -153.084252 
L 333.086615 -151.681196 
L 333.10472 -150.27814 
L 333.123076 -148.875085 
L 333.140747 -147.472029 
L 333.156786 -146.068973 
L 333.170348 -144.665917 
L 333.180794 -143.262862 
L 333.187754 -141.859806 
L 333.191158 -140.45675 
L 333.191221 -139.053695 
L 333.188388 -137.650639 
L 333.183262 -136.247583 
L 333.176527 -134.844528 
L 333.16888 -133.441472 
L 333.160985 -132.038416 
L 333.153443 -130.63536 
L 333.146789 -129.232305 
L 333.141496 -127.829249 
L 333.137986 -126.426193 
L 333.136657 -125.023138 
L 333.137903 -123.620082 
L 333.142145 -122.217026 
L 333.149879 -120.81397 
L 333.161717 -119.410915 
L 333.178451 -118.007859 
L 333.201094 -116.604803 
L 333.230912 -115.201748 
L 333.269406 -113.798692 
L 333.318238 -112.395636 
L 333.379084 -110.99258 
L 333.453402 -109.589525 
L 333.54214 -108.186469 
L 333.645407 -106.783413 
L 333.76216 -105.380358 
L 333.88998 -103.977302 
L 334.025002 -102.574246 
L 334.162052 -101.17119 
L 334.295043 -99.768135 
L 334.417598 -98.365079 
L 334.523859 -96.962023 
L 334.609355 -95.558968 
L 334.671808 -94.155912 
L 334.711722 -92.752856 
L 334.732633 -91.349801 
L 334.740955 -89.946745 
L 334.745417 -88.543689 
L 334.756158 -87.140633 
L 334.783621 -85.737578 
L 334.837393 -84.334522 
L 334.925186 -82.931466 
L 335.052081 -81.528411 
L 335.220151 -80.125355 
L 335.428504 -78.722299 
L 335.67371 -77.319243 
L 335.950535 -75.916188 
L 336.252846 -74.513132 
L 336.57453 -73.110076 
L 336.910262 -71.707021 
L 337.255977 -70.303965 
L 337.60897 -68.900909 
L 337.967612 -67.497853 
L 338.33072 -66.094798 
L 338.696733 -64.691742 
L 339.062829 -63.288686 
L 339.424171 -61.885631 
L 339.773398 -60.482575 
L 340.100481 -59.079519 
L 340.39297 -57.676464 
L 340.636621 -56.273408 
L 340.816363 -54.870352 
L 340.917524 -53.467296 
L 340.927192 -52.064241 
L 340.835605 -50.661185 
L 340.637392 -49.258129 
L 340.332529 -47.855074 
L 339.926856 -46.452018 
L 339.432046 -45.048962 
L 338.864998 -43.645906 
L 338.246664 -42.242851 
L 337.600448 -40.839795 
L 336.950354 -39.436739 
L 336.319094 -38.033684 
L 335.726406 -36.630628 
L 335.18776 -35.227572 
L 334.713601 -33.824516 
L 334.309171 -32.421461 
L 333.974877 -31.018405 
L 333.707091 -29.615349 
L 333.499225 -28.212294 
L 333.342888 -26.809238 
L 333.228983 -25.406182 
L 333.148602 -24.003127 
L 333.093673 -22.600071 
z
" id="m70d272f1de" style="stroke:#3d3d3d;stroke-width:1.5;"/>
    </defs>
    <g clip-path="url(#p50ce61fcb7)">
     <use style="fill:#3a923a;stroke:#3d3d3d;stroke-width:1.5;" x="0" xlink:href="#m70d272f1de" y="288"/>
    </g>
   </g>
   <g id="matplotlib.axis_1">
    <g id="xtick_1">
     <g id="line2d_1">
      <defs>
       <path d="M 0 0 
L 0 3.5 
" id="ma679bf26ff" style="stroke:#000000;stroke-width:0.8;"/>
      </defs>
      <g>
       <use style="stroke:#000000;stroke-width:0.8;" x="109.8" xlink:href="#ma679bf26ff" y="252"/>
      </g>
     </g>
     <g id="text_1">
      <!-- test_PR -->
      <defs>
       <path d="M 18.3125 70.21875 
L 18.3125 54.6875 
L 36.8125 54.6875 
L 36.8125 47.703125 
L 18.3125 47.703125 
L 18.3125 18.015625 
Q 18.3125 11.328125 20.140625 9.421875 
Q 21.96875 7.515625 27.59375 7.515625 
L 36.8125 7.515625 
L 36.8125 0 
L 27.59375 0 
Q 17.1875 0 13.234375 3.875 
Q 9.28125 7.765625 9.28125 18.015625 
L 9.28125 47.703125 
L 2.6875 47.703125 
L 2.6875 54.6875 
L 9.28125 54.6875 
L 9.28125 70.21875 
z
" id="DejaVuSans-116"/>
       <path d="M 56.203125 29.59375 
L 56.203125 25.203125 
L 14.890625 25.203125 
Q 15.484375 15.921875 20.484375 11.0625 
Q 25.484375 6.203125 34.421875 6.203125 
Q 39.59375 6.203125 44.453125 7.46875 
Q 49.3125 8.734375 54.109375 11.28125 
L 54.109375 2.78125 
Q 49.265625 0.734375 44.1875 -0.34375 
Q 39.109375 -1.421875 33.890625 -1.421875 
Q 20.796875 -1.421875 13.15625 6.1875 
Q 5.515625 13.8125 5.515625 26.8125 
Q 5.515625 40.234375 12.765625 48.109375 
Q 20.015625 56 32.328125 56 
Q 43.359375 56 49.78125 48.890625 
Q 56.203125 41.796875 56.203125 29.59375 
z
M 47.21875 32.234375 
Q 47.125 39.59375 43.09375 43.984375 
Q 39.0625 48.390625 32.421875 48.390625 
Q 24.90625 48.390625 20.390625 44.140625 
Q 15.875 39.890625 15.1875 32.171875 
z
" id="DejaVuSans-101"/>
       <path d="M 44.28125 53.078125 
L 44.28125 44.578125 
Q 40.484375 46.53125 36.375 47.5 
Q 32.28125 48.484375 27.875 48.484375 
Q 21.1875 48.484375 17.84375 46.4375 
Q 14.5 44.390625 14.5 40.28125 
Q 14.5 37.15625 16.890625 35.375 
Q 19.28125 33.59375 26.515625 31.984375 
L 29.59375 31.296875 
Q 39.15625 29.25 43.1875 25.515625 
Q 47.21875 21.78125 47.21875 15.09375 
Q 47.21875 7.46875 41.1875 3.015625 
Q 35.15625 -1.421875 24.609375 -1.421875 
Q 20.21875 -1.421875 15.453125 -0.5625 
Q 10.6875 0.296875 5.421875 2 
L 5.421875 11.28125 
Q 10.40625 8.6875 15.234375 7.390625 
Q 20.0625 6.109375 24.8125 6.109375 
Q 31.15625 6.109375 34.5625 8.28125 
Q 37.984375 10.453125 37.984375 14.40625 
Q 37.984375 18.0625 35.515625 20.015625 
Q 33.0625 21.96875 24.703125 23.78125 
L 21.578125 24.515625 
Q 13.234375 26.265625 9.515625 29.90625 
Q 5.8125 33.546875 5.8125 39.890625 
Q 5.8125 47.609375 11.28125 51.796875 
Q 16.75 56 26.8125 56 
Q 31.78125 56 36.171875 55.265625 
Q 40.578125 54.546875 44.28125 53.078125 
z
" id="DejaVuSans-115"/>
       <path d="M 50.984375 -16.609375 
L 50.984375 -23.578125 
L -0.984375 -23.578125 
L -0.984375 -16.609375 
z
" id="DejaVuSans-95"/>
       <path d="M 19.671875 64.796875 
L 19.671875 37.40625 
L 32.078125 37.40625 
Q 38.96875 37.40625 42.71875 40.96875 
Q 46.484375 44.53125 46.484375 51.125 
Q 46.484375 57.671875 42.71875 61.234375 
Q 38.96875 64.796875 32.078125 64.796875 
z
M 9.8125 72.90625 
L 32.078125 72.90625 
Q 44.34375 72.90625 50.609375 67.359375 
Q 56.890625 61.8125 56.890625 51.125 
Q 56.890625 40.328125 50.609375 34.8125 
Q 44.34375 29.296875 32.078125 29.296875 
L 19.671875 29.296875 
L 19.671875 0 
L 9.8125 0 
z
" id="DejaVuSans-80"/>
       <path d="M 44.390625 34.1875 
Q 47.5625 33.109375 50.5625 29.59375 
Q 53.5625 26.078125 56.59375 19.921875 
L 66.609375 0 
L 56 0 
L 46.6875 18.703125 
Q 43.0625 26.03125 39.671875 28.421875 
Q 36.28125 30.8125 30.421875 30.8125 
L 19.671875 30.8125 
L 19.671875 0 
L 9.8125 0 
L 9.8125 72.90625 
L 32.078125 72.90625 
Q 44.578125 72.90625 50.734375 67.671875 
Q 56.890625 62.453125 56.890625 51.90625 
Q 56.890625 45.015625 53.6875 40.46875 
Q 50.484375 35.9375 44.390625 34.1875 
z
M 19.671875 64.796875 
L 19.671875 38.921875 
L 32.078125 38.921875 
Q 39.203125 38.921875 42.84375 42.21875 
Q 46.484375 45.515625 46.484375 51.90625 
Q 46.484375 58.296875 42.84375 61.546875 
Q 39.203125 64.796875 32.078125 64.796875 
z
" id="DejaVuSans-82"/>
      </defs>
      <g transform="translate(91.209375 266.320312)scale(0.1 -0.1)">
       <use xlink:href="#DejaVuSans-116"/>
       <use x="39.208984" xlink:href="#DejaVuSans-101"/>
       <use x="100.732422" xlink:href="#DejaVuSans-115"/>
       <use x="152.832031" xlink:href="#DejaVuSans-116"/>
       <use x="192.041016" xlink:href="#DejaVuSans-95"/>
       <use x="242.041016" xlink:href="#DejaVuSans-80"/>
       <use x="302.34375" xlink:href="#DejaVuSans-82"/>
      </g>
     </g>
    </g>
    <g id="xtick_2">
     <g id="line2d_2">
      <g>
       <use style="stroke:#000000;stroke-width:0.8;" x="221.4" xlink:href="#ma679bf26ff" y="252"/>
      </g>
     </g>
     <g id="text_2">
      <!-- test_MDN -->
      <defs>
       <path d="M 9.8125 72.90625 
L 24.515625 72.90625 
L 43.109375 23.296875 
L 61.8125 72.90625 
L 76.515625 72.90625 
L 76.515625 0 
L 66.890625 0 
L 66.890625 64.015625 
L 48.09375 14.015625 
L 38.1875 14.015625 
L 19.390625 64.015625 
L 19.390625 0 
L 9.8125 0 
z
" id="DejaVuSans-77"/>
       <path d="M 19.671875 64.796875 
L 19.671875 8.109375 
L 31.59375 8.109375 
Q 46.6875 8.109375 53.6875 14.9375 
Q 60.6875 21.78125 60.6875 36.53125 
Q 60.6875 51.171875 53.6875 57.984375 
Q 46.6875 64.796875 31.59375 64.796875 
z
M 9.8125 72.90625 
L 30.078125 72.90625 
Q 51.265625 72.90625 61.171875 64.09375 
Q 71.09375 55.28125 71.09375 36.53125 
Q 71.09375 17.671875 61.125 8.828125 
Q 51.171875 0 30.078125 0 
L 9.8125 0 
z
" id="DejaVuSans-68"/>
       <path d="M 9.8125 72.90625 
L 23.09375 72.90625 
L 55.421875 11.921875 
L 55.421875 72.90625 
L 64.984375 72.90625 
L 64.984375 0 
L 51.703125 0 
L 19.390625 60.984375 
L 19.390625 0 
L 9.8125 0 
z
" id="DejaVuSans-78"/>
      </defs>
      <g transform="translate(197.39375 266.320312)scale(0.1 -0.1)">
       <use xlink:href="#DejaVuSans-116"/>
       <use x="39.208984" xlink:href="#DejaVuSans-101"/>
       <use x="100.732422" xlink:href="#DejaVuSans-115"/>
       <use x="152.832031" xlink:href="#DejaVuSans-116"/>
       <use x="192.041016" xlink:href="#DejaVuSans-95"/>
       <use x="242.041016" xlink:href="#DejaVuSans-77"/>
       <use x="328.320312" xlink:href="#DejaVuSans-68"/>
       <use x="405.322266" xlink:href="#DejaVuSans-78"/>
      </g>
     </g>
    </g>
    <g id="xtick_3">
     <g id="line2d_3">
      <g>
       <use style="stroke:#000000;stroke-width:0.8;" x="333" xlink:href="#ma679bf26ff" y="252"/>
      </g>
     </g>
     <g id="text_3">
      <!-- test_aDN -->
      <defs>
       <path d="M 34.28125 27.484375 
Q 23.390625 27.484375 19.1875 25 
Q 14.984375 22.515625 14.984375 16.5 
Q 14.984375 11.71875 18.140625 8.90625 
Q 21.296875 6.109375 26.703125 6.109375 
Q 34.1875 6.109375 38.703125 11.40625 
Q 43.21875 16.703125 43.21875 25.484375 
L 43.21875 27.484375 
z
M 52.203125 31.203125 
L 52.203125 0 
L 43.21875 0 
L 43.21875 8.296875 
Q 40.140625 3.328125 35.546875 0.953125 
Q 30.953125 -1.421875 24.3125 -1.421875 
Q 15.921875 -1.421875 10.953125 3.296875 
Q 6 8.015625 6 15.921875 
Q 6 25.140625 12.171875 29.828125 
Q 18.359375 34.515625 30.609375 34.515625 
L 43.21875 34.515625 
L 43.21875 35.40625 
Q 43.21875 41.609375 39.140625 45 
Q 35.0625 48.390625 27.6875 48.390625 
Q 23 48.390625 18.546875 47.265625 
Q 14.109375 46.140625 10.015625 43.890625 
L 10.015625 52.203125 
Q 14.9375 54.109375 19.578125 55.046875 
Q 24.21875 56 28.609375 56 
Q 40.484375 56 46.34375 49.84375 
Q 52.203125 43.703125 52.203125 31.203125 
z
" id="DejaVuSans-97"/>
      </defs>
      <g transform="translate(310.24375 266.320312)scale(0.1 -0.1)">
       <use xlink:href="#DejaVuSans-116"/>
       <use x="39.208984" xlink:href="#DejaVuSans-101"/>
       <use x="100.732422" xlink:href="#DejaVuSans-115"/>
       <use x="152.832031" xlink:href="#DejaVuSans-116"/>
       <use x="192.041016" xlink:href="#DejaVuSans-95"/>
       <use x="242.041016" xlink:href="#DejaVuSans-97"/>
       <use x="303.320312" xlink:href="#DejaVuSans-68"/>
       <use x="380.322266" xlink:href="#DejaVuSans-78"/>
      </g>
     </g>
    </g>
    <g id="text_4">
     <!-- test -->
     <g transform="translate(211.798438 280.276563)scale(0.1 -0.1)">
      <use xlink:href="#DejaVuSans-116"/>
      <use x="39.208984" xlink:href="#DejaVuSans-101"/>
      <use x="100.732422" xlink:href="#DejaVuSans-115"/>
      <use x="152.832031" xlink:href="#DejaVuSans-116"/>
     </g>
    </g>
   </g>
   <g id="matplotlib.axis_2">
    <g id="ytick_1">
     <g id="line2d_4">
      <defs>
       <path d="M 0 0 
L -3.5 0 
" id="m623f251d31" style="stroke:#000000;stroke-width:0.8;"/>
      </defs>
      <g>
       <use style="stroke:#000000;stroke-width:0.8;" x="54" xlink:href="#m623f251d31" y="252"/>
      </g>
     </g>
     <g id="text_5">
      <!-- 0.000 -->
      <defs>
       <path d="M 31.78125 66.40625 
Q 24.171875 66.40625 20.328125 58.90625 
Q 16.5 51.421875 16.5 36.375 
Q 16.5 21.390625 20.328125 13.890625 
Q 24.171875 6.390625 31.78125 6.390625 
Q 39.453125 6.390625 43.28125 13.890625 
Q 47.125 21.390625 47.125 36.375 
Q 47.125 51.421875 43.28125 58.90625 
Q 39.453125 66.40625 31.78125 66.40625 
z
M 31.78125 74.21875 
Q 44.046875 74.21875 50.515625 64.515625 
Q 56.984375 54.828125 56.984375 36.375 
Q 56.984375 17.96875 50.515625 8.265625 
Q 44.046875 -1.421875 31.78125 -1.421875 
Q 19.53125 -1.421875 13.0625 8.265625 
Q 6.59375 17.96875 6.59375 36.375 
Q 6.59375 54.828125 13.0625 64.515625 
Q 19.53125 74.21875 31.78125 74.21875 
z
" id="DejaVuSans-48"/>
       <path d="M 10.6875 12.40625 
L 21 12.40625 
L 21 0 
L 10.6875 0 
z
" id="DejaVuSans-46"/>
      </defs>
      <g transform="translate(18.371875 255.799219)scale(0.1 -0.1)">
       <use xlink:href="#DejaVuSans-48"/>
       <use x="63.623047" xlink:href="#DejaVuSans-46"/>
       <use x="95.410156" xlink:href="#DejaVuSans-48"/>
       <use x="159.033203" xlink:href="#DejaVuSans-48"/>
       <use x="222.65625" xlink:href="#DejaVuSans-48"/>
      </g>
     </g>
    </g>
    <g id="ytick_2">
     <g id="line2d_5">
      <g>
       <use style="stroke:#000000;stroke-width:0.8;" x="54" xlink:href="#m623f251d31" y="224.82"/>
      </g>
     </g>
     <g id="text_6">
      <!-- 0.025 -->
      <defs>
       <path d="M 19.1875 8.296875 
L 53.609375 8.296875 
L 53.609375 0 
L 7.328125 0 
L 7.328125 8.296875 
Q 12.9375 14.109375 22.625 23.890625 
Q 32.328125 33.6875 34.8125 36.53125 
Q 39.546875 41.84375 41.421875 45.53125 
Q 43.3125 49.21875 43.3125 52.78125 
Q 43.3125 58.59375 39.234375 62.25 
Q 35.15625 65.921875 28.609375 65.921875 
Q 23.96875 65.921875 18.8125 64.3125 
Q 13.671875 62.703125 7.8125 59.421875 
L 7.8125 69.390625 
Q 13.765625 71.78125 18.9375 73 
Q 24.125 74.21875 28.421875 74.21875 
Q 39.75 74.21875 46.484375 68.546875 
Q 53.21875 62.890625 53.21875 53.421875 
Q 53.21875 48.921875 51.53125 44.890625 
Q 49.859375 40.875 45.40625 35.40625 
Q 44.1875 33.984375 37.640625 27.21875 
Q 31.109375 20.453125 19.1875 8.296875 
z
" id="DejaVuSans-50"/>
       <path d="M 10.796875 72.90625 
L 49.515625 72.90625 
L 49.515625 64.59375 
L 19.828125 64.59375 
L 19.828125 46.734375 
Q 21.96875 47.46875 24.109375 47.828125 
Q 26.265625 48.1875 28.421875 48.1875 
Q 40.625 48.1875 47.75 41.5 
Q 54.890625 34.8125 54.890625 23.390625 
Q 54.890625 11.625 47.5625 5.09375 
Q 40.234375 -1.421875 26.90625 -1.421875 
Q 22.3125 -1.421875 17.546875 -0.640625 
Q 12.796875 0.140625 7.71875 1.703125 
L 7.71875 11.625 
Q 12.109375 9.234375 16.796875 8.0625 
Q 21.484375 6.890625 26.703125 6.890625 
Q 35.15625 6.890625 40.078125 11.328125 
Q 45.015625 15.765625 45.015625 23.390625 
Q 45.015625 31 40.078125 35.4375 
Q 35.15625 39.890625 26.703125 39.890625 
Q 22.75 39.890625 18.8125 39.015625 
Q 14.890625 38.140625 10.796875 36.28125 
z
" id="DejaVuSans-53"/>
      </defs>
      <g transform="translate(18.371875 228.619219)scale(0.1 -0.1)">
       <use xlink:href="#DejaVuSans-48"/>
       <use x="63.623047" xlink:href="#DejaVuSans-46"/>
       <use x="95.410156" xlink:href="#DejaVuSans-48"/>
       <use x="159.033203" xlink:href="#DejaVuSans-50"/>
       <use x="222.65625" xlink:href="#DejaVuSans-53"/>
      </g>
     </g>
    </g>
    <g id="ytick_3">
     <g id="line2d_6">
      <g>
       <use style="stroke:#000000;stroke-width:0.8;" x="54" xlink:href="#m623f251d31" y="197.64"/>
      </g>
     </g>
     <g id="text_7">
      <!-- 0.050 -->
      <g transform="translate(18.371875 201.439219)scale(0.1 -0.1)">
       <use xlink:href="#DejaVuSans-48"/>
       <use x="63.623047" xlink:href="#DejaVuSans-46"/>
       <use x="95.410156" xlink:href="#DejaVuSans-48"/>
       <use x="159.033203" xlink:href="#DejaVuSans-53"/>
       <use x="222.65625" xlink:href="#DejaVuSans-48"/>
      </g>
     </g>
    </g>
    <g id="ytick_4">
     <g id="line2d_7">
      <g>
       <use style="stroke:#000000;stroke-width:0.8;" x="54" xlink:href="#m623f251d31" y="170.46"/>
      </g>
     </g>
     <g id="text_8">
      <!-- 0.075 -->
      <defs>
       <path d="M 8.203125 72.90625 
L 55.078125 72.90625 
L 55.078125 68.703125 
L 28.609375 0 
L 18.3125 0 
L 43.21875 64.59375 
L 8.203125 64.59375 
z
" id="DejaVuSans-55"/>
      </defs>
      <g transform="translate(18.371875 174.259219)scale(0.1 -0.1)">
       <use xlink:href="#DejaVuSans-48"/>
       <use x="63.623047" xlink:href="#DejaVuSans-46"/>
       <use x="95.410156" xlink:href="#DejaVuSans-48"/>
       <use x="159.033203" xlink:href="#DejaVuSans-55"/>
       <use x="222.65625" xlink:href="#DejaVuSans-53"/>
      </g>
     </g>
    </g>
    <g id="ytick_5">
     <g id="line2d_8">
      <g>
       <use style="stroke:#000000;stroke-width:0.8;" x="54" xlink:href="#m623f251d31" y="143.28"/>
      </g>
     </g>
     <g id="text_9">
      <!-- 0.100 -->
      <defs>
       <path d="M 12.40625 8.296875 
L 28.515625 8.296875 
L 28.515625 63.921875 
L 10.984375 60.40625 
L 10.984375 69.390625 
L 28.421875 72.90625 
L 38.28125 72.90625 
L 38.28125 8.296875 
L 54.390625 8.296875 
L 54.390625 0 
L 12.40625 0 
z
" id="DejaVuSans-49"/>
      </defs>
      <g transform="translate(18.371875 147.079219)scale(0.1 -0.1)">
       <use xlink:href="#DejaVuSans-48"/>
       <use x="63.623047" xlink:href="#DejaVuSans-46"/>
       <use x="95.410156" xlink:href="#DejaVuSans-49"/>
       <use x="159.033203" xlink:href="#DejaVuSans-48"/>
       <use x="222.65625" xlink:href="#DejaVuSans-48"/>
      </g>
     </g>
    </g>
    <g id="ytick_6">
     <g id="line2d_9">
      <g>
       <use style="stroke:#000000;stroke-width:0.8;" x="54" xlink:href="#m623f251d31" y="116.1"/>
      </g>
     </g>
     <g id="text_10">
      <!-- 0.125 -->
      <g transform="translate(18.371875 119.899219)scale(0.1 -0.1)">
       <use xlink:href="#DejaVuSans-48"/>
       <use x="63.623047" xlink:href="#DejaVuSans-46"/>
       <use x="95.410156" xlink:href="#DejaVuSans-49"/>
       <use x="159.033203" xlink:href="#DejaVuSans-50"/>
       <use x="222.65625" xlink:href="#DejaVuSans-53"/>
      </g>
     </g>
    </g>
    <g id="ytick_7">
     <g id="line2d_10">
      <g>
       <use style="stroke:#000000;stroke-width:0.8;" x="54" xlink:href="#m623f251d31" y="88.92"/>
      </g>
     </g>
     <g id="text_11">
      <!-- 0.150 -->
      <g transform="translate(18.371875 92.719219)scale(0.1 -0.1)">
       <use xlink:href="#DejaVuSans-48"/>
       <use x="63.623047" xlink:href="#DejaVuSans-46"/>
       <use x="95.410156" xlink:href="#DejaVuSans-49"/>
       <use x="159.033203" xlink:href="#DejaVuSans-53"/>
       <use x="222.65625" xlink:href="#DejaVuSans-48"/>
      </g>
     </g>
    </g>
    <g id="ytick_8">
     <g id="line2d_11">
      <g>
       <use style="stroke:#000000;stroke-width:0.8;" x="54" xlink:href="#m623f251d31" y="61.74"/>
      </g>
     </g>
     <g id="text_12">
      <!-- 0.175 -->
      <g transform="translate(18.371875 65.539219)scale(0.1 -0.1)">
       <use xlink:href="#DejaVuSans-48"/>
       <use x="63.623047" xlink:href="#DejaVuSans-46"/>
       <use x="95.410156" xlink:href="#DejaVuSans-49"/>
       <use x="159.033203" xlink:href="#DejaVuSans-55"/>
       <use x="222.65625" xlink:href="#DejaVuSans-53"/>
      </g>
     </g>
    </g>
    <g id="ytick_9">
     <g id="line2d_12">
      <g>
       <use style="stroke:#000000;stroke-width:0.8;" x="54" xlink:href="#m623f251d31" y="34.56"/>
      </g>
     </g>
     <g id="text_13">
      <!-- 0.200 -->
      <g transform="translate(18.371875 38.359219)scale(0.1 -0.1)">
       <use xlink:href="#DejaVuSans-48"/>
       <use x="63.623047" xlink:href="#DejaVuSans-46"/>
       <use x="95.410156" xlink:href="#DejaVuSans-50"/>
       <use x="159.033203" xlink:href="#DejaVuSans-48"/>
       <use x="222.65625" xlink:href="#DejaVuSans-48"/>
      </g>
     </g>
    </g>
    <g id="text_14">
     <!-- value -->
     <defs>
      <path d="M 2.984375 54.6875 
L 12.5 54.6875 
L 29.59375 8.796875 
L 46.6875 54.6875 
L 56.203125 54.6875 
L 35.6875 0 
L 23.484375 0 
z
" id="DejaVuSans-118"/>
      <path d="M 9.421875 75.984375 
L 18.40625 75.984375 
L 18.40625 0 
L 9.421875 0 
z
" id="DejaVuSans-108"/>
      <path d="M 8.5 21.578125 
L 8.5 54.6875 
L 17.484375 54.6875 
L 17.484375 21.921875 
Q 17.484375 14.15625 20.5 10.265625 
Q 23.53125 6.390625 29.59375 6.390625 
Q 36.859375 6.390625 41.078125 11.03125 
Q 45.3125 15.671875 45.3125 23.6875 
L 45.3125 54.6875 
L 54.296875 54.6875 
L 54.296875 0 
L 45.3125 0 
L 45.3125 8.40625 
Q 42.046875 3.421875 37.71875 1 
Q 33.40625 -1.421875 27.6875 -1.421875 
Q 18.265625 -1.421875 13.375 4.4375 
Q 8.5 10.296875 8.5 21.578125 
z
M 31.109375 56 
z
" id="DejaVuSans-117"/>
     </defs>
     <g transform="translate(12.292187 156.937813)rotate(-90)scale(0.1 -0.1)">
      <use xlink:href="#DejaVuSans-118"/>
      <use x="59.179688" xlink:href="#DejaVuSans-97"/>
      <use x="120.458984" xlink:href="#DejaVuSans-108"/>
      <use x="148.242188" xlink:href="#DejaVuSans-117"/>
      <use x="211.621094" xlink:href="#DejaVuSans-101"/>
     </g>
    </g>
   </g>
   <g id="line2d_13">
    <path clip-path="url(#p50ce61fcb7)" d="M 109.8 248.490487 
L 109.8 181.789743 
" style="fill:none;stroke:#3d3d3d;stroke-linecap:square;stroke-width:1.5;"/>
   </g>
   <g id="line2d_14">
    <path clip-path="url(#p50ce61fcb7)" d="M 109.8 235.38549 
L 109.8 213.931798 
" style="fill:none;stroke:#3d3d3d;stroke-linecap:square;stroke-width:4.5;"/>
   </g>
   <g id="line2d_15">
    <path clip-path="url(#p50ce61fcb7)" d="M 221.4 250.622273 
L 221.4 227.131509 
" style="fill:none;stroke:#3d3d3d;stroke-linecap:square;stroke-width:1.5;"/>
   </g>
   <g id="line2d_16">
    <path clip-path="url(#p50ce61fcb7)" d="M 221.4 246.405364 
L 221.4 238.682781 
" style="fill:none;stroke:#3d3d3d;stroke-linecap:square;stroke-width:4.5;"/>
   </g>
   <g id="line2d_17">
    <path clip-path="url(#p50ce61fcb7)" d="M 333 250.24691 
L 333 186.584734 
" style="fill:none;stroke:#3d3d3d;stroke-linecap:square;stroke-width:1.5;"/>
   </g>
   <g id="line2d_18">
    <path clip-path="url(#p50ce61fcb7)" d="M 333 238.951624 
L 333 217.991601 
" style="fill:none;stroke:#3d3d3d;stroke-linecap:square;stroke-width:4.5;"/>
   </g>
   <g id="patch_3">
    <path d="M 54 252 
L 54 34.56 
" style="fill:none;stroke:#000000;stroke-linecap:square;stroke-linejoin:miter;stroke-width:0.8;"/>
   </g>
   <g id="patch_4">
    <path d="M 388.8 252 
L 388.8 34.56 
" style="fill:none;stroke:#000000;stroke-linecap:square;stroke-linejoin:miter;stroke-width:0.8;"/>
   </g>
   <g id="patch_5">
    <path d="M 54 252 
L 388.8 252 
" style="fill:none;stroke:#000000;stroke-linecap:square;stroke-linejoin:miter;stroke-width:0.8;"/>
   </g>
   <g id="patch_6">
    <path d="M 54 34.56 
L 388.8 34.56 
" style="fill:none;stroke:#000000;stroke-linecap:square;stroke-linejoin:miter;stroke-width:0.8;"/>
   </g>
   <g id="PathCollection_1">
    <defs>
     <path d="M 0 1.5 
C 0.397805 1.5 0.77937 1.341951 1.06066 1.06066 
C 1.341951 0.77937 1.5 0.397805 1.5 0 
C 1.5 -0.397805 1.341951 -0.77937 1.06066 -1.06066 
C 0.77937 -1.341951 0.397805 -1.5 0 -1.5 
C -0.397805 -1.5 -0.77937 -1.341951 -1.06066 -1.06066 
C -1.341951 -0.77937 -1.5 -0.397805 -1.5 0 
C -1.5 0.397805 -1.341951 0.77937 -1.06066 1.06066 
C -0.77937 1.341951 -0.397805 1.5 0 1.5 
z
" id="m136d7a57af" style="stroke:#3d3d3d;"/>
    </defs>
    <g clip-path="url(#p50ce61fcb7)">
     <use style="fill:#ffffff;stroke:#3d3d3d;" x="109.8" xlink:href="#m136d7a57af" y="227.61451"/>
    </g>
   </g>
   <g id="PathCollection_2">
    <g clip-path="url(#p50ce61fcb7)">
     <use style="fill:#ffffff;stroke:#3d3d3d;" x="221.4" xlink:href="#m136d7a57af" y="243.462957"/>
    </g>
   </g>
   <g id="PathCollection_3">
    <g clip-path="url(#p50ce61fcb7)">
     <use style="fill:#ffffff;stroke:#3d3d3d;" x="333" xlink:href="#m136d7a57af" y="230.882529"/>
    </g>
   </g>
  </g>
 </g>
 <defs>
  <clipPath id="p50ce61fcb7">
   <rect height="217.44" width="334.8" x="54" y="34.56"/>
  </clipPath>
 </defs>
</svg>
