<?xml version="1.0" encoding="utf-8" standalone="no"?>
<!DOCTYPE svg PUBLIC "-//W3C//DTD SVG 1.1//EN"
  "http://www.w3.org/Graphics/SVG/1.1/DTD/svg11.dtd">
<!-- Created with matplotlib (https://matplotlib.org/) -->
<svg height="288pt" version="1.1" viewBox="0 0 432 288" width="432pt" xmlns="http://www.w3.org/2000/svg" xmlns:xlink="http://www.w3.org/1999/xlink">
 <defs>
  <style type="text/css">
*{stroke-linecap:butt;stroke-linejoin:round;}
  </style>
 </defs>
 <g id="figure_1">
  <g id="patch_1">
   <path d="M 0 288 
L 432 288 
L 432 0 
L 0 0 
z
" style="fill:#ffffff;"/>
  </g>
  <g id="axes_1">
   <g id="patch_2">
    <path d="M 54 252 
L 388.8 252 
L 388.8 34.56 
L 54 34.56 
z
" style="fill:#ffffff;"/>
   </g>
   <g id="PolyCollection_1">
    <defs>
     <path d="M 110.115785 -27.837588 
L 109.484215 -27.837588 
L 109.288709 -28.997061 
L 108.997456 -30.156534 
L 108.578589 -31.316008 
L 107.997299 -32.475481 
L 107.219278 -33.634955 
L 106.215624 -34.794428 
L 104.968814 -35.953902 
L 103.478904 -37.113375 
L 101.768811 -38.272848 
L 99.887321 -39.432322 
L 97.908694 -40.591795 
L 95.928175 -41.751269 
L 94.053567 -42.910742 
L 92.393843 -44.070216 
L 91.046603 -45.229689 
L 90.086508 -46.389162 
L 89.556812 -47.548636 
L 89.465443 -48.708109 
L 89.786194 -49.867583 
L 90.464513 -51.027056 
L 91.426525 -52.18653 
L 92.589418 -53.346003 
L 93.871308 -54.505477 
L 95.199107 -55.66495 
L 96.513546 -56.824423 
L 97.771221 -57.983897 
L 98.944106 -59.14337 
L 100.017314 -60.302844 
L 100.986004 -61.462317 
L 101.852172 -62.621791 
L 102.621885 -63.781264 
L 103.303197 -64.940737 
L 103.904801 -66.100211 
L 104.435293 -67.259684 
L 104.902865 -68.419158 
L 105.315233 -69.578631 
L 105.67965 -70.738105 
L 106.0029 -71.897578 
L 106.29124 -73.057051 
L 106.550299 -74.216525 
L 106.784954 -75.375998 
L 106.999239 -76.535472 
L 107.196315 -77.694945 
L 107.378507 -78.854419 
L 107.547414 -80.013892 
L 107.704065 -81.173365 
L 107.849091 -82.332839 
L 107.982877 -83.492312 
L 108.105687 -84.651786 
L 108.217739 -85.811259 
L 108.319245 -86.970733 
L 108.410421 -88.130206 
L 108.491499 -89.289679 
L 108.562749 -90.449153 
L 108.624515 -91.608626 
L 108.677281 -92.7681 
L 108.721739 -93.927573 
L 108.758836 -95.087047 
L 108.7898 -96.24652 
L 108.816107 -97.405993 
L 108.839395 -98.565467 
L 108.861332 -99.72494 
L 108.883459 -100.884414 
L 108.907042 -102.043887 
L 108.932947 -103.203361 
L 108.961578 -104.362834 
L 108.992878 -105.522307 
L 109.026391 -106.681781 
L 109.061376 -107.841254 
L 109.096938 -109.000728 
L 109.132173 -110.160201 
L 109.166281 -111.319675 
L 109.19866 -112.479148 
L 109.228956 -113.638622 
L 109.257082 -114.798095 
L 109.283201 -115.957568 
L 109.307693 -117.117042 
L 109.331096 -118.276515 
L 109.354038 -119.435989 
L 109.377162 -120.595462 
L 109.401056 -121.754936 
L 109.42618 -122.914409 
L 109.452816 -124.073882 
L 109.48103 -125.233356 
L 109.510662 -126.392829 
L 109.541333 -127.552303 
L 109.572486 -128.711776 
L 109.603435 -129.87125 
L 109.633439 -131.030723 
L 109.661774 -132.190196 
L 109.687804 -133.34967 
L 109.711039 -134.509143 
L 109.731174 -135.668617 
L 109.748098 -136.82809 
L 109.761888 -137.987564 
L 109.772771 -139.147037 
L 109.781089 -140.30651 
L 109.787241 -141.465984 
L 109.791642 -142.625457 
L 109.808358 -142.625457 
L 109.808358 -142.625457 
L 109.812759 -141.465984 
L 109.818911 -140.30651 
L 109.827229 -139.147037 
L 109.838112 -137.987564 
L 109.851902 -136.82809 
L 109.868826 -135.668617 
L 109.888961 -134.509143 
L 109.912196 -133.34967 
L 109.938226 -132.190196 
L 109.966561 -131.030723 
L 109.996565 -129.87125 
L 110.027514 -128.711776 
L 110.058667 -127.552303 
L 110.089338 -126.392829 
L 110.11897 -125.233356 
L 110.147184 -124.073882 
L 110.17382 -122.914409 
L 110.198944 -121.754936 
L 110.222838 -120.595462 
L 110.245962 -119.435989 
L 110.268904 -118.276515 
L 110.292307 -117.117042 
L 110.316799 -115.957568 
L 110.342918 -114.798095 
L 110.371044 -113.638622 
L 110.40134 -112.479148 
L 110.433719 -111.319675 
L 110.467827 -110.160201 
L 110.503062 -109.000728 
L 110.538624 -107.841254 
L 110.573609 -106.681781 
L 110.607122 -105.522307 
L 110.638422 -104.362834 
L 110.667053 -103.203361 
L 110.692958 -102.043887 
L 110.716541 -100.884414 
L 110.738668 -99.72494 
L 110.760605 -98.565467 
L 110.783893 -97.405993 
L 110.8102 -96.24652 
L 110.841164 -95.087047 
L 110.878261 -93.927573 
L 110.922719 -92.7681 
L 110.975485 -91.608626 
L 111.037251 -90.449153 
L 111.108501 -89.289679 
L 111.189579 -88.130206 
L 111.280755 -86.970733 
L 111.382261 -85.811259 
L 111.494313 -84.651786 
L 111.617123 -83.492312 
L 111.750909 -82.332839 
L 111.895935 -81.173365 
L 112.052586 -80.013892 
L 112.221493 -78.854419 
L 112.403685 -77.694945 
L 112.600761 -76.535472 
L 112.815046 -75.375998 
L 113.049701 -74.216525 
L 113.30876 -73.057051 
L 113.5971 -71.897578 
L 113.92035 -70.738105 
L 114.284767 -69.578631 
L 114.697135 -68.419158 
L 115.164707 -67.259684 
L 115.695199 -66.100211 
L 116.296803 -64.940737 
L 116.978115 -63.781264 
L 117.747828 -62.621791 
L 118.613996 -61.462317 
L 119.582686 -60.302844 
L 120.655894 -59.14337 
L 121.828779 -57.983897 
L 123.086454 -56.824423 
L 124.400893 -55.66495 
L 125.728692 -54.505477 
L 127.010582 -53.346003 
L 128.173475 -52.18653 
L 129.135487 -51.027056 
L 129.813806 -49.867583 
L 130.134557 -48.708109 
L 130.043188 -47.548636 
L 129.513492 -46.389162 
L 128.553397 -45.229689 
L 127.206157 -44.070216 
L 125.546433 -42.910742 
L 123.671825 -41.751269 
L 121.691306 -40.591795 
L 119.712679 -39.432322 
L 117.831189 -38.272848 
L 116.121096 -37.113375 
L 114.631186 -35.953902 
L 113.384376 -34.794428 
L 112.380722 -33.634955 
L 111.602701 -32.475481 
L 111.021411 -31.316008 
L 110.602544 -30.156534 
L 110.311291 -28.997061 
L 110.115785 -27.837588 
z
" id="m52ee122d4b" style="stroke:#3d3d3d;stroke-width:1.5;"/>
    </defs>
    <g clip-path="url(#pd7b3921b15)">
     <use style="fill:#3274a1;stroke:#3d3d3d;stroke-width:1.5;" x="0" xlink:href="#m52ee122d4b" y="288"/>
    </g>
   </g>
   <g id="PolyCollection_2">
    <defs>
     <path d="M 221.62039 -31.661944 
L 221.17961 -31.661944 
L 221.065187 -32.343802 
L 220.903186 -33.025661 
L 220.679711 -33.70752 
L 220.379306 -34.389379 
L 219.985754 -35.071237 
L 219.483203 -35.753096 
L 218.857599 -36.434955 
L 218.098275 -37.116814 
L 217.199539 -37.798673 
L 216.162046 -38.480531 
L 214.993731 -39.16239 
L 213.710126 -39.844249 
L 212.333951 -40.526108 
L 210.893974 -41.207966 
L 209.423241 -41.889825 
L 207.956889 -42.571684 
L 206.529799 -43.253543 
L 205.174407 -43.935401 
L 203.918918 -44.61726 
L 202.786117 -45.299119 
L 201.792863 -45.980978 
L 200.950234 -46.662836 
L 200.264173 -47.344695 
L 199.736464 -48.026554 
L 199.365781 -48.708413 
L 199.148624 -49.390271 
L 199.08 -50.07213 
L 199.153775 -50.753989 
L 199.362726 -51.435848 
L 199.698379 -52.117706 
L 200.150766 -52.799565 
L 200.708234 -53.481424 
L 201.357425 -54.163283 
L 202.083478 -54.845141 
L 202.870464 -55.527 
L 203.701997 -56.208859 
L 204.561944 -56.890718 
L 205.435103 -57.572576 
L 206.307786 -58.254435 
L 207.168212 -58.936294 
L 208.006693 -59.618153 
L 208.815626 -60.300012 
L 209.589326 -60.98187 
L 210.323766 -61.663729 
L 211.016294 -62.345588 
L 211.665364 -63.027447 
L 212.270335 -63.709305 
L 212.831337 -64.391164 
L 213.349201 -65.073023 
L 213.825432 -65.754882 
L 214.2622 -66.43674 
L 214.662313 -67.118599 
L 215.029161 -67.800458 
L 215.366611 -68.482317 
L 215.678849 -69.164175 
L 215.970176 -69.846034 
L 216.244771 -70.527893 
L 216.506448 -71.209752 
L 216.75842 -71.89161 
L 217.003114 -72.573469 
L 217.242056 -73.255328 
L 217.475841 -73.937187 
L 217.704201 -74.619045 
L 217.926164 -75.300904 
L 218.140285 -75.982763 
L 218.344924 -76.664622 
L 218.538527 -77.34648 
L 218.719874 -78.028339 
L 218.888276 -78.710198 
L 219.043677 -79.392057 
L 219.186669 -80.073915 
L 219.318417 -80.755774 
L 219.440521 -81.437633 
L 219.554827 -82.119492 
L 219.663235 -82.801351 
L 219.76752 -83.483209 
L 219.869192 -84.165068 
L 219.969408 -84.846927 
L 220.068939 -85.528786 
L 220.16818 -86.210644 
L 220.267188 -86.892503 
L 220.365743 -87.574362 
L 220.463403 -88.256221 
L 220.559557 -88.938079 
L 220.653466 -89.619938 
L 220.744301 -90.301797 
L 220.831178 -90.983656 
L 220.913197 -91.665514 
L 220.989503 -92.347373 
L 221.059335 -93.029232 
L 221.122095 -93.711091 
L 221.177399 -94.392949 
L 221.22511 -95.074808 
L 221.265359 -95.756667 
L 221.298519 -96.438526 
L 221.325179 -97.120384 
L 221.346075 -97.802243 
L 221.362034 -98.484102 
L 221.373903 -99.165961 
L 221.426097 -99.165961 
L 221.426097 -99.165961 
L 221.437966 -98.484102 
L 221.453925 -97.802243 
L 221.474821 -97.120384 
L 221.501481 -96.438526 
L 221.534641 -95.756667 
L 221.57489 -95.074808 
L 221.622601 -94.392949 
L 221.677905 -93.711091 
L 221.740665 -93.029232 
L 221.810497 -92.347373 
L 221.886803 -91.665514 
L 221.968822 -90.983656 
L 222.055699 -90.301797 
L 222.146534 -89.619938 
L 222.240443 -88.938079 
L 222.336597 -88.256221 
L 222.434257 -87.574362 
L 222.532812 -86.892503 
L 222.63182 -86.210644 
L 222.731061 -85.528786 
L 222.830592 -84.846927 
L 222.930808 -84.165068 
L 223.03248 -83.483209 
L 223.136765 -82.801351 
L 223.245173 -82.119492 
L 223.359479 -81.437633 
L 223.481583 -80.755774 
L 223.613331 -80.073915 
L 223.756323 -79.392057 
L 223.911724 -78.710198 
L 224.080126 -78.028339 
L 224.261473 -77.34648 
L 224.455076 -76.664622 
L 224.659715 -75.982763 
L 224.873836 -75.300904 
L 225.095799 -74.619045 
L 225.324159 -73.937187 
L 225.557944 -73.255328 
L 225.796886 -72.573469 
L 226.04158 -71.89161 
L 226.293552 -71.209752 
L 226.555229 -70.527893 
L 226.829824 -69.846034 
L 227.121151 -69.164175 
L 227.433389 -68.482317 
L 227.770839 -67.800458 
L 228.137687 -67.118599 
L 228.5378 -66.43674 
L 228.974568 -65.754882 
L 229.450799 -65.073023 
L 229.968663 -64.391164 
L 230.529665 -63.709305 
L 231.134636 -63.027447 
L 231.783706 -62.345588 
L 232.476234 -61.663729 
L 233.210674 -60.98187 
L 233.984374 -60.300012 
L 234.793307 -59.618153 
L 235.631788 -58.936294 
L 236.492214 -58.254435 
L 237.364897 -57.572576 
L 238.238056 -56.890718 
L 239.098003 -56.208859 
L 239.929536 -55.527 
L 240.716522 -54.845141 
L 241.442575 -54.163283 
L 242.091766 -53.481424 
L 242.649234 -52.799565 
L 243.101621 -52.117706 
L 243.437274 -51.435848 
L 243.646225 -50.753989 
L 243.72 -50.07213 
L 243.651376 -49.390271 
L 243.434219 -48.708413 
L 243.063536 -48.026554 
L 242.535827 -47.344695 
L 241.849766 -46.662836 
L 241.007137 -45.980978 
L 240.013883 -45.299119 
L 238.881082 -44.61726 
L 237.625593 -43.935401 
L 236.270201 -43.253543 
L 234.843111 -42.571684 
L 233.376759 -41.889825 
L 231.906026 -41.207966 
L 230.466049 -40.526108 
L 229.089874 -39.844249 
L 227.806269 -39.16239 
L 226.637954 -38.480531 
L 225.600461 -37.798673 
L 224.701725 -37.116814 
L 223.942401 -36.434955 
L 223.316797 -35.753096 
L 222.814246 -35.071237 
L 222.420694 -34.389379 
L 222.120289 -33.70752 
L 221.896814 -33.025661 
L 221.734813 -32.343802 
L 221.62039 -31.661944 
z
" id="m665313f086" style="stroke:#3d3d3d;stroke-width:1.5;"/>
    </defs>
    <g clip-path="url(#pd7b3921b15)">
     <use style="fill:#e1812c;stroke:#3d3d3d;stroke-width:1.5;" x="0" xlink:href="#m665313f086" y="288"/>
    </g>
   </g>
   <g id="PolyCollection_3">
    <defs>
     <path d="M 333.153574 -26.515392 
L 332.846426 -26.515392 
L 332.769225 -27.539137 
L 332.660488 -28.562881 
L 332.510865 -29.586626 
L 332.309708 -30.61037 
L 332.045443 -31.634115 
L 331.706161 -32.657859 
L 331.280415 -33.681604 
L 330.758192 -34.705349 
L 330.131989 -35.729093 
L 329.397899 -36.752838 
L 328.556588 -37.776582 
L 327.614052 -38.800327 
L 326.582062 -39.824072 
L 325.478215 -40.847816 
L 324.325561 -41.871561 
L 323.151823 -42.895305 
L 321.988237 -43.91905 
L 320.868104 -44.942794 
L 319.825132 -45.966539 
L 318.891666 -46.990284 
L 318.096913 -48.014028 
L 317.465274 -49.037773 
L 317.01487 -50.061517 
L 316.756398 -51.085262 
L 316.692405 -52.109006 
L 316.817083 -53.132751 
L 317.116637 -54.156496 
L 317.570252 -55.18024 
L 318.1516 -56.203985 
L 318.83078 -57.227729 
L 319.5765 -58.251474 
L 320.3583 -59.275219 
L 321.148565 -60.298963 
L 321.924135 -61.322708 
L 322.66734 -62.346452 
L 323.3664 -63.370197 
L 324.015189 -64.393941 
L 324.612449 -65.417686 
L 325.160625 -66.441431 
L 325.6645 -67.465175 
L 326.12982 -68.48892 
L 326.562098 -69.512664 
L 326.965703 -70.536409 
L 327.343315 -71.560153 
L 327.695742 -72.583898 
L 328.022083 -73.607643 
L 328.320133 -74.631387 
L 328.586959 -75.655132 
L 328.819544 -76.678876 
L 329.015397 -77.702621 
L 329.173092 -78.726366 
L 329.29266 -79.75011 
L 329.375813 -80.773855 
L 329.426011 -81.797599 
L 329.448346 -82.821344 
L 329.449292 -83.845088 
L 329.436329 -84.868833 
L 329.417469 -85.892578 
L 329.400754 -86.916322 
L 329.39373 -87.940067 
L 329.402972 -88.963811 
L 329.433681 -89.987556 
L 329.4894 -91.011301 
L 329.571861 -92.035045 
L 329.680973 -93.05879 
L 329.81496 -94.082534 
L 329.970602 -95.106279 
L 330.143587 -96.130023 
L 330.328904 -97.153768 
L 330.521273 -98.177513 
L 330.715539 -99.201257 
L 330.907037 -100.225002 
L 331.091865 -101.248746 
L 331.267074 -102.272491 
L 331.430747 -103.296235 
L 331.581975 -104.31998 
L 331.720743 -105.343725 
L 331.847743 -106.367469 
L 331.964139 -107.391214 
L 332.071319 -108.414958 
L 332.170667 -109.438703 
L 332.263376 -110.462448 
L 332.350324 -111.486192 
L 332.432022 -112.509937 
L 332.508625 -113.533681 
L 332.580002 -114.557426 
L 332.645837 -115.58117 
L 332.705746 -116.604915 
L 332.759387 -117.62866 
L 332.806545 -118.652404 
L 332.847189 -119.676149 
L 332.881491 -120.699893 
L 332.909818 -121.723638 
L 332.932693 -122.747382 
L 332.950751 -123.771127 
L 332.964683 -124.794872 
L 332.975186 -125.818616 
L 332.982922 -126.842361 
L 332.988489 -127.866105 
L 333.011511 -127.866105 
L 333.011511 -127.866105 
L 333.017078 -126.842361 
L 333.024814 -125.818616 
L 333.035317 -124.794872 
L 333.049249 -123.771127 
L 333.067307 -122.747382 
L 333.090182 -121.723638 
L 333.118509 -120.699893 
L 333.152811 -119.676149 
L 333.193455 -118.652404 
L 333.240613 -117.62866 
L 333.294254 -116.604915 
L 333.354163 -115.58117 
L 333.419998 -114.557426 
L 333.491375 -113.533681 
L 333.567978 -112.509937 
L 333.649676 -111.486192 
L 333.736624 -110.462448 
L 333.829333 -109.438703 
L 333.928681 -108.414958 
L 334.035861 -107.391214 
L 334.152257 -106.367469 
L 334.279257 -105.343725 
L 334.418025 -104.31998 
L 334.569253 -103.296235 
L 334.732926 -102.272491 
L 334.908135 -101.248746 
L 335.092963 -100.225002 
L 335.284461 -99.201257 
L 335.478727 -98.177513 
L 335.671096 -97.153768 
L 335.856413 -96.130023 
L 336.029398 -95.106279 
L 336.18504 -94.082534 
L 336.319027 -93.05879 
L 336.428139 -92.035045 
L 336.5106 -91.011301 
L 336.566319 -89.987556 
L 336.597028 -88.963811 
L 336.60627 -87.940067 
L 336.599246 -86.916322 
L 336.582531 -85.892578 
L 336.563671 -84.868833 
L 336.550708 -83.845088 
L 336.551654 -82.821344 
L 336.573989 -81.797599 
L 336.624187 -80.773855 
L 336.70734 -79.75011 
L 336.826908 -78.726366 
L 336.984603 -77.702621 
L 337.180456 -76.678876 
L 337.413041 -75.655132 
L 337.679867 -74.631387 
L 337.977917 -73.607643 
L 338.304258 -72.583898 
L 338.656685 -71.560153 
L 339.034297 -70.536409 
L 339.437902 -69.512664 
L 339.87018 -68.48892 
L 340.3355 -67.465175 
L 340.839375 -66.441431 
L 341.387551 -65.417686 
L 341.984811 -64.393941 
L 342.6336 -63.370197 
L 343.33266 -62.346452 
L 344.075865 -61.322708 
L 344.851435 -60.298963 
L 345.6417 -59.275219 
L 346.4235 -58.251474 
L 347.16922 -57.227729 
L 347.8484 -56.203985 
L 348.429748 -55.18024 
L 348.883363 -54.156496 
L 349.182917 -53.132751 
L 349.307595 -52.109006 
L 349.243602 -51.085262 
L 348.98513 -50.061517 
L 348.534726 -49.037773 
L 347.903087 -48.014028 
L 347.108334 -46.990284 
L 346.174868 -45.966539 
L 345.131896 -44.942794 
L 344.011763 -43.91905 
L 342.848177 -42.895305 
L 341.674439 -41.871561 
L 340.521785 -40.847816 
L 339.417938 -39.824072 
L 338.385948 -38.800327 
L 337.443412 -37.776582 
L 336.602101 -36.752838 
L 335.868011 -35.729093 
L 335.241808 -34.705349 
L 334.719585 -33.681604 
L 334.293839 -32.657859 
L 333.954557 -31.634115 
L 333.690292 -30.61037 
L 333.489135 -29.586626 
L 333.339512 -28.562881 
L 333.230775 -27.539137 
L 333.153574 -26.515392 
z
" id="m94f449d09a" style="stroke:#3d3d3d;stroke-width:1.5;"/>
    </defs>
    <g clip-path="url(#pd7b3921b15)">
     <use style="fill:#3a923a;stroke:#3d3d3d;stroke-width:1.5;" x="0" xlink:href="#m94f449d09a" y="288"/>
    </g>
   </g>
   <g id="matplotlib.axis_1">
    <g id="xtick_1">
     <g id="line2d_1">
      <defs>
       <path d="M 0 0 
L 0 3.5 
" id="m50ecd18f0c" style="stroke:#000000;stroke-width:0.8;"/>
      </defs>
      <g>
       <use style="stroke:#000000;stroke-width:0.8;" x="109.8" xlink:href="#m50ecd18f0c" y="252"/>
      </g>
     </g>
     <g id="text_1">
      <!-- test_PR -->
      <defs>
       <path d="M 18.3125 70.21875 
L 18.3125 54.6875 
L 36.8125 54.6875 
L 36.8125 47.703125 
L 18.3125 47.703125 
L 18.3125 18.015625 
Q 18.3125 11.328125 20.140625 9.421875 
Q 21.96875 7.515625 27.59375 7.515625 
L 36.8125 7.515625 
L 36.8125 0 
L 27.59375 0 
Q 17.1875 0 13.234375 3.875 
Q 9.28125 7.765625 9.28125 18.015625 
L 9.28125 47.703125 
L 2.6875 47.703125 
L 2.6875 54.6875 
L 9.28125 54.6875 
L 9.28125 70.21875 
z
" id="DejaVuSans-116"/>
       <path d="M 56.203125 29.59375 
L 56.203125 25.203125 
L 14.890625 25.203125 
Q 15.484375 15.921875 20.484375 11.0625 
Q 25.484375 6.203125 34.421875 6.203125 
Q 39.59375 6.203125 44.453125 7.46875 
Q 49.3125 8.734375 54.109375 11.28125 
L 54.109375 2.78125 
Q 49.265625 0.734375 44.1875 -0.34375 
Q 39.109375 -1.421875 33.890625 -1.421875 
Q 20.796875 -1.421875 13.15625 6.1875 
Q 5.515625 13.8125 5.515625 26.8125 
Q 5.515625 40.234375 12.765625 48.109375 
Q 20.015625 56 32.328125 56 
Q 43.359375 56 49.78125 48.890625 
Q 56.203125 41.796875 56.203125 29.59375 
z
M 47.21875 32.234375 
Q 47.125 39.59375 43.09375 43.984375 
Q 39.0625 48.390625 32.421875 48.390625 
Q 24.90625 48.390625 20.390625 44.140625 
Q 15.875 39.890625 15.1875 32.171875 
z
" id="DejaVuSans-101"/>
       <path d="M 44.28125 53.078125 
L 44.28125 44.578125 
Q 40.484375 46.53125 36.375 47.5 
Q 32.28125 48.484375 27.875 48.484375 
Q 21.1875 48.484375 17.84375 46.4375 
Q 14.5 44.390625 14.5 40.28125 
Q 14.5 37.15625 16.890625 35.375 
Q 19.28125 33.59375 26.515625 31.984375 
L 29.59375 31.296875 
Q 39.15625 29.25 43.1875 25.515625 
Q 47.21875 21.78125 47.21875 15.09375 
Q 47.21875 7.46875 41.1875 3.015625 
Q 35.15625 -1.421875 24.609375 -1.421875 
Q 20.21875 -1.421875 15.453125 -0.5625 
Q 10.6875 0.296875 5.421875 2 
L 5.421875 11.28125 
Q 10.40625 8.6875 15.234375 7.390625 
Q 20.0625 6.109375 24.8125 6.109375 
Q 31.15625 6.109375 34.5625 8.28125 
Q 37.984375 10.453125 37.984375 14.40625 
Q 37.984375 18.0625 35.515625 20.015625 
Q 33.0625 21.96875 24.703125 23.78125 
L 21.578125 24.515625 
Q 13.234375 26.265625 9.515625 29.90625 
Q 5.8125 33.546875 5.8125 39.890625 
Q 5.8125 47.609375 11.28125 51.796875 
Q 16.75 56 26.8125 56 
Q 31.78125 56 36.171875 55.265625 
Q 40.578125 54.546875 44.28125 53.078125 
z
" id="DejaVuSans-115"/>
       <path d="M 50.984375 -16.609375 
L 50.984375 -23.578125 
L -0.984375 -23.578125 
L -0.984375 -16.609375 
z
" id="DejaVuSans-95"/>
       <path d="M 19.671875 64.796875 
L 19.671875 37.40625 
L 32.078125 37.40625 
Q 38.96875 37.40625 42.71875 40.96875 
Q 46.484375 44.53125 46.484375 51.125 
Q 46.484375 57.671875 42.71875 61.234375 
Q 38.96875 64.796875 32.078125 64.796875 
z
M 9.8125 72.90625 
L 32.078125 72.90625 
Q 44.34375 72.90625 50.609375 67.359375 
Q 56.890625 61.8125 56.890625 51.125 
Q 56.890625 40.328125 50.609375 34.8125 
Q 44.34375 29.296875 32.078125 29.296875 
L 19.671875 29.296875 
L 19.671875 0 
L 9.8125 0 
z
" id="DejaVuSans-80"/>
       <path d="M 44.390625 34.1875 
Q 47.5625 33.109375 50.5625 29.59375 
Q 53.5625 26.078125 56.59375 19.921875 
L 66.609375 0 
L 56 0 
L 46.6875 18.703125 
Q 43.0625 26.03125 39.671875 28.421875 
Q 36.28125 30.8125 30.421875 30.8125 
L 19.671875 30.8125 
L 19.671875 0 
L 9.8125 0 
L 9.8125 72.90625 
L 32.078125 72.90625 
Q 44.578125 72.90625 50.734375 67.671875 
Q 56.890625 62.453125 56.890625 51.90625 
Q 56.890625 45.015625 53.6875 40.46875 
Q 50.484375 35.9375 44.390625 34.1875 
z
M 19.671875 64.796875 
L 19.671875 38.921875 
L 32.078125 38.921875 
Q 39.203125 38.921875 42.84375 42.21875 
Q 46.484375 45.515625 46.484375 51.90625 
Q 46.484375 58.296875 42.84375 61.546875 
Q 39.203125 64.796875 32.078125 64.796875 
z
" id="DejaVuSans-82"/>
      </defs>
      <g transform="translate(91.209375 266.320312)scale(0.1 -0.1)">
       <use xlink:href="#DejaVuSans-116"/>
       <use x="39.208984" xlink:href="#DejaVuSans-101"/>
       <use x="100.732422" xlink:href="#DejaVuSans-115"/>
       <use x="152.832031" xlink:href="#DejaVuSans-116"/>
       <use x="192.041016" xlink:href="#DejaVuSans-95"/>
       <use x="242.041016" xlink:href="#DejaVuSans-80"/>
       <use x="302.34375" xlink:href="#DejaVuSans-82"/>
      </g>
     </g>
    </g>
    <g id="xtick_2">
     <g id="line2d_2">
      <g>
       <use style="stroke:#000000;stroke-width:0.8;" x="221.4" xlink:href="#m50ecd18f0c" y="252"/>
      </g>
     </g>
     <g id="text_2">
      <!-- test_MDN -->
      <defs>
       <path d="M 9.8125 72.90625 
L 24.515625 72.90625 
L 43.109375 23.296875 
L 61.8125 72.90625 
L 76.515625 72.90625 
L 76.515625 0 
L 66.890625 0 
L 66.890625 64.015625 
L 48.09375 14.015625 
L 38.1875 14.015625 
L 19.390625 64.015625 
L 19.390625 0 
L 9.8125 0 
z
" id="DejaVuSans-77"/>
       <path d="M 19.671875 64.796875 
L 19.671875 8.109375 
L 31.59375 8.109375 
Q 46.6875 8.109375 53.6875 14.9375 
Q 60.6875 21.78125 60.6875 36.53125 
Q 60.6875 51.171875 53.6875 57.984375 
Q 46.6875 64.796875 31.59375 64.796875 
z
M 9.8125 72.90625 
L 30.078125 72.90625 
Q 51.265625 72.90625 61.171875 64.09375 
Q 71.09375 55.28125 71.09375 36.53125 
Q 71.09375 17.671875 61.125 8.828125 
Q 51.171875 0 30.078125 0 
L 9.8125 0 
z
" id="DejaVuSans-68"/>
       <path d="M 9.8125 72.90625 
L 23.09375 72.90625 
L 55.421875 11.921875 
L 55.421875 72.90625 
L 64.984375 72.90625 
L 64.984375 0 
L 51.703125 0 
L 19.390625 60.984375 
L 19.390625 0 
L 9.8125 0 
z
" id="DejaVuSans-78"/>
      </defs>
      <g transform="translate(197.39375 266.320312)scale(0.1 -0.1)">
       <use xlink:href="#DejaVuSans-116"/>
       <use x="39.208984" xlink:href="#DejaVuSans-101"/>
       <use x="100.732422" xlink:href="#DejaVuSans-115"/>
       <use x="152.832031" xlink:href="#DejaVuSans-116"/>
       <use x="192.041016" xlink:href="#DejaVuSans-95"/>
       <use x="242.041016" xlink:href="#DejaVuSans-77"/>
       <use x="328.320312" xlink:href="#DejaVuSans-68"/>
       <use x="405.322266" xlink:href="#DejaVuSans-78"/>
      </g>
     </g>
    </g>
    <g id="xtick_3">
     <g id="line2d_3">
      <g>
       <use style="stroke:#000000;stroke-width:0.8;" x="333" xlink:href="#m50ecd18f0c" y="252"/>
      </g>
     </g>
     <g id="text_3">
      <!-- test_aDN -->
      <defs>
       <path d="M 34.28125 27.484375 
Q 23.390625 27.484375 19.1875 25 
Q 14.984375 22.515625 14.984375 16.5 
Q 14.984375 11.71875 18.140625 8.90625 
Q 21.296875 6.109375 26.703125 6.109375 
Q 34.1875 6.109375 38.703125 11.40625 
Q 43.21875 16.703125 43.21875 25.484375 
L 43.21875 27.484375 
z
M 52.203125 31.203125 
L 52.203125 0 
L 43.21875 0 
L 43.21875 8.296875 
Q 40.140625 3.328125 35.546875 0.953125 
Q 30.953125 -1.421875 24.3125 -1.421875 
Q 15.921875 -1.421875 10.953125 3.296875 
Q 6 8.015625 6 15.921875 
Q 6 25.140625 12.171875 29.828125 
Q 18.359375 34.515625 30.609375 34.515625 
L 43.21875 34.515625 
L 43.21875 35.40625 
Q 43.21875 41.609375 39.140625 45 
Q 35.0625 48.390625 27.6875 48.390625 
Q 23 48.390625 18.546875 47.265625 
Q 14.109375 46.140625 10.015625 43.890625 
L 10.015625 52.203125 
Q 14.9375 54.109375 19.578125 55.046875 
Q 24.21875 56 28.609375 56 
Q 40.484375 56 46.34375 49.84375 
Q 52.203125 43.703125 52.203125 31.203125 
z
" id="DejaVuSans-97"/>
      </defs>
      <g transform="translate(310.24375 266.320312)scale(0.1 -0.1)">
       <use xlink:href="#DejaVuSans-116"/>
       <use x="39.208984" xlink:href="#DejaVuSans-101"/>
       <use x="100.732422" xlink:href="#DejaVuSans-115"/>
       <use x="152.832031" xlink:href="#DejaVuSans-116"/>
       <use x="192.041016" xlink:href="#DejaVuSans-95"/>
       <use x="242.041016" xlink:href="#DejaVuSans-97"/>
       <use x="303.320312" xlink:href="#DejaVuSans-68"/>
       <use x="380.322266" xlink:href="#DejaVuSans-78"/>
      </g>
     </g>
    </g>
    <g id="text_4">
     <!-- test -->
     <g transform="translate(211.798438 280.276563)scale(0.1 -0.1)">
      <use xlink:href="#DejaVuSans-116"/>
      <use x="39.208984" xlink:href="#DejaVuSans-101"/>
      <use x="100.732422" xlink:href="#DejaVuSans-115"/>
      <use x="152.832031" xlink:href="#DejaVuSans-116"/>
     </g>
    </g>
   </g>
   <g id="matplotlib.axis_2">
    <g id="ytick_1">
     <g id="line2d_4">
      <defs>
       <path d="M 0 0 
L -3.5 0 
" id="mfde2d96647" style="stroke:#000000;stroke-width:0.8;"/>
      </defs>
      <g>
       <use style="stroke:#000000;stroke-width:0.8;" x="54" xlink:href="#mfde2d96647" y="252"/>
      </g>
     </g>
     <g id="text_5">
      <!-- 0.000 -->
      <defs>
       <path d="M 31.78125 66.40625 
Q 24.171875 66.40625 20.328125 58.90625 
Q 16.5 51.421875 16.5 36.375 
Q 16.5 21.390625 20.328125 13.890625 
Q 24.171875 6.390625 31.78125 6.390625 
Q 39.453125 6.390625 43.28125 13.890625 
Q 47.125 21.390625 47.125 36.375 
Q 47.125 51.421875 43.28125 58.90625 
Q 39.453125 66.40625 31.78125 66.40625 
z
M 31.78125 74.21875 
Q 44.046875 74.21875 50.515625 64.515625 
Q 56.984375 54.828125 56.984375 36.375 
Q 56.984375 17.96875 50.515625 8.265625 
Q 44.046875 -1.421875 31.78125 -1.421875 
Q 19.53125 -1.421875 13.0625 8.265625 
Q 6.59375 17.96875 6.59375 36.375 
Q 6.59375 54.828125 13.0625 64.515625 
Q 19.53125 74.21875 31.78125 74.21875 
z
" id="DejaVuSans-48"/>
       <path d="M 10.6875 12.40625 
L 21 12.40625 
L 21 0 
L 10.6875 0 
z
" id="DejaVuSans-46"/>
      </defs>
      <g transform="translate(18.371875 255.799219)scale(0.1 -0.1)">
       <use xlink:href="#DejaVuSans-48"/>
       <use x="63.623047" xlink:href="#DejaVuSans-46"/>
       <use x="95.410156" xlink:href="#DejaVuSans-48"/>
       <use x="159.033203" xlink:href="#DejaVuSans-48"/>
       <use x="222.65625" xlink:href="#DejaVuSans-48"/>
      </g>
     </g>
    </g>
    <g id="ytick_2">
     <g id="line2d_5">
      <g>
       <use style="stroke:#000000;stroke-width:0.8;" x="54" xlink:href="#mfde2d96647" y="224.82"/>
      </g>
     </g>
     <g id="text_6">
      <!-- 0.025 -->
      <defs>
       <path d="M 19.1875 8.296875 
L 53.609375 8.296875 
L 53.609375 0 
L 7.328125 0 
L 7.328125 8.296875 
Q 12.9375 14.109375 22.625 23.890625 
Q 32.328125 33.6875 34.8125 36.53125 
Q 39.546875 41.84375 41.421875 45.53125 
Q 43.3125 49.21875 43.3125 52.78125 
Q 43.3125 58.59375 39.234375 62.25 
Q 35.15625 65.921875 28.609375 65.921875 
Q 23.96875 65.921875 18.8125 64.3125 
Q 13.671875 62.703125 7.8125 59.421875 
L 7.8125 69.390625 
Q 13.765625 71.78125 18.9375 73 
Q 24.125 74.21875 28.421875 74.21875 
Q 39.75 74.21875 46.484375 68.546875 
Q 53.21875 62.890625 53.21875 53.421875 
Q 53.21875 48.921875 51.53125 44.890625 
Q 49.859375 40.875 45.40625 35.40625 
Q 44.1875 33.984375 37.640625 27.21875 
Q 31.109375 20.453125 19.1875 8.296875 
z
" id="DejaVuSans-50"/>
       <path d="M 10.796875 72.90625 
L 49.515625 72.90625 
L 49.515625 64.59375 
L 19.828125 64.59375 
L 19.828125 46.734375 
Q 21.96875 47.46875 24.109375 47.828125 
Q 26.265625 48.1875 28.421875 48.1875 
Q 40.625 48.1875 47.75 41.5 
Q 54.890625 34.8125 54.890625 23.390625 
Q 54.890625 11.625 47.5625 5.09375 
Q 40.234375 -1.421875 26.90625 -1.421875 
Q 22.3125 -1.421875 17.546875 -0.640625 
Q 12.796875 0.140625 7.71875 1.703125 
L 7.71875 11.625 
Q 12.109375 9.234375 16.796875 8.0625 
Q 21.484375 6.890625 26.703125 6.890625 
Q 35.15625 6.890625 40.078125 11.328125 
Q 45.015625 15.765625 45.015625 23.390625 
Q 45.015625 31 40.078125 35.4375 
Q 35.15625 39.890625 26.703125 39.890625 
Q 22.75 39.890625 18.8125 39.015625 
Q 14.890625 38.140625 10.796875 36.28125 
z
" id="DejaVuSans-53"/>
      </defs>
      <g transform="translate(18.371875 228.619219)scale(0.1 -0.1)">
       <use xlink:href="#DejaVuSans-48"/>
       <use x="63.623047" xlink:href="#DejaVuSans-46"/>
       <use x="95.410156" xlink:href="#DejaVuSans-48"/>
       <use x="159.033203" xlink:href="#DejaVuSans-50"/>
       <use x="222.65625" xlink:href="#DejaVuSans-53"/>
      </g>
     </g>
    </g>
    <g id="ytick_3">
     <g id="line2d_6">
      <g>
       <use style="stroke:#000000;stroke-width:0.8;" x="54" xlink:href="#mfde2d96647" y="197.64"/>
      </g>
     </g>
     <g id="text_7">
      <!-- 0.050 -->
      <g transform="translate(18.371875 201.439219)scale(0.1 -0.1)">
       <use xlink:href="#DejaVuSans-48"/>
       <use x="63.623047" xlink:href="#DejaVuSans-46"/>
       <use x="95.410156" xlink:href="#DejaVuSans-48"/>
       <use x="159.033203" xlink:href="#DejaVuSans-53"/>
       <use x="222.65625" xlink:href="#DejaVuSans-48"/>
      </g>
     </g>
    </g>
    <g id="ytick_4">
     <g id="line2d_7">
      <g>
       <use style="stroke:#000000;stroke-width:0.8;" x="54" xlink:href="#mfde2d96647" y="170.46"/>
      </g>
     </g>
     <g id="text_8">
      <!-- 0.075 -->
      <defs>
       <path d="M 8.203125 72.90625 
L 55.078125 72.90625 
L 55.078125 68.703125 
L 28.609375 0 
L 18.3125 0 
L 43.21875 64.59375 
L 8.203125 64.59375 
z
" id="DejaVuSans-55"/>
      </defs>
      <g transform="translate(18.371875 174.259219)scale(0.1 -0.1)">
       <use xlink:href="#DejaVuSans-48"/>
       <use x="63.623047" xlink:href="#DejaVuSans-46"/>
       <use x="95.410156" xlink:href="#DejaVuSans-48"/>
       <use x="159.033203" xlink:href="#DejaVuSans-55"/>
       <use x="222.65625" xlink:href="#DejaVuSans-53"/>
      </g>
     </g>
    </g>
    <g id="ytick_5">
     <g id="line2d_8">
      <g>
       <use style="stroke:#000000;stroke-width:0.8;" x="54" xlink:href="#mfde2d96647" y="143.28"/>
      </g>
     </g>
     <g id="text_9">
      <!-- 0.100 -->
      <defs>
       <path d="M 12.40625 8.296875 
L 28.515625 8.296875 
L 28.515625 63.921875 
L 10.984375 60.40625 
L 10.984375 69.390625 
L 28.421875 72.90625 
L 38.28125 72.90625 
L 38.28125 8.296875 
L 54.390625 8.296875 
L 54.390625 0 
L 12.40625 0 
z
" id="DejaVuSans-49"/>
      </defs>
      <g transform="translate(18.371875 147.079219)scale(0.1 -0.1)">
       <use xlink:href="#DejaVuSans-48"/>
       <use x="63.623047" xlink:href="#DejaVuSans-46"/>
       <use x="95.410156" xlink:href="#DejaVuSans-49"/>
       <use x="159.033203" xlink:href="#DejaVuSans-48"/>
       <use x="222.65625" xlink:href="#DejaVuSans-48"/>
      </g>
     </g>
    </g>
    <g id="ytick_6">
     <g id="line2d_9">
      <g>
       <use style="stroke:#000000;stroke-width:0.8;" x="54" xlink:href="#mfde2d96647" y="116.1"/>
      </g>
     </g>
     <g id="text_10">
      <!-- 0.125 -->
      <g transform="translate(18.371875 119.899219)scale(0.1 -0.1)">
       <use xlink:href="#DejaVuSans-48"/>
       <use x="63.623047" xlink:href="#DejaVuSans-46"/>
       <use x="95.410156" xlink:href="#DejaVuSans-49"/>
       <use x="159.033203" xlink:href="#DejaVuSans-50"/>
       <use x="222.65625" xlink:href="#DejaVuSans-53"/>
      </g>
     </g>
    </g>
    <g id="ytick_7">
     <g id="line2d_10">
      <g>
       <use style="stroke:#000000;stroke-width:0.8;" x="54" xlink:href="#mfde2d96647" y="88.92"/>
      </g>
     </g>
     <g id="text_11">
      <!-- 0.150 -->
      <g transform="translate(18.371875 92.719219)scale(0.1 -0.1)">
       <use xlink:href="#DejaVuSans-48"/>
       <use x="63.623047" xlink:href="#DejaVuSans-46"/>
       <use x="95.410156" xlink:href="#DejaVuSans-49"/>
       <use x="159.033203" xlink:href="#DejaVuSans-53"/>
       <use x="222.65625" xlink:href="#DejaVuSans-48"/>
      </g>
     </g>
    </g>
    <g id="ytick_8">
     <g id="line2d_11">
      <g>
       <use style="stroke:#000000;stroke-width:0.8;" x="54" xlink:href="#mfde2d96647" y="61.74"/>
      </g>
     </g>
     <g id="text_12">
      <!-- 0.175 -->
      <g transform="translate(18.371875 65.539219)scale(0.1 -0.1)">
       <use xlink:href="#DejaVuSans-48"/>
       <use x="63.623047" xlink:href="#DejaVuSans-46"/>
       <use x="95.410156" xlink:href="#DejaVuSans-49"/>
       <use x="159.033203" xlink:href="#DejaVuSans-55"/>
       <use x="222.65625" xlink:href="#DejaVuSans-53"/>
      </g>
     </g>
    </g>
    <g id="ytick_9">
     <g id="line2d_12">
      <g>
       <use style="stroke:#000000;stroke-width:0.8;" x="54" xlink:href="#mfde2d96647" y="34.56"/>
      </g>
     </g>
     <g id="text_13">
      <!-- 0.200 -->
      <g transform="translate(18.371875 38.359219)scale(0.1 -0.1)">
       <use xlink:href="#DejaVuSans-48"/>
       <use x="63.623047" xlink:href="#DejaVuSans-46"/>
       <use x="95.410156" xlink:href="#DejaVuSans-50"/>
       <use x="159.033203" xlink:href="#DejaVuSans-48"/>
       <use x="222.65625" xlink:href="#DejaVuSans-48"/>
      </g>
     </g>
    </g>
    <g id="text_14">
     <!-- value -->
     <defs>
      <path d="M 2.984375 54.6875 
L 12.5 54.6875 
L 29.59375 8.796875 
L 46.6875 54.6875 
L 56.203125 54.6875 
L 35.6875 0 
L 23.484375 0 
z
" id="DejaVuSans-118"/>
      <path d="M 9.421875 75.984375 
L 18.40625 75.984375 
L 18.40625 0 
L 9.421875 0 
z
" id="DejaVuSans-108"/>
      <path d="M 8.5 21.578125 
L 8.5 54.6875 
L 17.484375 54.6875 
L 17.484375 21.921875 
Q 17.484375 14.15625 20.5 10.265625 
Q 23.53125 6.390625 29.59375 6.390625 
Q 36.859375 6.390625 41.078125 11.03125 
Q 45.3125 15.671875 45.3125 23.6875 
L 45.3125 54.6875 
L 54.296875 54.6875 
L 54.296875 0 
L 45.3125 0 
L 45.3125 8.40625 
Q 42.046875 3.421875 37.71875 1 
Q 33.40625 -1.421875 27.6875 -1.421875 
Q 18.265625 -1.421875 13.375 4.4375 
Q 8.5 10.296875 8.5 21.578125 
z
M 31.109375 56 
z
" id="DejaVuSans-117"/>
     </defs>
     <g transform="translate(12.292187 156.937813)rotate(-90)scale(0.1 -0.1)">
      <use xlink:href="#DejaVuSans-118"/>
      <use x="59.179688" xlink:href="#DejaVuSans-97"/>
      <use x="120.458984" xlink:href="#DejaVuSans-108"/>
      <use x="148.242188" xlink:href="#DejaVuSans-117"/>
      <use x="211.621094" xlink:href="#DejaVuSans-101"/>
     </g>
    </g>
   </g>
   <g id="line2d_13">
    <path clip-path="url(#pd7b3921b15)" d="M 109.8 247.709642 
L 109.8 208.18409 
" style="fill:none;stroke:#3d3d3d;stroke-linecap:square;stroke-width:1.5;"/>
   </g>
   <g id="line2d_14">
    <path clip-path="url(#pd7b3921b15)" d="M 109.8 241.84523 
L 109.8 228.345528 
" style="fill:none;stroke:#3d3d3d;stroke-linecap:square;stroke-width:4.5;"/>
   </g>
   <g id="line2d_15">
    <path clip-path="url(#pd7b3921b15)" d="M 221.4 248.219885 
L 221.4 209.332294 
" style="fill:none;stroke:#3d3d3d;stroke-linecap:square;stroke-width:1.5;"/>
   </g>
   <g id="line2d_16">
    <path clip-path="url(#pd7b3921b15)" d="M 221.4 240.687785 
L 221.4 228.121436 
" style="fill:none;stroke:#3d3d3d;stroke-linecap:square;stroke-width:4.5;"/>
   </g>
   <g id="line2d_17">
    <path clip-path="url(#pd7b3921b15)" d="M 333 248.480446 
L 333 190.210542 
" style="fill:none;stroke:#3d3d3d;stroke-linecap:square;stroke-width:1.5;"/>
   </g>
   <g id="line2d_18">
    <path clip-path="url(#pd7b3921b15)" d="M 333 238.254712 
L 333 218.975518 
" style="fill:none;stroke:#3d3d3d;stroke-linecap:square;stroke-width:4.5;"/>
   </g>
   <g id="patch_3">
    <path d="M 54 252 
L 54 34.56 
" style="fill:none;stroke:#000000;stroke-linecap:square;stroke-linejoin:miter;stroke-width:0.8;"/>
   </g>
   <g id="patch_4">
    <path d="M 388.8 252 
L 388.8 34.56 
" style="fill:none;stroke:#000000;stroke-linecap:square;stroke-linejoin:miter;stroke-width:0.8;"/>
   </g>
   <g id="patch_5">
    <path d="M 54 252 
L 388.8 252 
" style="fill:none;stroke:#000000;stroke-linecap:square;stroke-linejoin:miter;stroke-width:0.8;"/>
   </g>
   <g id="patch_6">
    <path d="M 54 34.56 
L 388.8 34.56 
" style="fill:none;stroke:#000000;stroke-linecap:square;stroke-linejoin:miter;stroke-width:0.8;"/>
   </g>
   <g id="PathCollection_1">
    <defs>
     <path d="M 0 1.5 
C 0.397805 1.5 0.77937 1.341951 1.06066 1.06066 
C 1.341951 0.77937 1.5 0.397805 1.5 0 
C 1.5 -0.397805 1.341951 -0.77937 1.06066 -1.06066 
C 0.77937 -1.341951 0.397805 -1.5 0 -1.5 
C -0.397805 -1.5 -0.77937 -1.341951 -1.06066 -1.06066 
C -1.341951 -0.77937 -1.5 -0.397805 -1.5 0 
C -1.5 0.397805 -1.341951 0.77937 -1.06066 1.06066 
C -0.77937 1.341951 -0.397805 1.5 0 1.5 
z
" id="m1f1a4a9218" style="stroke:#3d3d3d;"/>
    </defs>
    <g clip-path="url(#pd7b3921b15)">
     <use style="fill:#ffffff;stroke:#3d3d3d;" x="109.8" xlink:href="#m1f1a4a9218" y="237.776939"/>
    </g>
   </g>
   <g id="PathCollection_2">
    <g clip-path="url(#pd7b3921b15)">
     <use style="fill:#ffffff;stroke:#3d3d3d;" x="221.4" xlink:href="#m1f1a4a9218" y="235.319685"/>
    </g>
   </g>
   <g id="PathCollection_3">
    <g clip-path="url(#pd7b3921b15)">
     <use style="fill:#ffffff;stroke:#3d3d3d;" x="333" xlink:href="#m1f1a4a9218" y="232.739409"/>
    </g>
   </g>
  </g>
 </g>
 <defs>
  <clipPath id="pd7b3921b15">
   <rect height="217.44" width="334.8" x="54" y="34.56"/>
  </clipPath>
 </defs>
</svg>
