<?xml version="1.0" encoding="utf-8" standalone="no"?>
<!DOCTYPE svg PUBLIC "-//W3C//DTD SVG 1.1//EN"
  "http://www.w3.org/Graphics/SVG/1.1/DTD/svg11.dtd">
<!-- Created with matplotlib (https://matplotlib.org/) -->
<svg height="288pt" version="1.1" viewBox="0 0 432 288" width="432pt" xmlns="http://www.w3.org/2000/svg" xmlns:xlink="http://www.w3.org/1999/xlink">
 <defs>
  <style type="text/css">
*{stroke-linecap:butt;stroke-linejoin:round;}
  </style>
 </defs>
 <g id="figure_1">
  <g id="patch_1">
   <path d="M 0 288 
L 432 288 
L 432 0 
L 0 0 
z
" style="fill:#ffffff;"/>
  </g>
  <g id="axes_1">
   <g id="patch_2">
    <path d="M 54 252 
L 388.8 252 
L 388.8 34.56 
L 54 34.56 
z
" style="fill:#ffffff;"/>
   </g>
   <g id="PolyCollection_1">
    <path clip-path="url(#pf59a1f820f)" d="M 109.871955 285.833284 
L 109.728045 285.833284 
L 109.685755 282.419836 
L 109.623282 279.006389 
L 109.533606 275.592941 
L 109.408512 272.179493 
L 109.238913 268.766046 
L 109.015396 265.352598 
L 108.728982 261.939151 
L 108.372043 258.525703 
L 107.939268 255.112255 
L 107.428531 251.698808 
L 106.841508 248.28536 
L 106.183914 244.871913 
L 105.465264 241.458465 
L 104.698161 238.045017 
L 103.897207 234.63157 
L 103.077687 231.218122 
L 102.254251 227.804675 
L 101.439814 224.391227 
L 100.644837 220.977779 
L 99.877103 217.564332 
L 99.141977 214.150884 
L 98.443057 210.737437 
L 97.78306 207.323989 
L 97.164746 203.910541 
L 96.591698 200.497094 
L 96.0688 197.083646 
L 95.60235 193.670199 
L 95.199767 190.256751 
L 94.868952 186.843303 
L 94.617425 183.429856 
L 94.451349 180.016408 
L 94.374642 176.602961 
L 94.388319 173.189513 
L 94.490198 169.776065 
L 94.675041 166.362618 
L 94.935115 162.94917 
L 95.261078 159.535723 
L 95.643027 156.122275 
L 96.071494 152.708827 
L 96.538198 149.29538 
L 97.036424 145.881932 
L 97.560972 142.468485 
L 98.107754 139.055037 
L 98.673165 135.641589 
L 99.253431 132.228142 
L 99.844097 128.814694 
L 100.43978 125.401247 
L 101.034229 121.987799 
L 101.620644 118.574351 
L 102.192161 115.160904 
L 102.742371 111.747456 
L 103.265772 108.334009 
L 103.758079 104.920561 
L 104.216368 101.507113 
L 104.639079 98.093666 
L 105.025906 94.680218 
L 105.377639 91.266771 
L 105.695979 87.853323 
L 105.983348 84.439875 
L 106.242702 81.026428 
L 106.477337 77.61298 
L 106.690681 74.199533 
L 106.886093 70.786085 
L 107.06666 67.372637 
L 107.235034 63.95919 
L 107.393324 60.545742 
L 107.54305 57.132295 
L 107.685189 53.718847 
L 107.820266 50.305399 
L 107.948501 46.891952 
L 108.069967 43.478504 
L 108.184729 40.065057 
L 108.292949 36.651609 
L 108.394947 33.238161 
L 108.491203 29.824714 
L 108.582331 26.411266 
L 108.669027 22.997819 
L 108.752 19.584371 
L 108.831919 16.170923 
L 108.909363 12.757476 
L 108.98478 9.344028 
L 109.058463 5.930581 
L 109.130531 2.517133 
L 109.200919 -0.896315 
L 109.269375 -4.309762 
L 109.335481 -7.72321 
L 109.398678 -11.136657 
L 109.45832 -14.550105 
L 109.513742 -17.963553 
L 109.564324 -21.377 
L 109.609574 -24.790448 
L 109.649177 -28.203895 
L 109.683033 -31.617343 
L 109.71127 -35.030791 
L 109.734218 -38.444238 
L 109.752378 -41.857686 
L 109.766358 -45.271133 
L 109.776825 -48.684581 
L 109.78444 -52.098029 
L 109.81556 -52.098029 
L 109.81556 -52.098029 
L 109.823175 -48.684581 
L 109.833642 -45.271133 
L 109.847622 -41.857686 
L 109.865782 -38.444238 
L 109.88873 -35.030791 
L 109.916967 -31.617343 
L 109.950823 -28.203895 
L 109.990426 -24.790448 
L 110.035676 -21.377 
L 110.086258 -17.963553 
L 110.14168 -14.550105 
L 110.201322 -11.136657 
L 110.264519 -7.72321 
L 110.330625 -4.309762 
L 110.399081 -0.896315 
L 110.469469 2.517133 
L 110.541537 5.930581 
L 110.61522 9.344028 
L 110.690637 12.757476 
L 110.768081 16.170923 
L 110.848 19.584371 
L 110.930973 22.997819 
L 111.017669 26.411266 
L 111.108797 29.824714 
L 111.205053 33.238161 
L 111.307051 36.651609 
L 111.415271 40.065057 
L 111.530033 43.478504 
L 111.651499 46.891952 
L 111.779734 50.305399 
L 111.914811 53.718847 
L 112.05695 57.132295 
L 112.206676 60.545742 
L 112.364966 63.95919 
L 112.53334 67.372637 
L 112.713907 70.786085 
L 112.909319 74.199533 
L 113.122663 77.61298 
L 113.357298 81.026428 
L 113.616652 84.439875 
L 113.904021 87.853323 
L 114.222361 91.266771 
L 114.574094 94.680218 
L 114.960921 98.093666 
L 115.383632 101.507113 
L 115.841921 104.920561 
L 116.334228 108.334009 
L 116.857629 111.747456 
L 117.407839 115.160904 
L 117.979356 118.574351 
L 118.565771 121.987799 
L 119.16022 125.401247 
L 119.755903 128.814694 
L 120.346569 132.228142 
L 120.926835 135.641589 
L 121.492246 139.055037 
L 122.039028 142.468485 
L 122.563576 145.881932 
L 123.061802 149.29538 
L 123.528506 152.708827 
L 123.956973 156.122275 
L 124.338922 159.535723 
L 124.664885 162.94917 
L 124.924959 166.362618 
L 125.109802 169.776065 
L 125.211681 173.189513 
L 125.225358 176.602961 
L 125.148651 180.016408 
L 124.982575 183.429856 
L 124.731048 186.843303 
L 124.400233 190.256751 
L 123.99765 193.670199 
L 123.5312 197.083646 
L 123.008302 200.497094 
L 122.435254 203.910541 
L 121.81694 207.323989 
L 121.156943 210.737437 
L 120.458023 214.150884 
L 119.722897 217.564332 
L 118.955163 220.977779 
L 118.160186 224.391227 
L 117.345749 227.804675 
L 116.522313 231.218122 
L 115.702793 234.63157 
L 114.901839 238.045017 
L 114.134736 241.458465 
L 113.416086 244.871913 
L 112.758492 248.28536 
L 112.171469 251.698808 
L 111.660732 255.112255 
L 111.227957 258.525703 
L 110.871018 261.939151 
L 110.584604 265.352598 
L 110.361087 268.766046 
L 110.191488 272.179493 
L 110.066394 275.592941 
L 109.976718 279.006389 
L 109.914245 282.419836 
L 109.871955 285.833284 
z
" style="fill:#3274a1;stroke:#3d3d3d;stroke-width:1.5;"/>
   </g>
   <g id="PolyCollection_2">
    <path clip-path="url(#pf59a1f820f)" d="M 221.746753 335.34118 
L 221.053247 335.34118 
L 220.887253 327.800012 
L 220.661594 320.258845 
L 220.364188 312.717677 
L 219.984358 305.176509 
L 219.514529 297.635341 
L 218.952057 290.094173 
L 218.300898 282.553005 
L 217.572788 275.011837 
L 216.787638 267.47067 
L 215.972892 259.929502 
L 215.161785 252.388334 
L 214.39063 244.847166 
L 213.695439 237.305998 
L 213.108378 229.76483 
L 212.65457 222.223662 
L 212.349763 214.682495 
L 212.199198 207.141327 
L 212.1978 199.600159 
L 212.3316 192.058991 
L 212.580038 184.517823 
L 212.918746 176.976655 
L 213.322305 169.435487 
L 213.766614 161.89432 
L 214.230578 154.353152 
L 214.697049 146.811984 
L 215.153059 139.270816 
L 215.589514 131.729648 
L 216.000566 124.18848 
L 216.382879 116.647312 
L 216.734936 109.106145 
L 217.056495 101.564977 
L 217.348212 94.023809 
L 217.611415 86.482641 
L 217.847963 78.941473 
L 218.06015 71.400305 
L 218.2506 63.859137 
L 218.422141 56.31797 
L 218.577655 48.776802 
L 218.719925 41.235634 
L 218.851499 33.694466 
L 218.974601 26.153298 
L 219.091086 18.61213 
L 219.20244 11.070962 
L 219.309825 3.529795 
L 219.41413 -4.011373 
L 219.516018 -11.552541 
L 219.615956 -19.093709 
L 219.714224 -26.634877 
L 219.810897 -34.176045 
L 219.905828 -41.717213 
L 219.998643 -49.258381 
L 220.088755 -56.799548 
L 220.175423 -64.340716 
L 220.257832 -71.881884 
L 220.335208 -79.423052 
L 220.40692 -86.96422 
L 220.47258 -94.505388 
L 220.532096 -102.046556 
L 220.58568 -109.587723 
L 220.633806 -117.128891 
L 220.677133 -124.670059 
L 220.716407 -132.211227 
L 220.752353 -139.752395 
L 220.785595 -147.293563 
L 220.816608 -154.834731 
L 220.8457 -162.375898 
L 220.873038 -169.917066 
L 220.898691 -177.458234 
L 220.922696 -184.999402 
L 220.945107 -192.54057 
L 220.966039 -200.081738 
L 220.985688 -207.622906 
L 221.004327 -215.164073 
L 221.022281 -222.705241 
L 221.039892 -230.246409 
L 221.057483 -237.787577 
L 221.07532 -245.328745 
L 221.093592 -252.869913 
L 221.1124 -260.411081 
L 221.131758 -267.952248 
L 221.151605 -275.493416 
L 221.171819 -283.034584 
L 221.192234 -290.575752 
L 221.212654 -298.11692 
L 221.232858 -305.658088 
L 221.252617 -313.199256 
L 221.271691 -320.740423 
L 221.289844 -328.281591 
L 221.306849 -335.822759 
L 221.322505 -343.363927 
L 221.336648 -350.905095 
L 221.349167 -358.446263 
L 221.360007 -365.987431 
L 221.369179 -373.528599 
L 221.376755 -381.069766 
L 221.382856 -388.610934 
L 221.387645 -396.152102 
L 221.391305 -403.69327 
L 221.394028 -411.234438 
L 221.405972 -411.234438 
L 221.405972 -411.234438 
L 221.408695 -403.69327 
L 221.412355 -396.152102 
L 221.417144 -388.610934 
L 221.423245 -381.069766 
L 221.430821 -373.528599 
L 221.439993 -365.987431 
L 221.450833 -358.446263 
L 221.463352 -350.905095 
L 221.477495 -343.363927 
L 221.493151 -335.822759 
L 221.510156 -328.281591 
L 221.528309 -320.740423 
L 221.547383 -313.199256 
L 221.567142 -305.658088 
L 221.587346 -298.11692 
L 221.607766 -290.575752 
L 221.628181 -283.034584 
L 221.648395 -275.493416 
L 221.668242 -267.952248 
L 221.6876 -260.411081 
L 221.706408 -252.869913 
L 221.72468 -245.328745 
L 221.742517 -237.787577 
L 221.760108 -230.246409 
L 221.777719 -222.705241 
L 221.795673 -215.164073 
L 221.814312 -207.622906 
L 221.833961 -200.081738 
L 221.854893 -192.54057 
L 221.877304 -184.999402 
L 221.901309 -177.458234 
L 221.926962 -169.917066 
L 221.9543 -162.375898 
L 221.983392 -154.834731 
L 222.014405 -147.293563 
L 222.047647 -139.752395 
L 222.083593 -132.211227 
L 222.122867 -124.670059 
L 222.166194 -117.128891 
L 222.21432 -109.587723 
L 222.267904 -102.046556 
L 222.32742 -94.505388 
L 222.39308 -86.96422 
L 222.464792 -79.423052 
L 222.542168 -71.881884 
L 222.624577 -64.340716 
L 222.711245 -56.799548 
L 222.801357 -49.258381 
L 222.894172 -41.717213 
L 222.989103 -34.176045 
L 223.085776 -26.634877 
L 223.184044 -19.093709 
L 223.283982 -11.552541 
L 223.38587 -4.011373 
L 223.490175 3.529795 
L 223.59756 11.070962 
L 223.708914 18.61213 
L 223.825399 26.153298 
L 223.948501 33.694466 
L 224.080075 41.235634 
L 224.222345 48.776802 
L 224.377859 56.31797 
L 224.5494 63.859137 
L 224.73985 71.400305 
L 224.952037 78.941473 
L 225.188585 86.482641 
L 225.451788 94.023809 
L 225.743505 101.564977 
L 226.065064 109.106145 
L 226.417121 116.647312 
L 226.799434 124.18848 
L 227.210486 131.729648 
L 227.646941 139.270816 
L 228.102951 146.811984 
L 228.569422 154.353152 
L 229.033386 161.89432 
L 229.477695 169.435487 
L 229.881254 176.976655 
L 230.219962 184.517823 
L 230.4684 192.058991 
L 230.6022 199.600159 
L 230.600802 207.141327 
L 230.450237 214.682495 
L 230.14543 222.223662 
L 229.691622 229.76483 
L 229.104561 237.305998 
L 228.40937 244.847166 
L 227.638215 252.388334 
L 226.827108 259.929502 
L 226.012362 267.47067 
L 225.227212 275.011837 
L 224.499102 282.553005 
L 223.847943 290.094173 
L 223.285471 297.635341 
L 222.815642 305.176509 
L 222.435812 312.717677 
L 222.138406 320.258845 
L 221.912747 327.800012 
L 221.746753 335.34118 
z
" style="fill:#e1812c;stroke:#3d3d3d;stroke-width:1.5;"/>
   </g>
   <g id="PolyCollection_3">
    <defs>
     <path d="M 334.035385 -5.601419 
L 331.964615 -5.601419 
L 331.484835 -8.418358 
L 330.840614 -11.235297 
L 330.002318 -14.052235 
L 328.945782 -16.869174 
L 327.656993 -19.686113 
L 326.136847 -22.503052 
L 324.405181 -25.31999 
L 322.503203 -28.136929 
L 320.493521 -30.953868 
L 318.457253 -33.770807 
L 316.48816 -36.587745 
L 314.684304 -39.404684 
L 313.138204 -42.221623 
L 311.926896 -45.038562 
L 311.103369 -47.8555 
L 310.690732 -50.672439 
L 310.68 -53.489378 
L 311.031834 -56.306316 
L 311.681888 -59.123255 
L 312.548904 -61.940194 
L 313.544293 -64.757133 
L 314.581867 -67.574071 
L 315.586435 -70.39101 
L 316.500316 -73.207949 
L 317.287192 -76.024888 
L 317.933106 -78.841826 
L 318.444832 -81.658765 
L 318.846082 -84.475704 
L 319.17223 -87.292643 
L 319.464316 -90.109581 
L 319.763106 -92.92652 
L 320.103878 -95.743459 
L 320.512507 -98.560398 
L 321.00316 -101.377336 
L 321.577734 -104.194275 
L 322.226903 -107.011214 
L 322.932438 -109.828153 
L 323.670339 -112.645091 
L 324.414239 -115.46203 
L 325.138573 -118.278969 
L 325.82113 -121.095907 
L 326.444735 -123.912846 
L 326.998028 -126.729785 
L 327.475404 -129.546724 
L 327.876347 -132.363662 
L 328.204391 -135.180601 
L 328.46597 -137.99754 
L 328.669342 -140.814479 
L 328.823714 -143.631417 
L 328.938608 -146.448356 
L 329.023453 -149.265295 
L 329.087344 -152.082234 
L 329.138887 -154.899172 
L 329.186085 -157.716111 
L 329.236205 -160.53305 
L 329.29561 -163.349989 
L 329.369579 -166.166927 
L 329.462114 -168.983866 
L 329.575786 -171.800805 
L 329.711637 -174.617743 
L 329.869171 -177.434682 
L 330.046442 -180.251621 
L 330.240238 -183.06856 
L 330.446357 -185.885498 
L 330.659938 -188.702437 
L 330.87584 -191.519376 
L 331.089006 -194.336315 
L 331.294812 -197.153253 
L 331.489334 -199.970192 
L 331.669553 -202.787131 
L 331.833442 -205.60407 
L 331.979974 -208.421008 
L 332.109035 -211.237947 
L 332.221273 -214.054886 
L 332.317914 -216.871825 
L 332.400562 -219.688763 
L 332.471012 -222.505702 
L 332.5311 -225.322641 
L 332.582584 -228.139579 
L 332.627074 -230.956518 
L 332.665983 -233.773457 
L 332.700519 -236.590396 
L 332.731676 -239.407334 
L 332.760242 -242.224273 
L 332.786803 -245.041212 
L 332.811759 -247.858151 
L 332.835334 -250.675089 
L 332.8576 -253.492028 
L 332.878512 -256.308967 
L 332.897942 -259.125906 
L 332.915724 -261.942844 
L 332.931698 -264.759783 
L 332.945744 -267.576722 
L 332.957807 -270.393661 
L 332.967909 -273.210599 
L 332.97615 -276.027538 
L 332.982692 -278.844477 
L 332.987742 -281.661416 
L 332.991533 -284.478354 
L 333.008467 -284.478354 
L 333.008467 -284.478354 
L 333.012258 -281.661416 
L 333.017308 -278.844477 
L 333.02385 -276.027538 
L 333.032091 -273.210599 
L 333.042193 -270.393661 
L 333.054256 -267.576722 
L 333.068302 -264.759783 
L 333.084276 -261.942844 
L 333.102058 -259.125906 
L 333.121488 -256.308967 
L 333.1424 -253.492028 
L 333.164666 -250.675089 
L 333.188241 -247.858151 
L 333.213197 -245.041212 
L 333.239758 -242.224273 
L 333.268324 -239.407334 
L 333.299481 -236.590396 
L 333.334017 -233.773457 
L 333.372926 -230.956518 
L 333.417416 -228.139579 
L 333.4689 -225.322641 
L 333.528988 -222.505702 
L 333.599438 -219.688763 
L 333.682086 -216.871825 
L 333.778727 -214.054886 
L 333.890965 -211.237947 
L 334.020026 -208.421008 
L 334.166558 -205.60407 
L 334.330447 -202.787131 
L 334.510666 -199.970192 
L 334.705188 -197.153253 
L 334.910994 -194.336315 
L 335.12416 -191.519376 
L 335.340062 -188.702437 
L 335.553643 -185.885498 
L 335.759762 -183.06856 
L 335.953558 -180.251621 
L 336.130829 -177.434682 
L 336.288363 -174.617743 
L 336.424214 -171.800805 
L 336.537886 -168.983866 
L 336.630421 -166.166927 
L 336.70439 -163.349989 
L 336.763795 -160.53305 
L 336.813915 -157.716111 
L 336.861113 -154.899172 
L 336.912656 -152.082234 
L 336.976547 -149.265295 
L 337.061392 -146.448356 
L 337.176286 -143.631417 
L 337.330658 -140.814479 
L 337.53403 -137.99754 
L 337.795609 -135.180601 
L 338.123653 -132.363662 
L 338.524596 -129.546724 
L 339.001972 -126.729785 
L 339.555265 -123.912846 
L 340.17887 -121.095907 
L 340.861427 -118.278969 
L 341.585761 -115.46203 
L 342.329661 -112.645091 
L 343.067562 -109.828153 
L 343.773097 -107.011214 
L 344.422266 -104.194275 
L 344.99684 -101.377336 
L 345.487493 -98.560398 
L 345.896122 -95.743459 
L 346.236894 -92.92652 
L 346.535684 -90.109581 
L 346.82777 -87.292643 
L 347.153918 -84.475704 
L 347.555168 -81.658765 
L 348.066894 -78.841826 
L 348.712808 -76.024888 
L 349.499684 -73.207949 
L 350.413565 -70.39101 
L 351.418133 -67.574071 
L 352.455707 -64.757133 
L 353.451096 -61.940194 
L 354.318112 -59.123255 
L 354.968166 -56.306316 
L 355.32 -53.489378 
L 355.309268 -50.672439 
L 354.896631 -47.8555 
L 354.073104 -45.038562 
L 352.861796 -42.221623 
L 351.315696 -39.404684 
L 349.51184 -36.587745 
L 347.542747 -33.770807 
L 345.506479 -30.953868 
L 343.496797 -28.136929 
L 341.594819 -25.31999 
L 339.863153 -22.503052 
L 338.343007 -19.686113 
L 337.054218 -16.869174 
L 335.997682 -14.052235 
L 335.159386 -11.235297 
L 334.515165 -8.418358 
L 334.035385 -5.601419 
z
" id="m2d695941ff" style="stroke:#3d3d3d;stroke-width:1.5;"/>
    </defs>
    <g clip-path="url(#pf59a1f820f)">
     <use style="fill:#3a923a;stroke:#3d3d3d;stroke-width:1.5;" x="0" xlink:href="#m2d695941ff" y="288"/>
    </g>
   </g>
   <g id="matplotlib.axis_1">
    <g id="xtick_1">
     <g id="line2d_1">
      <defs>
       <path d="M 0 0 
L 0 3.5 
" id="m56f68d76e8" style="stroke:#000000;stroke-width:0.8;"/>
      </defs>
      <g>
       <use style="stroke:#000000;stroke-width:0.8;" x="109.8" xlink:href="#m56f68d76e8" y="252"/>
      </g>
     </g>
     <g id="text_1">
      <!-- test_PR -->
      <defs>
       <path d="M 18.3125 70.21875 
L 18.3125 54.6875 
L 36.8125 54.6875 
L 36.8125 47.703125 
L 18.3125 47.703125 
L 18.3125 18.015625 
Q 18.3125 11.328125 20.140625 9.421875 
Q 21.96875 7.515625 27.59375 7.515625 
L 36.8125 7.515625 
L 36.8125 0 
L 27.59375 0 
Q 17.1875 0 13.234375 3.875 
Q 9.28125 7.765625 9.28125 18.015625 
L 9.28125 47.703125 
L 2.6875 47.703125 
L 2.6875 54.6875 
L 9.28125 54.6875 
L 9.28125 70.21875 
z
" id="DejaVuSans-116"/>
       <path d="M 56.203125 29.59375 
L 56.203125 25.203125 
L 14.890625 25.203125 
Q 15.484375 15.921875 20.484375 11.0625 
Q 25.484375 6.203125 34.421875 6.203125 
Q 39.59375 6.203125 44.453125 7.46875 
Q 49.3125 8.734375 54.109375 11.28125 
L 54.109375 2.78125 
Q 49.265625 0.734375 44.1875 -0.34375 
Q 39.109375 -1.421875 33.890625 -1.421875 
Q 20.796875 -1.421875 13.15625 6.1875 
Q 5.515625 13.8125 5.515625 26.8125 
Q 5.515625 40.234375 12.765625 48.109375 
Q 20.015625 56 32.328125 56 
Q 43.359375 56 49.78125 48.890625 
Q 56.203125 41.796875 56.203125 29.59375 
z
M 47.21875 32.234375 
Q 47.125 39.59375 43.09375 43.984375 
Q 39.0625 48.390625 32.421875 48.390625 
Q 24.90625 48.390625 20.390625 44.140625 
Q 15.875 39.890625 15.1875 32.171875 
z
" id="DejaVuSans-101"/>
       <path d="M 44.28125 53.078125 
L 44.28125 44.578125 
Q 40.484375 46.53125 36.375 47.5 
Q 32.28125 48.484375 27.875 48.484375 
Q 21.1875 48.484375 17.84375 46.4375 
Q 14.5 44.390625 14.5 40.28125 
Q 14.5 37.15625 16.890625 35.375 
Q 19.28125 33.59375 26.515625 31.984375 
L 29.59375 31.296875 
Q 39.15625 29.25 43.1875 25.515625 
Q 47.21875 21.78125 47.21875 15.09375 
Q 47.21875 7.46875 41.1875 3.015625 
Q 35.15625 -1.421875 24.609375 -1.421875 
Q 20.21875 -1.421875 15.453125 -0.5625 
Q 10.6875 0.296875 5.421875 2 
L 5.421875 11.28125 
Q 10.40625 8.6875 15.234375 7.390625 
Q 20.0625 6.109375 24.8125 6.109375 
Q 31.15625 6.109375 34.5625 8.28125 
Q 37.984375 10.453125 37.984375 14.40625 
Q 37.984375 18.0625 35.515625 20.015625 
Q 33.0625 21.96875 24.703125 23.78125 
L 21.578125 24.515625 
Q 13.234375 26.265625 9.515625 29.90625 
Q 5.8125 33.546875 5.8125 39.890625 
Q 5.8125 47.609375 11.28125 51.796875 
Q 16.75 56 26.8125 56 
Q 31.78125 56 36.171875 55.265625 
Q 40.578125 54.546875 44.28125 53.078125 
z
" id="DejaVuSans-115"/>
       <path d="M 50.984375 -16.609375 
L 50.984375 -23.578125 
L -0.984375 -23.578125 
L -0.984375 -16.609375 
z
" id="DejaVuSans-95"/>
       <path d="M 19.671875 64.796875 
L 19.671875 37.40625 
L 32.078125 37.40625 
Q 38.96875 37.40625 42.71875 40.96875 
Q 46.484375 44.53125 46.484375 51.125 
Q 46.484375 57.671875 42.71875 61.234375 
Q 38.96875 64.796875 32.078125 64.796875 
z
M 9.8125 72.90625 
L 32.078125 72.90625 
Q 44.34375 72.90625 50.609375 67.359375 
Q 56.890625 61.8125 56.890625 51.125 
Q 56.890625 40.328125 50.609375 34.8125 
Q 44.34375 29.296875 32.078125 29.296875 
L 19.671875 29.296875 
L 19.671875 0 
L 9.8125 0 
z
" id="DejaVuSans-80"/>
       <path d="M 44.390625 34.1875 
Q 47.5625 33.109375 50.5625 29.59375 
Q 53.5625 26.078125 56.59375 19.921875 
L 66.609375 0 
L 56 0 
L 46.6875 18.703125 
Q 43.0625 26.03125 39.671875 28.421875 
Q 36.28125 30.8125 30.421875 30.8125 
L 19.671875 30.8125 
L 19.671875 0 
L 9.8125 0 
L 9.8125 72.90625 
L 32.078125 72.90625 
Q 44.578125 72.90625 50.734375 67.671875 
Q 56.890625 62.453125 56.890625 51.90625 
Q 56.890625 45.015625 53.6875 40.46875 
Q 50.484375 35.9375 44.390625 34.1875 
z
M 19.671875 64.796875 
L 19.671875 38.921875 
L 32.078125 38.921875 
Q 39.203125 38.921875 42.84375 42.21875 
Q 46.484375 45.515625 46.484375 51.90625 
Q 46.484375 58.296875 42.84375 61.546875 
Q 39.203125 64.796875 32.078125 64.796875 
z
" id="DejaVuSans-82"/>
      </defs>
      <g transform="translate(91.209375 266.320312)scale(0.1 -0.1)">
       <use xlink:href="#DejaVuSans-116"/>
       <use x="39.208984" xlink:href="#DejaVuSans-101"/>
       <use x="100.732422" xlink:href="#DejaVuSans-115"/>
       <use x="152.832031" xlink:href="#DejaVuSans-116"/>
       <use x="192.041016" xlink:href="#DejaVuSans-95"/>
       <use x="242.041016" xlink:href="#DejaVuSans-80"/>
       <use x="302.34375" xlink:href="#DejaVuSans-82"/>
      </g>
     </g>
    </g>
    <g id="xtick_2">
     <g id="line2d_2">
      <g>
       <use style="stroke:#000000;stroke-width:0.8;" x="221.4" xlink:href="#m56f68d76e8" y="252"/>
      </g>
     </g>
     <g id="text_2">
      <!-- test_MDN -->
      <defs>
       <path d="M 9.8125 72.90625 
L 24.515625 72.90625 
L 43.109375 23.296875 
L 61.8125 72.90625 
L 76.515625 72.90625 
L 76.515625 0 
L 66.890625 0 
L 66.890625 64.015625 
L 48.09375 14.015625 
L 38.1875 14.015625 
L 19.390625 64.015625 
L 19.390625 0 
L 9.8125 0 
z
" id="DejaVuSans-77"/>
       <path d="M 19.671875 64.796875 
L 19.671875 8.109375 
L 31.59375 8.109375 
Q 46.6875 8.109375 53.6875 14.9375 
Q 60.6875 21.78125 60.6875 36.53125 
Q 60.6875 51.171875 53.6875 57.984375 
Q 46.6875 64.796875 31.59375 64.796875 
z
M 9.8125 72.90625 
L 30.078125 72.90625 
Q 51.265625 72.90625 61.171875 64.09375 
Q 71.09375 55.28125 71.09375 36.53125 
Q 71.09375 17.671875 61.125 8.828125 
Q 51.171875 0 30.078125 0 
L 9.8125 0 
z
" id="DejaVuSans-68"/>
       <path d="M 9.8125 72.90625 
L 23.09375 72.90625 
L 55.421875 11.921875 
L 55.421875 72.90625 
L 64.984375 72.90625 
L 64.984375 0 
L 51.703125 0 
L 19.390625 60.984375 
L 19.390625 0 
L 9.8125 0 
z
" id="DejaVuSans-78"/>
      </defs>
      <g transform="translate(197.39375 266.320312)scale(0.1 -0.1)">
       <use xlink:href="#DejaVuSans-116"/>
       <use x="39.208984" xlink:href="#DejaVuSans-101"/>
       <use x="100.732422" xlink:href="#DejaVuSans-115"/>
       <use x="152.832031" xlink:href="#DejaVuSans-116"/>
       <use x="192.041016" xlink:href="#DejaVuSans-95"/>
       <use x="242.041016" xlink:href="#DejaVuSans-77"/>
       <use x="328.320312" xlink:href="#DejaVuSans-68"/>
       <use x="405.322266" xlink:href="#DejaVuSans-78"/>
      </g>
     </g>
    </g>
    <g id="xtick_3">
     <g id="line2d_3">
      <g>
       <use style="stroke:#000000;stroke-width:0.8;" x="333" xlink:href="#m56f68d76e8" y="252"/>
      </g>
     </g>
     <g id="text_3">
      <!-- test_aDN -->
      <defs>
       <path d="M 34.28125 27.484375 
Q 23.390625 27.484375 19.1875 25 
Q 14.984375 22.515625 14.984375 16.5 
Q 14.984375 11.71875 18.140625 8.90625 
Q 21.296875 6.109375 26.703125 6.109375 
Q 34.1875 6.109375 38.703125 11.40625 
Q 43.21875 16.703125 43.21875 25.484375 
L 43.21875 27.484375 
z
M 52.203125 31.203125 
L 52.203125 0 
L 43.21875 0 
L 43.21875 8.296875 
Q 40.140625 3.328125 35.546875 0.953125 
Q 30.953125 -1.421875 24.3125 -1.421875 
Q 15.921875 -1.421875 10.953125 3.296875 
Q 6 8.015625 6 15.921875 
Q 6 25.140625 12.171875 29.828125 
Q 18.359375 34.515625 30.609375 34.515625 
L 43.21875 34.515625 
L 43.21875 35.40625 
Q 43.21875 41.609375 39.140625 45 
Q 35.0625 48.390625 27.6875 48.390625 
Q 23 48.390625 18.546875 47.265625 
Q 14.109375 46.140625 10.015625 43.890625 
L 10.015625 52.203125 
Q 14.9375 54.109375 19.578125 55.046875 
Q 24.21875 56 28.609375 56 
Q 40.484375 56 46.34375 49.84375 
Q 52.203125 43.703125 52.203125 31.203125 
z
" id="DejaVuSans-97"/>
      </defs>
      <g transform="translate(310.24375 266.320312)scale(0.1 -0.1)">
       <use xlink:href="#DejaVuSans-116"/>
       <use x="39.208984" xlink:href="#DejaVuSans-101"/>
       <use x="100.732422" xlink:href="#DejaVuSans-115"/>
       <use x="152.832031" xlink:href="#DejaVuSans-116"/>
       <use x="192.041016" xlink:href="#DejaVuSans-95"/>
       <use x="242.041016" xlink:href="#DejaVuSans-97"/>
       <use x="303.320312" xlink:href="#DejaVuSans-68"/>
       <use x="380.322266" xlink:href="#DejaVuSans-78"/>
      </g>
     </g>
    </g>
    <g id="text_4">
     <!-- test -->
     <g transform="translate(211.798438 280.276563)scale(0.1 -0.1)">
      <use xlink:href="#DejaVuSans-116"/>
      <use x="39.208984" xlink:href="#DejaVuSans-101"/>
      <use x="100.732422" xlink:href="#DejaVuSans-115"/>
      <use x="152.832031" xlink:href="#DejaVuSans-116"/>
     </g>
    </g>
   </g>
   <g id="matplotlib.axis_2">
    <g id="ytick_1">
     <g id="line2d_4">
      <defs>
       <path d="M 0 0 
L -3.5 0 
" id="mee0d278473" style="stroke:#000000;stroke-width:0.8;"/>
      </defs>
      <g>
       <use style="stroke:#000000;stroke-width:0.8;" x="54" xlink:href="#mee0d278473" y="252"/>
      </g>
     </g>
     <g id="text_5">
      <!-- 0.000 -->
      <defs>
       <path d="M 31.78125 66.40625 
Q 24.171875 66.40625 20.328125 58.90625 
Q 16.5 51.421875 16.5 36.375 
Q 16.5 21.390625 20.328125 13.890625 
Q 24.171875 6.390625 31.78125 6.390625 
Q 39.453125 6.390625 43.28125 13.890625 
Q 47.125 21.390625 47.125 36.375 
Q 47.125 51.421875 43.28125 58.90625 
Q 39.453125 66.40625 31.78125 66.40625 
z
M 31.78125 74.21875 
Q 44.046875 74.21875 50.515625 64.515625 
Q 56.984375 54.828125 56.984375 36.375 
Q 56.984375 17.96875 50.515625 8.265625 
Q 44.046875 -1.421875 31.78125 -1.421875 
Q 19.53125 -1.421875 13.0625 8.265625 
Q 6.59375 17.96875 6.59375 36.375 
Q 6.59375 54.828125 13.0625 64.515625 
Q 19.53125 74.21875 31.78125 74.21875 
z
" id="DejaVuSans-48"/>
       <path d="M 10.6875 12.40625 
L 21 12.40625 
L 21 0 
L 10.6875 0 
z
" id="DejaVuSans-46"/>
      </defs>
      <g transform="translate(18.371875 255.799219)scale(0.1 -0.1)">
       <use xlink:href="#DejaVuSans-48"/>
       <use x="63.623047" xlink:href="#DejaVuSans-46"/>
       <use x="95.410156" xlink:href="#DejaVuSans-48"/>
       <use x="159.033203" xlink:href="#DejaVuSans-48"/>
       <use x="222.65625" xlink:href="#DejaVuSans-48"/>
      </g>
     </g>
    </g>
    <g id="ytick_2">
     <g id="line2d_5">
      <g>
       <use style="stroke:#000000;stroke-width:0.8;" x="54" xlink:href="#mee0d278473" y="224.82"/>
      </g>
     </g>
     <g id="text_6">
      <!-- 0.025 -->
      <defs>
       <path d="M 19.1875 8.296875 
L 53.609375 8.296875 
L 53.609375 0 
L 7.328125 0 
L 7.328125 8.296875 
Q 12.9375 14.109375 22.625 23.890625 
Q 32.328125 33.6875 34.8125 36.53125 
Q 39.546875 41.84375 41.421875 45.53125 
Q 43.3125 49.21875 43.3125 52.78125 
Q 43.3125 58.59375 39.234375 62.25 
Q 35.15625 65.921875 28.609375 65.921875 
Q 23.96875 65.921875 18.8125 64.3125 
Q 13.671875 62.703125 7.8125 59.421875 
L 7.8125 69.390625 
Q 13.765625 71.78125 18.9375 73 
Q 24.125 74.21875 28.421875 74.21875 
Q 39.75 74.21875 46.484375 68.546875 
Q 53.21875 62.890625 53.21875 53.421875 
Q 53.21875 48.921875 51.53125 44.890625 
Q 49.859375 40.875 45.40625 35.40625 
Q 44.1875 33.984375 37.640625 27.21875 
Q 31.109375 20.453125 19.1875 8.296875 
z
" id="DejaVuSans-50"/>
       <path d="M 10.796875 72.90625 
L 49.515625 72.90625 
L 49.515625 64.59375 
L 19.828125 64.59375 
L 19.828125 46.734375 
Q 21.96875 47.46875 24.109375 47.828125 
Q 26.265625 48.1875 28.421875 48.1875 
Q 40.625 48.1875 47.75 41.5 
Q 54.890625 34.8125 54.890625 23.390625 
Q 54.890625 11.625 47.5625 5.09375 
Q 40.234375 -1.421875 26.90625 -1.421875 
Q 22.3125 -1.421875 17.546875 -0.640625 
Q 12.796875 0.140625 7.71875 1.703125 
L 7.71875 11.625 
Q 12.109375 9.234375 16.796875 8.0625 
Q 21.484375 6.890625 26.703125 6.890625 
Q 35.15625 6.890625 40.078125 11.328125 
Q 45.015625 15.765625 45.015625 23.390625 
Q 45.015625 31 40.078125 35.4375 
Q 35.15625 39.890625 26.703125 39.890625 
Q 22.75 39.890625 18.8125 39.015625 
Q 14.890625 38.140625 10.796875 36.28125 
z
" id="DejaVuSans-53"/>
      </defs>
      <g transform="translate(18.371875 228.619219)scale(0.1 -0.1)">
       <use xlink:href="#DejaVuSans-48"/>
       <use x="63.623047" xlink:href="#DejaVuSans-46"/>
       <use x="95.410156" xlink:href="#DejaVuSans-48"/>
       <use x="159.033203" xlink:href="#DejaVuSans-50"/>
       <use x="222.65625" xlink:href="#DejaVuSans-53"/>
      </g>
     </g>
    </g>
    <g id="ytick_3">
     <g id="line2d_6">
      <g>
       <use style="stroke:#000000;stroke-width:0.8;" x="54" xlink:href="#mee0d278473" y="197.64"/>
      </g>
     </g>
     <g id="text_7">
      <!-- 0.050 -->
      <g transform="translate(18.371875 201.439219)scale(0.1 -0.1)">
       <use xlink:href="#DejaVuSans-48"/>
       <use x="63.623047" xlink:href="#DejaVuSans-46"/>
       <use x="95.410156" xlink:href="#DejaVuSans-48"/>
       <use x="159.033203" xlink:href="#DejaVuSans-53"/>
       <use x="222.65625" xlink:href="#DejaVuSans-48"/>
      </g>
     </g>
    </g>
    <g id="ytick_4">
     <g id="line2d_7">
      <g>
       <use style="stroke:#000000;stroke-width:0.8;" x="54" xlink:href="#mee0d278473" y="170.46"/>
      </g>
     </g>
     <g id="text_8">
      <!-- 0.075 -->
      <defs>
       <path d="M 8.203125 72.90625 
L 55.078125 72.90625 
L 55.078125 68.703125 
L 28.609375 0 
L 18.3125 0 
L 43.21875 64.59375 
L 8.203125 64.59375 
z
" id="DejaVuSans-55"/>
      </defs>
      <g transform="translate(18.371875 174.259219)scale(0.1 -0.1)">
       <use xlink:href="#DejaVuSans-48"/>
       <use x="63.623047" xlink:href="#DejaVuSans-46"/>
       <use x="95.410156" xlink:href="#DejaVuSans-48"/>
       <use x="159.033203" xlink:href="#DejaVuSans-55"/>
       <use x="222.65625" xlink:href="#DejaVuSans-53"/>
      </g>
     </g>
    </g>
    <g id="ytick_5">
     <g id="line2d_8">
      <g>
       <use style="stroke:#000000;stroke-width:0.8;" x="54" xlink:href="#mee0d278473" y="143.28"/>
      </g>
     </g>
     <g id="text_9">
      <!-- 0.100 -->
      <defs>
       <path d="M 12.40625 8.296875 
L 28.515625 8.296875 
L 28.515625 63.921875 
L 10.984375 60.40625 
L 10.984375 69.390625 
L 28.421875 72.90625 
L 38.28125 72.90625 
L 38.28125 8.296875 
L 54.390625 8.296875 
L 54.390625 0 
L 12.40625 0 
z
" id="DejaVuSans-49"/>
      </defs>
      <g transform="translate(18.371875 147.079219)scale(0.1 -0.1)">
       <use xlink:href="#DejaVuSans-48"/>
       <use x="63.623047" xlink:href="#DejaVuSans-46"/>
       <use x="95.410156" xlink:href="#DejaVuSans-49"/>
       <use x="159.033203" xlink:href="#DejaVuSans-48"/>
       <use x="222.65625" xlink:href="#DejaVuSans-48"/>
      </g>
     </g>
    </g>
    <g id="ytick_6">
     <g id="line2d_9">
      <g>
       <use style="stroke:#000000;stroke-width:0.8;" x="54" xlink:href="#mee0d278473" y="116.1"/>
      </g>
     </g>
     <g id="text_10">
      <!-- 0.125 -->
      <g transform="translate(18.371875 119.899219)scale(0.1 -0.1)">
       <use xlink:href="#DejaVuSans-48"/>
       <use x="63.623047" xlink:href="#DejaVuSans-46"/>
       <use x="95.410156" xlink:href="#DejaVuSans-49"/>
       <use x="159.033203" xlink:href="#DejaVuSans-50"/>
       <use x="222.65625" xlink:href="#DejaVuSans-53"/>
      </g>
     </g>
    </g>
    <g id="ytick_7">
     <g id="line2d_10">
      <g>
       <use style="stroke:#000000;stroke-width:0.8;" x="54" xlink:href="#mee0d278473" y="88.92"/>
      </g>
     </g>
     <g id="text_11">
      <!-- 0.150 -->
      <g transform="translate(18.371875 92.719219)scale(0.1 -0.1)">
       <use xlink:href="#DejaVuSans-48"/>
       <use x="63.623047" xlink:href="#DejaVuSans-46"/>
       <use x="95.410156" xlink:href="#DejaVuSans-49"/>
       <use x="159.033203" xlink:href="#DejaVuSans-53"/>
       <use x="222.65625" xlink:href="#DejaVuSans-48"/>
      </g>
     </g>
    </g>
    <g id="ytick_8">
     <g id="line2d_11">
      <g>
       <use style="stroke:#000000;stroke-width:0.8;" x="54" xlink:href="#mee0d278473" y="61.74"/>
      </g>
     </g>
     <g id="text_12">
      <!-- 0.175 -->
      <g transform="translate(18.371875 65.539219)scale(0.1 -0.1)">
       <use xlink:href="#DejaVuSans-48"/>
       <use x="63.623047" xlink:href="#DejaVuSans-46"/>
       <use x="95.410156" xlink:href="#DejaVuSans-49"/>
       <use x="159.033203" xlink:href="#DejaVuSans-55"/>
       <use x="222.65625" xlink:href="#DejaVuSans-53"/>
      </g>
     </g>
    </g>
    <g id="ytick_9">
     <g id="line2d_12">
      <g>
       <use style="stroke:#000000;stroke-width:0.8;" x="54" xlink:href="#mee0d278473" y="34.56"/>
      </g>
     </g>
     <g id="text_13">
      <!-- 0.200 -->
      <g transform="translate(18.371875 38.359219)scale(0.1 -0.1)">
       <use xlink:href="#DejaVuSans-48"/>
       <use x="63.623047" xlink:href="#DejaVuSans-46"/>
       <use x="95.410156" xlink:href="#DejaVuSans-50"/>
       <use x="159.033203" xlink:href="#DejaVuSans-48"/>
       <use x="222.65625" xlink:href="#DejaVuSans-48"/>
      </g>
     </g>
    </g>
    <g id="text_14">
     <!-- value -->
     <defs>
      <path d="M 2.984375 54.6875 
L 12.5 54.6875 
L 29.59375 8.796875 
L 46.6875 54.6875 
L 56.203125 54.6875 
L 35.6875 0 
L 23.484375 0 
z
" id="DejaVuSans-118"/>
      <path d="M 9.421875 75.984375 
L 18.40625 75.984375 
L 18.40625 0 
L 9.421875 0 
z
" id="DejaVuSans-108"/>
      <path d="M 8.5 21.578125 
L 8.5 54.6875 
L 17.484375 54.6875 
L 17.484375 21.921875 
Q 17.484375 14.15625 20.5 10.265625 
Q 23.53125 6.390625 29.59375 6.390625 
Q 36.859375 6.390625 41.078125 11.03125 
Q 45.3125 15.671875 45.3125 23.6875 
L 45.3125 54.6875 
L 54.296875 54.6875 
L 54.296875 0 
L 45.3125 0 
L 45.3125 8.40625 
Q 42.046875 3.421875 37.71875 1 
Q 33.40625 -1.421875 27.6875 -1.421875 
Q 18.265625 -1.421875 13.375 4.4375 
Q 8.5 10.296875 8.5 21.578125 
z
M 31.109375 56 
z
" id="DejaVuSans-117"/>
     </defs>
     <g transform="translate(12.292187 156.937813)rotate(-90)scale(0.1 -0.1)">
      <use xlink:href="#DejaVuSans-118"/>
      <use x="59.179688" xlink:href="#DejaVuSans-97"/>
      <use x="120.458984" xlink:href="#DejaVuSans-108"/>
      <use x="148.242188" xlink:href="#DejaVuSans-117"/>
      <use x="211.621094" xlink:href="#DejaVuSans-101"/>
     </g>
    </g>
   </g>
   <g id="line2d_13">
    <path clip-path="url(#pf59a1f820f)" d="M 109.8 246.699356 
L 109.8 43.297817 
" style="fill:none;stroke:#3d3d3d;stroke-linecap:square;stroke-width:1.5;"/>
   </g>
   <g id="line2d_14">
    <path clip-path="url(#pf59a1f820f)" d="M 109.8 195.453122 
L 109.8 134.377168 
" style="fill:none;stroke:#3d3d3d;stroke-linecap:square;stroke-width:4.5;"/>
   </g>
   <g id="line2d_15">
    <path clip-path="url(#pf59a1f820f)" d="M 221.4 246.483182 
L 221.4 -1 
" style="fill:none;stroke:#3d3d3d;stroke-linecap:square;stroke-width:1.5;"/>
   </g>
   <g id="line2d_16">
    <path clip-path="url(#pf59a1f820f)" d="M 221.4 219.203428 
L 221.4 92.043553 
" style="fill:none;stroke:#3d3d3d;stroke-linecap:square;stroke-width:4.5;"/>
   </g>
   <g id="line2d_17">
    <path clip-path="url(#pf59a1f820f)" d="M 333 248.893024 
L 333 107.824482 
" style="fill:none;stroke:#3d3d3d;stroke-linecap:square;stroke-width:1.5;"/>
   </g>
   <g id="line2d_18">
    <path clip-path="url(#pf59a1f820f)" d="M 333 240.491175 
L 333 187.376485 
" style="fill:none;stroke:#3d3d3d;stroke-linecap:square;stroke-width:4.5;"/>
   </g>
   <g id="patch_3">
    <path d="M 54 252 
L 54 34.56 
" style="fill:none;stroke:#000000;stroke-linecap:square;stroke-linejoin:miter;stroke-width:0.8;"/>
   </g>
   <g id="patch_4">
    <path d="M 388.8 252 
L 388.8 34.56 
" style="fill:none;stroke:#000000;stroke-linecap:square;stroke-linejoin:miter;stroke-width:0.8;"/>
   </g>
   <g id="patch_5">
    <path d="M 54 252 
L 388.8 252 
" style="fill:none;stroke:#000000;stroke-linecap:square;stroke-linejoin:miter;stroke-width:0.8;"/>
   </g>
   <g id="patch_6">
    <path d="M 54 34.56 
L 388.8 34.56 
" style="fill:none;stroke:#000000;stroke-linecap:square;stroke-linejoin:miter;stroke-width:0.8;"/>
   </g>
   <g id="PathCollection_1">
    <defs>
     <path d="M 0 1.5 
C 0.397805 1.5 0.77937 1.341951 1.06066 1.06066 
C 1.341951 0.77937 1.5 0.397805 1.5 0 
C 1.5 -0.397805 1.341951 -0.77937 1.06066 -1.06066 
C 0.77937 -1.341951 0.397805 -1.5 0 -1.5 
C -0.397805 -1.5 -0.77937 -1.341951 -1.06066 -1.06066 
C -1.341951 -0.77937 -1.5 -0.397805 -1.5 0 
C -1.5 0.397805 -1.341951 0.77937 -1.06066 1.06066 
C -0.77937 1.341951 -0.397805 1.5 0 1.5 
z
" id="m485a5f44f2" style="stroke:#3d3d3d;"/>
    </defs>
    <g clip-path="url(#pf59a1f820f)">
     <use style="fill:#ffffff;stroke:#3d3d3d;" x="109.8" xlink:href="#m485a5f44f2" y="166.721221"/>
    </g>
   </g>
   <g id="PathCollection_2">
    <g clip-path="url(#pf59a1f820f)">
     <use style="fill:#ffffff;stroke:#3d3d3d;" x="221.4" xlink:href="#m485a5f44f2" y="176.520901"/>
    </g>
   </g>
   <g id="PathCollection_3">
    <g clip-path="url(#pf59a1f820f)">
     <use style="fill:#ffffff;stroke:#3d3d3d;" x="333" xlink:href="#m485a5f44f2" y="221.096825"/>
    </g>
   </g>
  </g>
 </g>
 <defs>
  <clipPath id="pf59a1f820f">
   <rect height="217.44" width="334.8" x="54" y="34.56"/>
  </clipPath>
 </defs>
</svg>
